999
dxfrw 0.6.3
  0
SECTION
  2
HEADER
  9
$ACADVER
  1
AC1021
  9
$DWGCODEPAGE
  3
ANSI_1252
  9
$INSBASE
 10
0
 20
0
 30
0
  9
$EXTMIN
 10
-6
 20
-100
 30
0
  9
$EXTMAX
 10
122
 20
0
 30
0
  9
$LIMMIN
 10
0
 20
0
  9
$LIMMAX
 10
420
 20
297
  9
$ORTHOMODE
 70
    0
  9
$REGENMODE
 70
    1
  9
$FILLMODE
 70
    1
  9
$QTEXTMODE
 70
    0
  9
$MIRRTEXT
 70
    0
  9
$LTSCALE
 40
1
  9
$ATTMODE
 70
    0
  9
$TEXTSIZE
 40
2.5
  9
$TRACEWID
 40
15.68
  9
$TEXTSTYLE
  7
STANDARD
  9
$CLAYER
  8
0
  9
$CELTYPE
  6
BYLAYER
  9
$CECOLOR
 62
  256
  9
$CELTSCALE
 40
1
  9
$DISPSILH
 70
    0
  9
$DIMSCALE
 40
1
  9
$DIMASZ
 40
0.1
  9
$DIMEXO
 40
0.025
  9
$DIMDLI
 40
3.75
  9
$DIMRND
 40
0
  9
$DIMDLE
 40
0
  9
$DIMEXE
 40
0.05
  9
$DIMTP
 40
0
  9
$DIMTM
 40
0
  9
$DIMTXT
 40
0.1
  9
$DIMCEN
 40
2.5
  9
$DIMTSZ
 40
0
  9
$DIMTOL
 70
    0
  9
$DIMLIM
 70
    0
  9
$DIMTIH
 70
    0
  9
$DIMTOH
 70
    0
  9
$DIMSE1
 70
    0
  9
$DIMSE2
 70
    0
  9
$DIMTAD
 70
    1
  9
$DIMZIN
 70
    1
  9
$DIMBLK
  1

  9
$DIMASO
 70
    1
  9
$DIMSHO
 70
    1
  9
$DIMPOST
  1

  9
$DIMAPOST
  1

  9
$DIMALT
 70
    0
  9
$DIMALTD
 70
    3
  9
$DIMALTF
 40
0.03937
  9
$DIMLFAC
 40
1
  9
$DIMTOFL
 70
    1
  9
$DIMTVP
 40
0
  9
$DIMTIX
 70
    0
  9
$DIMSOXD
 70
    0
  9
$DIMSAH
 70
    0
  9
$DIMBLK1
  1

  9
$DIMBLK2
  1

  9
$DIMSTYLE
  2
STANDARD
  9
$DIMCLRD
 70
    0
  9
$DIMCLRE
 70
    0
  9
$DIMCLRT
 70
    0
  9
$DIMTFAC
 40
1
  9
$DIMGAP
 40
0.025
  9
$DIMJUST
 70
    0
  9
$DIMSD1
 70
    0
  9
$DIMSD2
 70
    0
  9
$DIMTOLJ
 70
    0
  9
$DIMTZIN
 70
    8
  9
$DIMALTZ
 70
    0
  9
$DIMALTTZ
 70
    0
  9
$DIMUPT
 70
    0
  9
$DIMDEC
 70
    4
  9
$DIMTDEC
 70
    2
  9
$DIMALTU
 70
    2
  9
$DIMALTTD
 70
    3
  9
$DIMTXSTY
  7
standard
  9
$DIMAUNIT
 70
    0
  9
$DIMADEC
 70
    2
  9
$DIMALTRND
 40
0
  9
$DIMAZIN
 70
    0
  9
$DIMDSEP
 70
    0
  9
$DIMATFIT
 70
    3
  9
$DIMFRAC
 70
    0
  9
$DIMLDRBLK
  1
STANDARD
  9
$DIMLUNIT
 70
    2
  9
$DIMLWD
 70
   -2
  9
$DIMLWE
 70
   -2
  9
$DIMTMOVE
 70
    0
  9
$DIMFXL
 40
0.0394
  9
$DIMFXLON
 70
    0
  9
$DIMJOGANG
 40
0.7854
  9
$DIMTFILL
 70
    0
  9
$DIMTFILLCLR
 70
    0
  9
$DIMARCSYM
 70
    0
  9
$DIMLTYPE
  6

  9
$DIMLTEX1
  6

  9
$DIMLTEX2
  6

  9
$LUNITS
 70
    4
  9
$LUPREC
 70
    0
  9
$SKETCHINC
 40
1
  9
$FILLETRAD
 40
0
  9
$AUNITS
 70
    0
  9
$AUPREC
 70
    0
  9
$MENU
  1
.
  9
$ELEVATION
 40
0
  9
$PELEVATION
 40
0
  9
$THICKNESS
 40
0
  9
$LIMCHECK
 70
    0
  9
$CHAMFERA
 40
0
  9
$CHAMFERB
 40
0
  9
$CHAMFERC
 40
0
  9
$CHAMFERD
 40
0
  9
$SKPOLY
 70
    0
  9
$USRTIMER
 70
    1
  9
$ANGBASE
 50
0
  9
$ANGDIR
 70
    0
  9
$PDMODE
 70
   96
  9
$PDSIZE
 40
-2
  9
$PLINEWID
 40
0
  9
$SPLFRAME
 70
    0
  9
$SPLINETYPE
 70
    2
  9
$SPLINESEGS
 70
    8
  9
$HANDSEED
  5
20000
  9
$SURFTAB1
 70
    6
  9
$SURFTAB2
 70
    6
  9
$SURFTYPE
 70
    6
  9
$SURFU
 70
    6
  9
$SURFV
 70
    6
  9
$UCSBASE
  2

  9
$UCSNAME
  2

  9
$UCSORG
 10
0
 20
0
 30
0
  9
$UCSXDIR
 10
1
 20
0
 30
0
  9
$UCSYDIR
 10
0
 20
1
 30
0
  9
$UCSORTHOREF
  2

  9
$UCSORTHOVIEW
 70
    0
  9
$UCSORGTOP
 10
0
 20
0
 30
0
  9
$UCSORGBOTTOM
 10
0
 20
0
 30
0
  9
$UCSORGLEFT
 10
0
 20
0
 30
0
  9
$UCSORGRIGHT
 10
0
 20
0
 30
0
  9
$UCSORGFRONT
 10
0
 20
0
 30
0
  9
$UCSORGBACK
 10
0
 20
0
 30
0
  9
$PUCSBASE
  2

  9
$PUCSNAME
  2

  9
$PUCSORG
 10
0
 20
0
 30
0
  9
$PUCSXDIR
 10
1
 20
0
 30
0
  9
$PUCSYDIR
 10
0
 20
1
 30
0
  9
$PUCSORTHOREF
  2

  9
$PUCSORTHOVIEW
 70
    0
  9
$PUCSORGTOP
 10
0
 20
0
 30
0
  9
$PUCSORGBOTTOM
 10
0
 20
0
 30
0
  9
$PUCSORGLEFT
 10
0
 20
0
 30
0
  9
$PUCSORGRIGHT
 10
0
 20
0
 30
0
  9
$PUCSORGFRONT
 10
0
 20
0
 30
0
  9
$PUCSORGBACK
 10
0
 20
0
 30
0
  9
$USERI1
 70
    0
  9
$USERI2
 70
    0
  9
$USERI3
 70
    0
  9
$USERI4
 70
    0
  9
$USERI5
 70
    0
  9
$USERR1
 40
0
  9
$USERR2
 40
0
  9
$USERR3
 40
0
  9
$USERR4
 40
0
  9
$USERR5
 40
0
  9
$WORLDVIEW
 70
    1
  9
$SHADEDGE
 70
    3
  9
$SHADEDIF
 70
   70
  9
$TILEMODE
 70
    1
  9
$MAXACTVP
 70
   64
  9
$PINSBASE
 10
0
 20
0
 30
0
  9
$PLIMCHECK
 70
    0
  9
$PEXTMIN
 10
0
 20
0
 30
0
  9
$PEXTMAX
 10
0
 20
0
 30
0
  9
$GRIDMODE
 70
    1
  9
$SNAPSTYLE
 70
    0
  9
$GRIDUNIT
 10
1
 20
1
  9
$PLIMMIN
 10
0
 20
0
  9
$PLIMMAX
 10
0.3255
 20
0.46035
  9
$UNITMODE
 70
    0
  9
$VISRETAIN
 70
    1
  9
$PLINEGEN
 70
    0
  9
$PSLTSCALE
 70
    1
  9
$TREEDEPTH
 70
 3020
  9
$CMLSTYLE
  2
Standard
  9
$CMLJUST
 70
    0
  9
$CMLSCALE
 40
20
  9
$PROXYGRAPHICS
 70
    1
  9
$MEASUREMENT
 70
    0
  9
$CELWEIGHT
370
   -1
  9
$ENDCAPS
280
    0
  9
$JOINSTYLE
280
    0
  9
$LWDISPLAY
290
    0
  9
$INSUNITS
 70
    1
  9
$HYPERLINKBASE
  1

  9
$STYLESHEET
  1

  9
$XEDIT
290
    1
  9
$CEPSNTYPE
380
    0
  9
$PSTYLEMODE
290
    1
  9
$EXTNAMES
290
    1
  9
$PSVPSCALE
 40
1
  9
$OLESTARTUP
290
    0
  9
$SORTENTS
280
  127
  9
$INDEXCTL
280
    0
  9
$HIDETEXT
280
    1
  9
$XCLIPFRAME
290
    0
  9
$HALOGAP
280
    0
  9
$OBSCOLOR
 70
  257
  9
$OBSLTYPE
280
    0
  9
$INTERSECTIONDISPLAY
280
    0
  9
$INTERSECTIONCOLOR
 70
  257
  9
$DIMASSOC
280
    1
  9
$PROJECTNAME
  1

  9
$CAMERADISPLAY
290
    0
  9
$LENSLENGTH
 40
50
  9
$CAMERAHEIGHT
 40
0
  9
$STEPSPERSEC
 40
2
  9
$STEPSIZE
 40
50
  9
$3DDWFPREC
 40
2
  9
$PSOLWIDTH
 40
5
  9
$PSOLHEIGHT
 40
80
  9
$LOFTANG1
 40
1.570796326794897
  9
$LOFTANG2
 40
1.570796326794897
  9
$LOFTMAG1
 40
0
  9
$LOFTMAG2
 40
0
  9
$LOFTPARAM
 70
    7
  9
$LOFTNORMALS
280
    1
  9
$LATITUDE
 40
1
  9
$LONGITUDE
 40
1
  9
$NORTHDIRECTION
 40
0
  9
$TIMEZONE
 70
-8000
  9
$LIGHTGLYPHDISPLAY
280
    1
  9
$TILEMODELIGHTSYNCH
280
    1
  9
$SOLIDHIST
280
    1
  9
$SHOWHIST
280
    1
  9
$DWFFRAME
280
    2
  9
$DGNFRAME
280
    0
  9
$REALWORLDSCALE
290
    1
  9
$INTERFERECOLOR
 62
    1
  9
$CSHADOW
280
    0
  9
$SHADOWPLANELOCATION
 40
0
  0
ENDSEC
  0
SECTION
  2
CLASSES
  0
ENDSEC
  0
SECTION
  2
TABLES
  0
TABLE
  2
VPORT
  5
8
330
0
100
AcDbSymbolTable
 70
    1
  0
VPORT
  5
31
330
2
100
AcDbSymbolTableRecord
100
AcDbViewportTableRecord
  2
*ACTIVE
 70
    0
 10
0
 20
0
 11
1
 21
1
 12
94.68712132251122
 22
26.94593754646981
 13
0
 23
0
 14
10
 24
10
 15
1
 25
1
 16
0
 26
0
 36
1
 17
0
 27
0
 37
0
 40
206.8364144628464
 41
1.209606986899563
 42
50
 43
0
 44
0
 50
0
 51
0
 71
    0
 72
  100
 73
    1
 74
    3
 75
    0
 76
    1
 77
    0
 78
    0
281
    0
 65
    1
110
0
120
0
130
0
111
1
121
0
131
0
112
0
122
1
132
0
 79
    0
146
0
348
10020
 60
    3
 61
    5
292
1
282
    1
141
0
142
0
 63
  250
421
3358443
  0
ENDTAB
  0
TABLE
  2
LTYPE
  5
5
330
0
100
AcDbSymbolTable
 70
    4
  0
LTYPE
  5
14
330
5
100
AcDbSymbolTableRecord
100
AcDbLinetypeTableRecord
  2
ByBlock
 70
    0
  3

 72
   65
 73
    0
 40
0
  0
LTYPE
  5
15
330
5
100
AcDbSymbolTableRecord
100
AcDbLinetypeTableRecord
  2
ByLayer
 70
    0
  3

 72
   65
 73
    0
 40
0
  0
LTYPE
  5
16
330
5
100
AcDbSymbolTableRecord
100
AcDbLinetypeTableRecord
  2
Continuous
 70
    0
  3
Solid line
 72
   65
 73
    0
 40
0
  0
LTYPE
  5
32
330
5
100
AcDbSymbolTableRecord
100
AcDbLinetypeTableRecord
  2
DOT
 70
    0
  3
Dot . . . . . . . . . . . . . . . . . . . . . .
 72
   65
 73
    2
 40
6.35
 49
0
 74
    0
 49
-6.35
 74
    0
  0
LTYPE
  5
33
330
5
100
AcDbSymbolTableRecord
100
AcDbLinetypeTableRecord
  2
DOTTINY
 70
    0
  3
Dot (.15x) .....................................
 72
   65
 73
    2
 40
0.9525
 49
0
 74
    0
 49
-0.9525
 74
    0
  0
LTYPE
  5
34
330
5
100
AcDbSymbolTableRecord
100
AcDbLinetypeTableRecord
  2
DOT2
 70
    0
  3
Dot (.5x) .....................................
 72
   65
 73
    2
 40
3.175
 49
0
 74
    0
 49
-3.175
 74
    0
  0
LTYPE
  5
35
330
5
100
AcDbSymbolTableRecord
100
AcDbLinetypeTableRecord
  2
DOTX2
 70
    0
  3
Dot (2x) .  .  .  .  .  .  .  .  .  .  .  .  .
 72
   65
 73
    2
 40
12.7
 49
0
 74
    0
 49
-12.7
 74
    0
  0
LTYPE
  5
36
330
5
100
AcDbSymbolTableRecord
100
AcDbLinetypeTableRecord
  2
DASHED
 70
    0
  3
Dashed _ _ _ _ _ _ _ _ _ _ _ _ _ _ _ _ _
 72
   65
 73
    2
 40
19.05
 49
12.7
 74
    0
 49
-6.35
 74
    0
  0
LTYPE
  5
37
330
5
100
AcDbSymbolTableRecord
100
AcDbLinetypeTableRecord
  2
DASHEDTINY
 70
    0
  3
Dashed (.15x) _ _ _ _ _ _ _ _ _ _ _ _ _ _ _ _ _
 72
   65
 73
    2
 40
2.8575
 49
1.905
 74
    0
 49
-0.9525
 74
    0
  0
LTYPE
  5
38
330
5
100
AcDbSymbolTableRecord
100
AcDbLinetypeTableRecord
  2
DASHED2
 70
    0
  3
Dashed (.5x) _ _ _ _ _ _ _ _ _ _ _ _ _ _ _ _ _
 72
   65
 73
    2
 40
9.524999999999999
 49
6.35
 74
    0
 49
-3.175
 74
    0
  0
LTYPE
  5
39
330
5
100
AcDbSymbolTableRecord
100
AcDbLinetypeTableRecord
  2
DASHEDX2
 70
    0
  3
Dashed (2x) ____  ____  ____  ____  ____  ___
 72
   65
 73
    2
 40
38.09999999999999
 49
25.4
 74
    0
 49
-12.7
 74
    0
  0
LTYPE
  5
3A
330
5
100
AcDbSymbolTableRecord
100
AcDbLinetypeTableRecord
  2
DASHDOT
 70
    0
  3
Dash dot __ . __ . __ . __ . __ . __ . __ . __
 72
   65
 73
    4
 40
25.4
 49
12.7
 74
    0
 49
-6.35
 74
    0
 49
0
 74
    0
 49
-6.35
 74
    0
  0
LTYPE
  5
3B
330
5
100
AcDbSymbolTableRecord
100
AcDbLinetypeTableRecord
  2
DASHDOTTINY
 70
    0
  3
Dash dot (.15x) _._._._._._._._._._._._._._._.
 72
   65
 73
    4
 40
3.81
 49
1.905
 74
    0
 49
-0.9525
 74
    0
 49
0
 74
    0
 49
-0.9525
 74
    0
  0
LTYPE
  5
3C
330
5
100
AcDbSymbolTableRecord
100
AcDbLinetypeTableRecord
  2
DASHDOT2
 70
    0
  3
Dash dot (.5x) _._._._._._._._._._._._._._._.
 72
   65
 73
    4
 40
12.7
 49
6.35
 74
    0
 49
-3.175
 74
    0
 49
0
 74
    0
 49
-3.175
 74
    0
  0
LTYPE
  5
3D
330
5
100
AcDbSymbolTableRecord
100
AcDbLinetypeTableRecord
  2
DASHDOTX2
 70
    0
  3
Dash dot (2x) ____  .  ____  .  ____  .  ___
 72
   65
 73
    4
 40
50.8
 49
25.4
 74
    0
 49
-12.7
 74
    0
 49
0
 74
    0
 49
-12.7
 74
    0
  0
LTYPE
  5
3E
330
5
100
AcDbSymbolTableRecord
100
AcDbLinetypeTableRecord
  2
DIVIDE
 70
    0
  3
Divide ____ . . ____ . . ____ . . ____ . . ____
 72
   65
 73
    6
 40
31.75
 49
12.7
 74
    0
 49
-6.35
 74
    0
 49
0
 74
    0
 49
-6.35
 74
    0
 49
0
 74
    0
 49
-6.35
 74
    0
  0
LTYPE
  5
3F
330
5
100
AcDbSymbolTableRecord
100
AcDbLinetypeTableRecord
  2
DIVIDETINY
 70
    0
  3
Divide (.15x) __..__..__..__..__..__..__..__.._
 72
   65
 73
    6
 40
4.7625
 49
1.905
 74
    0
 49
-0.9525
 74
    0
 49
0
 74
    0
 49
-0.9525
 74
    0
 49
0
 74
    0
 49
-0.9525
 74
    0
  0
LTYPE
  5
40
330
5
100
AcDbSymbolTableRecord
100
AcDbLinetypeTableRecord
  2
DIVIDE2
 70
    0
  3
Divide (.5x) __..__..__..__..__..__..__..__.._
 72
   65
 73
    6
 40
15.875
 49
6.35
 74
    0
 49
-3.175
 74
    0
 49
0
 74
    0
 49
-3.175
 74
    0
 49
0
 74
    0
 49
-3.175
 74
    0
  0
LTYPE
  5
41
330
5
100
AcDbSymbolTableRecord
100
AcDbLinetypeTableRecord
  2
DIVIDEX2
 70
    0
  3
Divide (2x) ________  .  .  ________  .  .  _
 72
   65
 73
    6
 40
63.5
 49
25.4
 74
    0
 49
-12.7
 74
    0
 49
0
 74
    0
 49
-12.7
 74
    0
 49
0
 74
    0
 49
-12.7
 74
    0
  0
LTYPE
  5
42
330
5
100
AcDbSymbolTableRecord
100
AcDbLinetypeTableRecord
  2
BORDER
 70
    0
  3
Border __ __ . __ __ . __ __ . __ __ . __ __ .
 72
   65
 73
    6
 40
44.45
 49
12.7
 74
    0
 49
-6.35
 74
    0
 49
12.7
 74
    0
 49
-6.35
 74
    0
 49
0
 74
    0
 49
-6.35
 74
    0
  0
LTYPE
  5
43
330
5
100
AcDbSymbolTableRecord
100
AcDbLinetypeTableRecord
  2
BORDERTINY
 70
    0
  3
Border (.15x) __.__.__.__.__.__.__.__.__.__.__.
 72
   65
 73
    6
 40
6.6675
 49
1.905
 74
    0
 49
-0.9525
 74
    0
 49
1.905
 74
    0
 49
-0.9525
 74
    0
 49
0
 74
    0
 49
-0.9525
 74
    0
  0
LTYPE
  5
44
330
5
100
AcDbSymbolTableRecord
100
AcDbLinetypeTableRecord
  2
BORDER2
 70
    0
  3
Border (.5x) __.__.__.__.__.__.__.__.__.__.__.
 72
   65
 73
    6
 40
22.225
 49
6.35
 74
    0
 49
-3.175
 74
    0
 49
6.35
 74
    0
 49
-3.175
 74
    0
 49
0
 74
    0
 49
-3.175
 74
    0
  0
LTYPE
  5
45
330
5
100
AcDbSymbolTableRecord
100
AcDbLinetypeTableRecord
  2
BORDERX2
 70
    0
  3
Border (2x) ____  ____  .  ____  ____  .  ___
 72
   65
 73
    6
 40
88.89999999999999
 49
25.4
 74
    0
 49
-12.7
 74
    0
 49
25.4
 74
    0
 49
-12.7
 74
    0
 49
0
 74
    0
 49
-12.7
 74
    0
  0
LTYPE
  5
46
330
5
100
AcDbSymbolTableRecord
100
AcDbLinetypeTableRecord
  2
CENTER
 70
    0
  3
Center ____ _ ____ _ ____ _ ____ _ ____ _ ____
 72
   65
 73
    4
 40
50.8
 49
31.75
 74
    0
 49
-6.35
 74
    0
 49
6.35
 74
    0
 49
-6.35
 74
    0
  0
LTYPE
  5
47
330
5
100
AcDbSymbolTableRecord
100
AcDbLinetypeTableRecord
  2
CENTERTINY
 70
    0
  3
Center (.15x) ___ _ ___ _ ___ _ ___ _ ___ _ ___
 72
   65
 73
    4
 40
7.619999999999999
 49
4.7625
 74
    0
 49
-0.9525
 74
    0
 49
0.9525
 74
    0
 49
-0.9525
 74
    0
  0
LTYPE
  5
48
330
5
100
AcDbSymbolTableRecord
100
AcDbLinetypeTableRecord
  2
CENTER2
 70
    0
  3
Center (.5x) ___ _ ___ _ ___ _ ___ _ ___ _ ___
 72
   65
 73
    4
 40
28.575
 49
19.05
 74
    0
 49
-3.175
 74
    0
 49
3.175
 74
    0
 49
-3.175
 74
    0
  0
LTYPE
  5
49
330
5
100
AcDbSymbolTableRecord
100
AcDbLinetypeTableRecord
  2
CENTERX2
 70
    0
  3
Center (2x) ________  __  ________  __  _____
 72
   65
 73
    4
 40
101.6
 49
63.5
 74
    0
 49
-12.7
 74
    0
 49
12.7
 74
    0
 49
-12.7
 74
    0
  0
ENDTAB
  0
TABLE
  2
LAYER
  5
2
330
0
100
AcDbSymbolTable
 70
    1
  0
LAYER
  5
10
330
2
100
AcDbSymbolTableRecord
100
AcDbLayerTableRecord
  2
0
 70
    0
 62
    7
  6
CONTINUOUS
370
   25
390
F
  0
ENDTAB
  0
TABLE
  2
STYLE
  5
3
330
0
100
AcDbSymbolTable
 70
    3
  0
STYLE
  5
4A
330
2
100
AcDbSymbolTableRecord
100
AcDbTextStyleTableRecord
  2
Standard
 70
    0
 40
0
 41
1
 50
0
 71
    0
 42
1
  3
txt
  4

  0
ENDTAB
  0
TABLE
  2
VIEW
  5
6
330
0
100
AcDbSymbolTable
 70
    0
  0
ENDTAB
  0
TABLE
  2
UCS
  5
7
330
0
100
AcDbSymbolTable
 70
    0
  0
ENDTAB
  0
TABLE
  2
APPID
  5
9
330
0
100
AcDbSymbolTable
 70
    1
  0
APPID
  5
12
330
9
100
AcDbSymbolTableRecord
100
AcDbRegAppTableRecord
  2
ACAD
 70
    0
  0
APPID
  5
4B
330
9
100
AcDbSymbolTableRecord
100
AcDbRegAppTableRecord
  2
LibreCad
 70
    0
  0
ENDTAB
  0
TABLE
  2
DIMSTYLE
  5
A
330
0
100
AcDbSymbolTable
 70
    1
100
AcDbDimStyleTable
 71
    1
  0
DIMSTYLE
105
4C
330
A
100
AcDbSymbolTableRecord
100
AcDbDimStyleTableRecord
  2
Standard
 70
    0
 40
1
 41
0.1
 42
0.025
 43
0.38
 44
0.05
 45
0
 46
0
 47
0
 48
0
 49
0.0394
140
0.1
141
0.09
142
0
143
25.4
144
1
145
0
146
1
147
0.025
148
0
 71
    0
 72
    0
 73
    0
 74
    1
 75
    0
 76
    0
 77
    0
 78
    1
 79
    0
170
    0
171
    2
172
    0
173
    0
174
    0
175
    0
176
    0
177
    0
178
    0
179
    2
271
    4
272
    4
273
    2
274
    2
275
    0
276
    0
277
    2
278
    0
279
    0
280
    0
281
    0
282
    0
283
    1
284
    0
285
    0
286
    0
288
    0
289
    3
340
4A
  0
ENDTAB
  0
TABLE
  2
BLOCK_RECORD
  5
1
330
0
100
AcDbSymbolTable
 70
    2
  0
BLOCK_RECORD
  5
1F
330
1
100
AcDbSymbolTableRecord
100
AcDbBlockTableRecord
  2
*Model_Space
 70
    0
280
    1
281
    0
  0
BLOCK_RECORD
  5
1E
330
1
100
AcDbSymbolTableRecord
100
AcDbBlockTableRecord
  2
*Paper_Space
 70
    0
280
    1
281
    0
  0
ENDTAB
  0
ENDSEC
  0
SECTION
  2
BLOCKS
  0
BLOCK
  5
20
330
1F
100
AcDbEntity
  8
0
100
AcDbBlockBegin
  2
*Model_Space
 70
    0
 10
0
 20
0
 30
0
  3
*Model_Space
  1

  0
ENDBLK
  5
21
330
1F
100
AcDbEntity
  8
0
100
AcDbBlockEnd
  0
BLOCK
  5
1C
330
1B
100
AcDbEntity
  8
0
100
AcDbBlockBegin
  2
*Paper_Space
 70
    0
 10
0
 20
0
 30
0
  3
*Paper_Space
  1

  0
ENDBLK
  5
1D
330
1F
100
AcDbEntity
  8
0
100
AcDbBlockEnd
  0
ENDSEC
  0
SECTION
  2
ENTITIES
  0
HATCH
  5
4D
100
AcDbEntity
  8
0
  6
ByLayer
 62
  256
370
   -1
100
AcDbHatch
 10
0
 20
0
 30
0
210
0
220
0
230
1
  2
SOLID
 70
    1
 71
    0
 91
    1
 92
    0
 93
    8
 72
    1
 10
82
 20
-14
 11
114
 21
-14
 72
    1
 10
114
 20
-14
 11
114
 21
-94
 72
    1
 10
114
 20
-94
 11
82
 21
-94
 72
    1
 10
82
 20
-94
 11
82
 21
-14
 72
    1
 10
84
 20
-16
 11
112
 21
-16
 72
    1
 10
112
 20
-16
 11
112
 21
-92
 72
    1
 10
112
 20
-92
 11
84
 21
-92
 72
    1
 10
84
 20
-92
 11
84
 21
-16
 97
    0
 75
    0
 76
    1
 98
    0
  0
HATCH
  5
4E
100
AcDbEntity
  8
0
  6
ByLayer
 62
  256
370
   -1
100
AcDbHatch
 10
0
 20
0
 30
0
210
0
220
0
230
1
  2
SOLID
 70
    1
 71
    0
 91
    1
 92
    0
 93
   12
 72
    1
 10
91
 20
-20
 11
93
 21
-20
 72
    1
 10
93
 20
-20
 11
93
 21
-58
 72
    1
 10
93
 20
-58
 11
91
 21
-58
 72
    1
 10
91
 20
-58
 11
91
 21
-20
 72
    1
 10
103
 20
-20
 11
105
 21
-20
 72
    1
 10
105
 20
-20
 11
105
 21
-58
 72
    1
 10
105
 20
-58
 11
103
 21
-58
 72
    1
 10
103
 20
-58
 11
103
 21
-20
 72
    1
 10
97
 20
-26
 11
99
 21
-26
 72
    1
 10
99
 20
-26
 11
99
 21
-52
 72
    1
 10
99
 20
-52
 11
97
 21
-52
 72
    1
 10
97
 20
-52
 11
97
 21
-26
 97
    0
 75
    0
 76
    1
 98
    0
  0
HATCH
  5
4F
100
AcDbEntity
  8
0
  6
ByLayer
 62
  256
370
   -1
100
AcDbHatch
 10
0
 20
0
 30
0
210
0
220
0
230
1
  2
SOLID
 70
    1
 71
    0
 91
    1
 92
    0
 93
   12
 72
    1
 10
51
 20
-50
 11
53
 21
-50
 72
    1
 10
53
 20
-50
 11
53
 21
-88
 72
    1
 10
53
 20
-88
 11
51
 21
-88
 72
    1
 10
51
 20
-88
 11
51
 21
-50
 72
    1
 10
63
 20
-50
 11
65
 21
-50
 72
    1
 10
65
 20
-50
 11
65
 21
-88
 72
    1
 10
65
 20
-88
 11
63
 21
-88
 72
    1
 10
63
 20
-88
 11
63
 21
-50
 72
    1
 10
57
 20
-56
 11
59
 21
-56
 72
    1
 10
59
 20
-56
 11
59
 21
-82
 72
    1
 10
59
 20
-82
 11
57
 21
-82
 72
    1
 10
57
 20
-82
 11
57
 21
-56
 97
    0
 75
    0
 76
    1
 98
    0
  0
HATCH
  5
50
100
AcDbEntity
  8
0
  6
ByLayer
 62
  256
370
   -1
100
AcDbHatch
 10
0
 20
0
 30
0
210
0
220
0
230
1
  2
SOLID
 70
    1
 71
    0
 91
    1
 92
    0
 93
   12
 72
    1
 10
10
 20
-20
 11
12
 21
-20
 72
    1
 10
12
 20
-20
 11
12
 21
-58
 72
    1
 10
12
 20
-58
 11
10
 21
-58
 72
    1
 10
10
 20
-58
 11
10
 21
-20
 72
    1
 10
22
 20
-20
 11
24
 21
-20
 72
    1
 10
24
 20
-20
 11
24
 21
-58
 72
    1
 10
24
 20
-58
 11
22
 21
-58
 72
    1
 10
22
 20
-58
 11
22
 21
-20
 72
    1
 10
16
 20
-26
 11
18
 21
-26
 72
    1
 10
18
 20
-26
 11
18
 21
-52
 72
    1
 10
18
 20
-52
 11
16
 21
-52
 72
    1
 10
16
 20
-52
 11
16
 21
-26
 97
    0
 75
    0
 76
    1
 98
    0
  0
HATCH
  5
51
100
AcDbEntity
  8
0
  6
ByLayer
 62
  256
370
   -1
100
AcDbHatch
 10
0
 20
0
 30
0
210
0
220
0
230
1
  2
SOLID
 70
    1
 71
    0
 91
    1
 92
    0
 93
    8
 72
    1
 10
53
 20
-46
 11
63
 21
-46
 72
    1
 10
63
 20
-46
 11
63
 21
-26
 72
    1
 10
63
 20
-26
 11
53
 21
-26
 72
    1
 10
53
 20
-26
 11
53
 21
-46
 72
    1
 10
55
 20
-44
 11
61
 21
-44
 72
    1
 10
61
 20
-44
 11
61
 21
-28
 72
    1
 10
61
 20
-28
 11
55
 21
-28
 72
    1
 10
55
 20
-28
 11
55
 21
-44
 97
    0
 75
    0
 76
    1
 98
    0
  0
HATCH
  5
52
100
AcDbEntity
  8
0
  6
ByLayer
 62
  256
370
   -1
100
AcDbHatch
 10
0
 20
0
 30
0
210
0
220
0
230
1
  2
SOLID
 70
    1
 71
    0
 91
    1
 92
    0
 93
    8
 72
    1
 10
93
 20
-62
 11
103
 21
-62
 72
    1
 10
103
 20
-62
 11
103
 21
-82
 72
    1
 10
103
 20
-82
 11
93
 21
-82
 72
    1
 10
93
 20
-82
 11
93
 21
-62
 72
    1
 10
95
 20
-64
 11
101
 21
-64
 72
    1
 10
101
 20
-64
 11
101
 21
-80
 72
    1
 10
101
 20
-80
 11
95
 21
-80
 72
    1
 10
95
 20
-80
 11
95
 21
-64
 97
    0
 75
    0
 76
    1
 98
    0
  0
HATCH
  5
53
100
AcDbEntity
  8
0
  6
ByLayer
 62
  256
370
   -1
100
AcDbHatch
 10
0
 20
0
 30
0
210
0
220
0
230
1
  2
SOLID
 70
    1
 71
    0
 91
    1
 92
    0
 93
    8
 72
    1
 10
13
 20
-62
 11
23
 21
-62
 72
    1
 10
23
 20
-62
 11
23
 21
-82
 72
    1
 10
23
 20
-82
 11
13
 21
-82
 72
    1
 10
13
 20
-82
 11
13
 21
-62
 72
    1
 10
15
 20
-64
 11
21
 21
-64
 72
    1
 10
21
 20
-64
 11
21
 21
-80
 72
    1
 10
21
 20
-80
 11
15
 21
-80
 72
    1
 10
15
 20
-80
 11
15
 21
-64
 97
    0
 75
    0
 76
    1
 98
    0
  0
HATCH
  5
54
100
AcDbEntity
  8
0
  6
ByLayer
 62
  256
370
   -1
100
AcDbHatch
 10
0
 20
0
 30
0
210
0
220
0
230
1
  2
SOLID
 70
    1
 71
    0
 91
    1
 92
    0
 93
    8
 72
    1
 10
42
 20
-94
 11
74
 21
-94
 72
    1
 10
74
 20
-94
 11
74
 21
-14
 72
    1
 10
74
 20
-14
 11
42
 21
-14
 72
    1
 10
42
 20
-14
 11
42
 21
-94
 72
    1
 10
44
 20
-92
 11
72
 21
-92
 72
    1
 10
72
 20
-92
 11
72
 21
-16
 72
    1
 10
72
 20
-16
 11
44
 21
-16
 72
    1
 10
44
 20
-16
 11
44
 21
-92
 97
    0
 75
    0
 76
    1
 98
    0
  0
HATCH
  5
55
100
AcDbEntity
  8
0
  6
ByLayer
 62
  256
370
   -1
100
AcDbHatch
 10
0
 20
0
 30
0
210
0
220
0
230
1
  2
SOLID
 70
    1
 71
    0
 91
    1
 92
    0
 93
    8
 72
    1
 10
2
 20
-14
 11
34
 21
-14
 72
    1
 10
34
 20
-14
 11
34
 21
-94
 72
    1
 10
34
 20
-94
 11
2
 21
-94
 72
    1
 10
2
 20
-94
 11
2
 21
-14
 72
    1
 10
4
 20
-16
 11
32
 21
-16
 72
    1
 10
32
 20
-16
 11
32
 21
-92
 72
    1
 10
32
 20
-92
 11
4
 21
-92
 72
    1
 10
4
 20
-92
 11
4
 21
-16
 97
    0
 75
    0
 76
    1
 98
    0
  0
HATCH
  5
56
100
AcDbEntity
  8
0
  6
ByLayer
 62
  256
370
   -1
100
AcDbHatch
 10
0
 20
0
 30
0
210
0
220
0
230
1
  2
ansi31
 70
    0
 71
    0
 91
    1
 92
    0
 93
   48
 72
    1
 10
32
 20
-28
 11
4
 21
-28
 72
    1
 10
4
 20
-28
 11
4
 21
-26
 72
    1
 10
4
 20
-26
 11
32
 21
-26
 72
    1
 10
32
 20
-26
 11
32
 21
-28
 72
    1
 10
4
 20
-32
 11
32
 21
-32
 72
    1
 10
32
 20
-32
 11
32
 21
-34
 72
    1
 10
32
 20
-34
 11
4
 21
-34
 72
    1
 10
4
 20
-34
 11
4
 21
-32
 72
    1
 10
4
 20
-38
 11
32
 21
-38
 72
    1
 10
32
 20
-38
 11
32
 21
-40
 72
    1
 10
32
 20
-40
 11
4
 21
-40
 72
    1
 10
4
 20
-40
 11
4
 21
-38
 72
    1
 10
4
 20
-44
 11
32
 21
-44
 72
    1
 10
32
 20
-44
 11
32
 21
-46
 72
    1
 10
32
 20
-46
 11
4
 21
-46
 72
    1
 10
4
 20
-46
 11
4
 21
-44
 72
    1
 10
4
 20
-50
 11
32
 21
-50
 72
    1
 10
32
 20
-50
 11
32
 21
-52
 72
    1
 10
32
 20
-52
 11
4
 21
-52
 72
    1
 10
4
 20
-52
 11
4
 21
-50
 72
    1
 10
4
 20
-56
 11
32
 21
-56
 72
    1
 10
32
 20
-56
 11
32
 21
-58
 72
    1
 10
32
 20
-58
 11
4
 21
-58
 72
    1
 10
4
 20
-58
 11
4
 21
-56
 72
    1
 10
4
 20
-62
 11
32
 21
-62
 72
    1
 10
32
 20
-62
 11
32
 21
-64
 72
    1
 10
32
 20
-64
 11
4
 21
-64
 72
    1
 10
4
 20
-64
 11
4
 21
-62
 72
    1
 10
4
 20
-68
 11
32
 21
-68
 72
    1
 10
32
 20
-68
 11
32
 21
-70
 72
    1
 10
32
 20
-70
 11
4
 21
-70
 72
    1
 10
4
 20
-70
 11
4
 21
-68
 72
    1
 10
4
 20
-74
 11
32
 21
-74
 72
    1
 10
32
 20
-74
 11
32
 21
-76
 72
    1
 10
32
 20
-76
 11
4
 21
-76
 72
    1
 10
4
 20
-76
 11
4
 21
-74
 72
    1
 10
4
 20
-80
 11
32
 21
-80
 72
    1
 10
32
 20
-80
 11
32
 21
-82
 72
    1
 10
32
 20
-82
 11
4
 21
-82
 72
    1
 10
4
 20
-82
 11
4
 21
-80
 72
    1
 10
4
 20
-86
 11
32
 21
-86
 72
    1
 10
32
 20
-86
 11
32
 21
-88
 72
    1
 10
32
 20
-88
 11
4
 21
-88
 72
    1
 10
4
 20
-88
 11
4
 21
-86
 72
    1
 10
4
 20
-20
 11
32
 21
-20
 72
    1
 10
32
 20
-20
 11
32
 21
-22
 72
    1
 10
32
 20
-22
 11
4
 21
-22
 72
    1
 10
4
 20
-22
 11
4
 21
-20
 97
    0
 75
    0
 76
    1
 52
0
 41
0.2
 77
    0
 78
    0
 98
    0
  0
HATCH
  5
57
100
AcDbEntity
  8
0
  6
ByLayer
 62
  256
370
   -1
100
AcDbHatch
 10
0
 20
0
 30
0
210
0
220
0
230
1
  2
ansi31
 70
    0
 71
    0
 91
    1
 92
    0
 93
   96
 72
    1
 10
112
 20
-28
 11
84
 21
-28
 72
    1
 10
84
 20
-28
 11
84
 21
-26
 72
    1
 10
84
 20
-26
 11
112
 21
-26
 72
    1
 10
112
 20
-26
 11
112
 21
-28
 72
    1
 10
84
 20
-32
 11
112
 21
-32
 72
    1
 10
112
 20
-32
 11
112
 21
-34
 72
    1
 10
112
 20
-34
 11
84
 21
-34
 72
    1
 10
84
 20
-34
 11
84
 21
-32
 72
    1
 10
84
 20
-38
 11
112
 21
-38
 72
    1
 10
112
 20
-38
 11
112
 21
-40
 72
    1
 10
112
 20
-40
 11
84
 21
-40
 72
    1
 10
84
 20
-40
 11
84
 21
-38
 72
    1
 10
84
 20
-44
 11
112
 21
-44
 72
    1
 10
112
 20
-44
 11
112
 21
-46
 72
    1
 10
112
 20
-46
 11
84
 21
-46
 72
    1
 10
84
 20
-46
 11
84
 21
-44
 72
    1
 10
84
 20
-50
 11
112
 21
-50
 72
    1
 10
112
 20
-50
 11
112
 21
-52
 72
    1
 10
112
 20
-52
 11
84
 21
-52
 72
    1
 10
84
 20
-52
 11
84
 21
-50
 72
    1
 10
84
 20
-56
 11
112
 21
-56
 72
    1
 10
112
 20
-56
 11
112
 21
-58
 72
    1
 10
112
 20
-58
 11
84
 21
-58
 72
    1
 10
84
 20
-58
 11
84
 21
-56
 72
    1
 10
84
 20
-62
 11
112
 21
-62
 72
    1
 10
112
 20
-62
 11
112
 21
-64
 72
    1
 10
112
 20
-64
 11
84
 21
-64
 72
    1
 10
84
 20
-64
 11
84
 21
-62
 72
    1
 10
84
 20
-68
 11
112
 21
-68
 72
    1
 10
112
 20
-68
 11
112
 21
-70
 72
    1
 10
112
 20
-70
 11
84
 21
-70
 72
    1
 10
84
 20
-70
 11
84
 21
-68
 72
    1
 10
84
 20
-74
 11
112
 21
-74
 72
    1
 10
112
 20
-74
 11
112
 21
-76
 72
    1
 10
112
 20
-76
 11
84
 21
-76
 72
    1
 10
84
 20
-76
 11
84
 21
-74
 72
    1
 10
84
 20
-80
 11
112
 21
-80
 72
    1
 10
112
 20
-80
 11
112
 21
-82
 72
    1
 10
112
 20
-82
 11
84
 21
-82
 72
    1
 10
84
 20
-82
 11
84
 21
-80
 72
    1
 10
84
 20
-86
 11
112
 21
-86
 72
    1
 10
112
 20
-86
 11
112
 21
-88
 72
    1
 10
112
 20
-88
 11
84
 21
-88
 72
    1
 10
84
 20
-88
 11
84
 21
-86
 72
    1
 10
44
 20
-88
 11
72
 21
-88
 72
    1
 10
72
 20
-88
 11
72
 21
-86
 72
    1
 10
72
 20
-86
 11
44
 21
-86
 72
    1
 10
44
 20
-86
 11
44
 21
-88
 72
    1
 10
44
 20
-82
 11
72
 21
-82
 72
    1
 10
72
 20
-82
 11
72
 21
-80
 72
    1
 10
72
 20
-80
 11
44
 21
-80
 72
    1
 10
44
 20
-80
 11
44
 21
-82
 72
    1
 10
44
 20
-76
 11
72
 21
-76
 72
    1
 10
72
 20
-76
 11
72
 21
-74
 72
    1
 10
72
 20
-74
 11
44
 21
-74
 72
    1
 10
44
 20
-74
 11
44
 21
-76
 72
    1
 10
44
 20
-70
 11
72
 21
-70
 72
    1
 10
72
 20
-70
 11
72
 21
-68
 72
    1
 10
72
 20
-68
 11
44
 21
-68
 72
    1
 10
44
 20
-68
 11
44
 21
-70
 72
    1
 10
44
 20
-64
 11
72
 21
-64
 72
    1
 10
72
 20
-64
 11
72
 21
-62
 72
    1
 10
72
 20
-62
 11
44
 21
-62
 72
    1
 10
44
 20
-62
 11
44
 21
-64
 72
    1
 10
44
 20
-58
 11
72
 21
-58
 72
    1
 10
72
 20
-58
 11
72
 21
-56
 72
    1
 10
72
 20
-56
 11
44
 21
-56
 72
    1
 10
44
 20
-56
 11
44
 21
-58
 72
    1
 10
44
 20
-52
 11
72
 21
-52
 72
    1
 10
72
 20
-52
 11
72
 21
-50
 72
    1
 10
72
 20
-50
 11
44
 21
-50
 72
    1
 10
44
 20
-50
 11
44
 21
-52
 72
    1
 10
44
 20
-46
 11
72
 21
-46
 72
    1
 10
72
 20
-46
 11
72
 21
-44
 72
    1
 10
72
 20
-44
 11
44
 21
-44
 72
    1
 10
44
 20
-44
 11
44
 21
-46
 72
    1
 10
44
 20
-40
 11
72
 21
-40
 72
    1
 10
72
 20
-40
 11
72
 21
-38
 72
    1
 10
72
 20
-38
 11
44
 21
-38
 72
    1
 10
44
 20
-38
 11
44
 21
-40
 72
    1
 10
44
 20
-34
 11
72
 21
-34
 72
    1
 10
72
 20
-34
 11
72
 21
-32
 72
    1
 10
72
 20
-32
 11
44
 21
-32
 72
    1
 10
44
 20
-32
 11
44
 21
-34
 72
    1
 10
44
 20
-28
 11
72
 21
-28
 72
    1
 10
72
 20
-28
 11
72
 21
-26
 72
    1
 10
72
 20
-26
 11
44
 21
-26
 72
    1
 10
44
 20
-26
 11
44
 21
-28
 72
    1
 10
44
 20
-22
 11
72
 21
-22
 72
    1
 10
72
 20
-22
 11
72
 21
-20
 72
    1
 10
72
 20
-20
 11
44
 21
-20
 72
    1
 10
44
 20
-20
 11
44
 21
-22
 72
    1
 10
84
 20
-20
 11
112
 21
-20
 72
    1
 10
112
 20
-20
 11
112
 21
-22
 72
    1
 10
112
 20
-22
 11
84
 21
-22
 72
    1
 10
84
 20
-22
 11
84
 21
-20
 97
    0
 75
    0
 76
    1
 52
0
 41
0.2
 77
    0
 78
    0
 98
    0
  0
LWPOLYLINE
  5
58
100
AcDbEntity
  8
0
  6
ByLayer
 62
  256
370
   -1
100
AcDbPolyline
 90
    4
 70
    1
 43
0
 10
0
 20
-12
 10
36
 20
-12
 10
36
 20
-96
 10
0
 20
-96
  0
LWPOLYLINE
  5
59
100
AcDbEntity
  8
0
  6
ByLayer
 62
  256
370
   -1
100
AcDbPolyline
 90
    4
 70
    1
 43
0
 10
80
 20
-12
 10
116
 20
-12
 10
116
 20
-96
 10
80
 20
-96
  0
LWPOLYLINE
  5
5A
100
AcDbEntity
  8
0
  6
ByLayer
 62
  256
370
   -1
100
AcDbPolyline
 90
    4
 70
    1
 43
0
 10
2
 20
-14
 10
34
 20
-14
 10
34
 20
-94
 10
2
 20
-94
  0
LWPOLYLINE
  5
5B
100
AcDbEntity
  8
0
  6
ByLayer
 62
  256
370
   -1
100
AcDbPolyline
 90
    4
 70
    1
 43
0
 10
4
 20
-16
 10
32
 20
-16
 10
32
 20
-92
 10
4
 20
-92
  0
LWPOLYLINE
  5
5C
100
AcDbEntity
  8
0
  6
ByLayer
 62
  256
370
   -1
100
AcDbPolyline
 90
    4
 70
    1
 43
0
 10
4
 20
-20
 10
32
 20
-20
 10
32
 20
-22
 10
4
 20
-22
  0
LWPOLYLINE
  5
5D
100
AcDbEntity
  8
0
  6
ByLayer
 62
  256
370
   -1
100
AcDbPolyline
 90
    4
 70
    1
 43
0
 10
4
 20
-26
 10
32
 20
-26
 10
32
 20
-28
 10
4
 20
-28
  0
LWPOLYLINE
  5
5E
100
AcDbEntity
  8
0
  6
ByLayer
 62
  256
370
   -1
100
AcDbPolyline
 90
    4
 70
    1
 43
0
 10
4
 20
-32
 10
32
 20
-32
 10
32
 20
-34
 10
4
 20
-34
  0
LWPOLYLINE
  5
5F
100
AcDbEntity
  8
0
  6
ByLayer
 62
  256
370
   -1
100
AcDbPolyline
 90
    4
 70
    1
 43
0
 10
4
 20
-38
 10
32
 20
-38
 10
32
 20
-40
 10
4
 20
-40
  0
LWPOLYLINE
  5
60
100
AcDbEntity
  8
0
  6
ByLayer
 62
  256
370
   -1
100
AcDbPolyline
 90
    4
 70
    1
 43
0
 10
4
 20
-44
 10
32
 20
-44
 10
32
 20
-46
 10
4
 20
-46
  0
LWPOLYLINE
  5
61
100
AcDbEntity
  8
0
  6
ByLayer
 62
  256
370
   -1
100
AcDbPolyline
 90
    4
 70
    1
 43
0
 10
4
 20
-50
 10
32
 20
-50
 10
32
 20
-52
 10
4
 20
-52
  0
LWPOLYLINE
  5
62
100
AcDbEntity
  8
0
  6
ByLayer
 62
  256
370
   -1
100
AcDbPolyline
 90
    4
 70
    1
 43
0
 10
4
 20
-56
 10
32
 20
-56
 10
32
 20
-58
 10
4
 20
-58
  0
LWPOLYLINE
  5
63
100
AcDbEntity
  8
0
  6
ByLayer
 62
  256
370
   -1
100
AcDbPolyline
 90
    4
 70
    1
 43
0
 10
4
 20
-62
 10
32
 20
-62
 10
32
 20
-64
 10
4
 20
-64
  0
LWPOLYLINE
  5
64
100
AcDbEntity
  8
0
  6
ByLayer
 62
  256
370
   -1
100
AcDbPolyline
 90
    4
 70
    1
 43
0
 10
4
 20
-68
 10
32
 20
-68
 10
32
 20
-70
 10
4
 20
-70
  0
LWPOLYLINE
  5
65
100
AcDbEntity
  8
0
  6
ByLayer
 62
  256
370
   -1
100
AcDbPolyline
 90
    4
 70
    1
 43
0
 10
4
 20
-74
 10
32
 20
-74
 10
32
 20
-76
 10
4
 20
-76
  0
LWPOLYLINE
  5
66
100
AcDbEntity
  8
0
  6
ByLayer
 62
  256
370
   -1
100
AcDbPolyline
 90
    4
 70
    1
 43
0
 10
4
 20
-80
 10
32
 20
-80
 10
32
 20
-82
 10
4
 20
-82
  0
LWPOLYLINE
  5
67
100
AcDbEntity
  8
0
  6
ByLayer
 62
  256
370
   -1
100
AcDbPolyline
 90
    4
 70
    1
 43
0
 10
4
 20
-86
 10
32
 20
-86
 10
32
 20
-88
 10
4
 20
-88
  0
LWPOLYLINE
  5
68
100
AcDbEntity
  8
0
  6
ByLayer
 62
  256
370
   -1
100
AcDbPolyline
 90
    4
 70
    1
 43
0
 10
82
 20
-14
 10
114
 20
-14
 10
114
 20
-94
 10
82
 20
-94
  0
LWPOLYLINE
  5
69
100
AcDbEntity
  8
0
  6
ByLayer
 62
  256
370
   -1
100
AcDbPolyline
 90
    4
 70
    1
 43
0
 10
84
 20
-16
 10
112
 20
-16
 10
112
 20
-92
 10
84
 20
-92
  0
LWPOLYLINE
  5
6A
100
AcDbEntity
  8
0
  6
ByLayer
 62
  256
370
   -1
100
AcDbPolyline
 90
    4
 70
    1
 43
0
 10
84
 20
-20
 10
112
 20
-20
 10
112
 20
-22
 10
84
 20
-22
  0
LWPOLYLINE
  5
6B
100
AcDbEntity
  8
0
  6
ByLayer
 62
  256
370
   -1
100
AcDbPolyline
 90
    4
 70
    1
 43
0
 10
84
 20
-26
 10
112
 20
-26
 10
112
 20
-28
 10
84
 20
-28
  0
LWPOLYLINE
  5
6C
100
AcDbEntity
  8
0
  6
ByLayer
 62
  256
370
   -1
100
AcDbPolyline
 90
    4
 70
    1
 43
0
 10
84
 20
-32
 10
112
 20
-32
 10
112
 20
-34
 10
84
 20
-34
  0
LWPOLYLINE
  5
6D
100
AcDbEntity
  8
0
  6
ByLayer
 62
  256
370
   -1
100
AcDbPolyline
 90
    4
 70
    1
 43
0
 10
84
 20
-38
 10
112
 20
-38
 10
112
 20
-40
 10
84
 20
-40
  0
LWPOLYLINE
  5
6E
100
AcDbEntity
  8
0
  6
ByLayer
 62
  256
370
   -1
100
AcDbPolyline
 90
    4
 70
    1
 43
0
 10
84
 20
-44
 10
112
 20
-44
 10
112
 20
-46
 10
84
 20
-46
  0
LWPOLYLINE
  5
6F
100
AcDbEntity
  8
0
  6
ByLayer
 62
  256
370
   -1
100
AcDbPolyline
 90
    4
 70
    1
 43
0
 10
84
 20
-50
 10
112
 20
-50
 10
112
 20
-52
 10
84
 20
-52
  0
LWPOLYLINE
  5
70
100
AcDbEntity
  8
0
  6
ByLayer
 62
  256
370
   -1
100
AcDbPolyline
 90
    4
 70
    1
 43
0
 10
84
 20
-56
 10
112
 20
-56
 10
112
 20
-58
 10
84
 20
-58
  0
LWPOLYLINE
  5
71
100
AcDbEntity
  8
0
  6
ByLayer
 62
  256
370
   -1
100
AcDbPolyline
 90
    4
 70
    1
 43
0
 10
84
 20
-62
 10
112
 20
-62
 10
112
 20
-64
 10
84
 20
-64
  0
LWPOLYLINE
  5
72
100
AcDbEntity
  8
0
  6
ByLayer
 62
  256
370
   -1
100
AcDbPolyline
 90
    4
 70
    1
 43
0
 10
84
 20
-68
 10
112
 20
-68
 10
112
 20
-70
 10
84
 20
-70
  0
LWPOLYLINE
  5
73
100
AcDbEntity
  8
0
  6
ByLayer
 62
  256
370
   -1
100
AcDbPolyline
 90
    4
 70
    1
 43
0
 10
84
 20
-74
 10
112
 20
-74
 10
112
 20
-76
 10
84
 20
-76
  0
LWPOLYLINE
  5
74
100
AcDbEntity
  8
0
  6
ByLayer
 62
  256
370
   -1
100
AcDbPolyline
 90
    4
 70
    1
 43
0
 10
84
 20
-80
 10
112
 20
-80
 10
112
 20
-82
 10
84
 20
-82
  0
LWPOLYLINE
  5
75
100
AcDbEntity
  8
0
  6
ByLayer
 62
  256
370
   -1
100
AcDbPolyline
 90
    4
 70
    1
 43
0
 10
84
 20
-86
 10
112
 20
-86
 10
112
 20
-88
 10
84
 20
-88
  0
LWPOLYLINE
  5
76
100
AcDbEntity
  8
0
  6
ByLayer
 62
  256
370
   -1
100
AcDbPolyline
 90
    4
 70
    1
 43
0
 10
42
 20
-94
 10
74
 20
-94
 10
74
 20
-14
 10
42
 20
-14
  0
LWPOLYLINE
  5
77
100
AcDbEntity
  8
0
  6
ByLayer
 62
  256
370
   -1
100
AcDbPolyline
 90
    4
 70
    1
 43
0
 10
44
 20
-92
 10
72
 20
-92
 10
72
 20
-16
 10
44
 20
-16
  0
LWPOLYLINE
  5
78
100
AcDbEntity
  8
0
  6
ByLayer
 62
  256
370
   -1
100
AcDbPolyline
 90
    4
 70
    1
 43
0
 10
44
 20
-88
 10
72
 20
-88
 10
72
 20
-86
 10
44
 20
-86
  0
LWPOLYLINE
  5
79
100
AcDbEntity
  8
0
  6
ByLayer
 62
  256
370
   -1
100
AcDbPolyline
 90
    4
 70
    1
 43
0
 10
44
 20
-82
 10
72
 20
-82
 10
72
 20
-80
 10
44
 20
-80
  0
LWPOLYLINE
  5
7A
100
AcDbEntity
  8
0
  6
ByLayer
 62
  256
370
   -1
100
AcDbPolyline
 90
    4
 70
    1
 43
0
 10
44
 20
-76
 10
72
 20
-76
 10
72
 20
-74
 10
44
 20
-74
  0
LWPOLYLINE
  5
7B
100
AcDbEntity
  8
0
  6
ByLayer
 62
  256
370
   -1
100
AcDbPolyline
 90
    4
 70
    1
 43
0
 10
44
 20
-70
 10
72
 20
-70
 10
72
 20
-68
 10
44
 20
-68
  0
LWPOLYLINE
  5
7C
100
AcDbEntity
  8
0
  6
ByLayer
 62
  256
370
   -1
100
AcDbPolyline
 90
    4
 70
    1
 43
0
 10
44
 20
-64
 10
72
 20
-64
 10
72
 20
-62
 10
44
 20
-62
  0
LWPOLYLINE
  5
7D
100
AcDbEntity
  8
0
  6
ByLayer
 62
  256
370
   -1
100
AcDbPolyline
 90
    4
 70
    1
 43
0
 10
44
 20
-58
 10
72
 20
-58
 10
72
 20
-56
 10
44
 20
-56
  0
LWPOLYLINE
  5
7E
100
AcDbEntity
  8
0
  6
ByLayer
 62
  256
370
   -1
100
AcDbPolyline
 90
    4
 70
    1
 43
0
 10
44
 20
-52
 10
72
 20
-52
 10
72
 20
-50
 10
44
 20
-50
  0
LWPOLYLINE
  5
7F
100
AcDbEntity
  8
0
  6
ByLayer
 62
  256
370
   -1
100
AcDbPolyline
 90
    4
 70
    1
 43
0
 10
44
 20
-46
 10
72
 20
-46
 10
72
 20
-44
 10
44
 20
-44
  0
LWPOLYLINE
  5
80
100
AcDbEntity
  8
0
  6
ByLayer
 62
  256
370
   -1
100
AcDbPolyline
 90
    4
 70
    1
 43
0
 10
44
 20
-40
 10
72
 20
-40
 10
72
 20
-38
 10
44
 20
-38
  0
LWPOLYLINE
  5
81
100
AcDbEntity
  8
0
  6
ByLayer
 62
  256
370
   -1
100
AcDbPolyline
 90
    4
 70
    1
 43
0
 10
44
 20
-34
 10
72
 20
-34
 10
72
 20
-32
 10
44
 20
-32
  0
LWPOLYLINE
  5
82
100
AcDbEntity
  8
0
  6
ByLayer
 62
  256
370
   -1
100
AcDbPolyline
 90
    4
 70
    1
 43
0
 10
44
 20
-28
 10
72
 20
-28
 10
72
 20
-26
 10
44
 20
-26
  0
LWPOLYLINE
  5
83
100
AcDbEntity
  8
0
  6
ByLayer
 62
  256
370
   -1
100
AcDbPolyline
 90
    4
 70
    1
 43
0
 10
44
 20
-22
 10
72
 20
-22
 10
72
 20
-20
 10
44
 20
-20
  0
LWPOLYLINE
  5
84
100
AcDbEntity
  8
0
  6
ByLayer
 62
  256
370
   -1
100
AcDbPolyline
 90
    4
 70
    1
 43
0
 10
40
 20
-12
 10
76
 20
-12
 10
76
 20
-96
 10
40
 20
-96
  0
LWPOLYLINE
  5
85
100
AcDbEntity
  8
0
  6
ByLayer
 62
  256
370
   -1
100
AcDbPolyline
 90
    4
 70
    1
 43
0
 10
13
 20
-62
 10
23
 20
-62
 10
23
 20
-82
 10
13
 20
-82
  0
LWPOLYLINE
  5
86
100
AcDbEntity
  8
0
  6
ByLayer
 62
  256
370
   -1
100
AcDbPolyline
 90
    4
 70
    1
 43
0
 10
15
 20
-64
 10
21
 20
-64
 10
21
 20
-80
 10
15
 20
-80
  0
LWPOLYLINE
  5
87
100
AcDbEntity
  8
0
  6
ByLayer
 62
  256
370
   -1
100
AcDbPolyline
 90
    4
 70
    1
 43
0
 10
93
 20
-62
 10
103
 20
-62
 10
103
 20
-82
 10
93
 20
-82
  0
LWPOLYLINE
  5
88
100
AcDbEntity
  8
0
  6
ByLayer
 62
  256
370
   -1
100
AcDbPolyline
 90
    4
 70
    1
 43
0
 10
95
 20
-64
 10
101
 20
-64
 10
101
 20
-80
 10
95
 20
-80
  0
LWPOLYLINE
  5
89
100
AcDbEntity
  8
0
  6
ByLayer
 62
  256
370
   -1
100
AcDbPolyline
 90
    4
 70
    1
 43
0
 10
53
 20
-46
 10
63
 20
-46
 10
63
 20
-26
 10
53
 20
-26
  0
LWPOLYLINE
  5
8A
100
AcDbEntity
  8
0
  6
ByLayer
 62
  256
370
   -1
100
AcDbPolyline
 90
    4
 70
    1
 43
0
 10
55
 20
-44
 10
61
 20
-44
 10
61
 20
-28
 10
55
 20
-28
  0
LWPOLYLINE
  5
8B
100
AcDbEntity
  8
0
  6
ByLayer
 62
  256
370
   -1
100
AcDbPolyline
 90
    4
 70
    1
 43
0
 10
40
 20
-12
 10
76
 20
-12
 10
76
 20
0
 10
40
 20
0
  0
LWPOLYLINE
  5
8C
100
AcDbEntity
  8
0
  6
ByLayer
 62
  256
370
   -1
100
AcDbPolyline
 90
    4
 70
    1
 43
0
 10
80
 20
-12
 10
116
 20
-12
 10
116
 20
0
 10
80
 20
0
  0
LWPOLYLINE
  5
8D
100
AcDbEntity
  8
0
  6
ByLayer
 62
  256
370
   -1
100
AcDbPolyline
 90
    4
 70
    1
 43
0
 10
42
 20
-2
 10
74
 20
-2
 10
74
 20
-10
 10
42
 20
-10
  0
LWPOLYLINE
  5
8E
100
AcDbEntity
  8
0
  6
ByLayer
 62
  256
370
   -1
100
AcDbPolyline
 90
    4
 70
    1
 43
0
 10
82
 20
-2
 10
114
 20
-2
 10
114
 20
-10
 10
82
 20
-10
  0
LWPOLYLINE
  5
8F
100
AcDbEntity
  8
0
  6
ByLayer
 62
  256
370
   -1
100
AcDbPolyline
 90
    4
 70
    1
 43
0
 10
10
 20
-20
 10
12
 20
-20
 10
12
 20
-58
 10
10
 20
-58
  0
LWPOLYLINE
  5
90
100
AcDbEntity
  8
0
  6
ByLayer
 62
  256
370
   -1
100
AcDbPolyline
 90
    4
 70
    1
 43
0
 10
22
 20
-20
 10
24
 20
-20
 10
24
 20
-58
 10
22
 20
-58
  0
LWPOLYLINE
  5
91
100
AcDbEntity
  8
0
  6
ByLayer
 62
  256
370
   -1
100
AcDbPolyline
 90
    4
 70
    1
 43
0
 10
16
 20
-26
 10
18
 20
-26
 10
18
 20
-52
 10
16
 20
-52
  0
LINE
  5
92
100
AcDbEntity
  8
0
  6
ByLayer
 62
  256
370
   -1
100
AcDbLine
 10
58
 20
-6
 11
58
 21
-3
  0
LINE
  5
93
100
AcDbEntity
  8
0
  6
ByLayer
 62
  256
370
   -1
100
AcDbLine
 10
55
 20
-6
 11
58
 21
-6
  0
LINE
  5
94
100
AcDbEntity
  8
0
  6
ByLayer
 62
  256
370
   -1
100
AcDbLine
 10
58
 20
-6
 11
55
 21
-6
  0
LINE
  5
95
100
AcDbEntity
  8
0
  6
ByLayer
 62
  256
370
   -1
100
AcDbLine
 10
58
 20
-6
 11
61
 21
-6
  0
LINE
  5
96
100
AcDbEntity
  8
0
  6
ByLayer
 62
  256
370
   -1
100
AcDbLine
 10
58
 20
-6
 11
58
 21
-9
  0
LINE
  5
97
100
AcDbEntity
  8
0
  6
ByLayer
 62
  256
370
   -1
100
AcDbLine
 10
61
 20
-6
 11
61
 21
-10
  0
LINE
  5
98
100
AcDbEntity
  8
0
  6
ByLayer
 62
  256
370
   -1
100
AcDbLine
 10
55
 20
-6
 11
55
 21
-2
  0
LINE
  5
99
100
AcDbEntity
  8
0
  6
ByLayer
 62
  256
370
   -1
100
AcDbLine
 10
44
 20
-2
 11
44
 21
-10
  0
LINE
  5
9A
100
AcDbEntity
  8
0
  6
ByLayer
 62
  256
370
   -1
100
AcDbLine
 10
72
 20
-2
 11
72
 21
-10
  0
LINE
  5
9B
100
AcDbEntity
  8
0
  6
ByLayer
 62
  256
370
   -1
100
AcDbLine
 10
58
 20
-3
 11
72
 21
-3
  0
LINE
  5
9C
100
AcDbEntity
  8
0
  6
ByLayer
 62
  256
370
   -1
100
AcDbLine
 10
58
 20
-9
 11
44
 21
-9
  0
LINE
  5
9D
100
AcDbEntity
  8
0
  6
ByLayer
 62
  256
370
   -1
100
AcDbLine
 10
42
 20
-4
 11
58
 21
-4
  0
LINE
  5
9E
100
AcDbEntity
  8
0
  6
ByLayer
 62
  256
370
   -1
100
AcDbLine
 10
58
 20
-8
 11
74
 21
-8
  0
LINE
  5
9F
100
AcDbEntity
  8
0
  6
ByLayer
 62
  256
370
   -1
100
AcDbLine
 10
44
 20
-7
 11
58
 21
-7
  0
LINE
  5
A0
100
AcDbEntity
  8
0
  6
ByLayer
 62
  256
370
   -1
100
AcDbLine
 10
58
 20
-5
 11
72
 21
-5
  0
LINE
  5
A1
100
AcDbEntity
  8
0
  6
ByLayer
 62
  256
370
   -1
100
AcDbLine
 10
98
 20
-6
 11
98
 21
-3
  0
LINE
  5
A2
100
AcDbEntity
  8
0
  6
ByLayer
 62
  256
370
   -1
100
AcDbLine
 10
95
 20
-6
 11
98
 21
-6
  0
LINE
  5
A3
100
AcDbEntity
  8
0
  6
ByLayer
 62
  256
370
   -1
100
AcDbLine
 10
98
 20
-6
 11
95
 21
-6
  0
LINE
  5
A4
100
AcDbEntity
  8
0
  6
ByLayer
 62
  256
370
   -1
100
AcDbLine
 10
98
 20
-6
 11
101
 21
-6
  0
LINE
  5
A5
100
AcDbEntity
  8
0
  6
ByLayer
 62
  256
370
   -1
100
AcDbLine
 10
98
 20
-6
 11
98
 21
-9
  0
LINE
  5
A6
100
AcDbEntity
  8
0
  6
ByLayer
 62
  256
370
   -1
100
AcDbLine
 10
101
 20
-6
 11
101
 21
-10
  0
LINE
  5
A7
100
AcDbEntity
  8
0
  6
ByLayer
 62
  256
370
   -1
100
AcDbLine
 10
95
 20
-6
 11
95
 21
-2
  0
LINE
  5
A8
100
AcDbEntity
  8
0
  6
ByLayer
 62
  256
370
   -1
100
AcDbLine
 10
84
 20
-2
 11
84
 21
-10
  0
LINE
  5
A9
100
AcDbEntity
  8
0
  6
ByLayer
 62
  256
370
   -1
100
AcDbLine
 10
112
 20
-2
 11
112
 21
-10
  0
LINE
  5
AA
100
AcDbEntity
  8
0
  6
ByLayer
 62
  256
370
   -1
100
AcDbLine
 10
98
 20
-3
 11
112
 21
-3
  0
LINE
  5
AB
100
AcDbEntity
  8
0
  6
ByLayer
 62
  256
370
   -1
100
AcDbLine
 10
98
 20
-9
 11
84
 21
-9
  0
LINE
  5
AC
100
AcDbEntity
  8
0
  6
ByLayer
 62
  256
370
   -1
100
AcDbLine
 10
82
 20
-4
 11
98
 21
-4
  0
LINE
  5
AD
100
AcDbEntity
  8
0
  6
ByLayer
 62
  256
370
   -1
100
AcDbLine
 10
98
 20
-8
 11
114
 21
-8
  0
LINE
  5
AE
100
AcDbEntity
  8
0
  6
ByLayer
 62
  256
370
   -1
100
AcDbLine
 10
84
 20
-7
 11
98
 21
-7
  0
LINE
  5
AF
100
AcDbEntity
  8
0
  6
ByLayer
 62
  256
370
   -1
100
AcDbLine
 10
98
 20
-5
 11
112
 21
-5
  0
LWPOLYLINE
  5
B0
100
AcDbEntity
  8
0
  6
ByLayer
 62
    6
370
   -1
100
AcDbPolyline
 90
    4
 70
    1
 43
0
 10
0
 20
-19
 10
-4
 20
-19
 10
-4
 20
-21
 10
0
 20
-21
  0
LWPOLYLINE
  5
B1
100
AcDbEntity
  8
0
  6
ByLayer
 62
    6
370
   -1
100
AcDbPolyline
 90
    4
 70
    1
 43
0
 10
-6
 20
-17
 10
-4
 20
-17
 10
-4
 20
-23
 10
-6
 20
-23
  0
LWPOLYLINE
  5
B2
100
AcDbEntity
  8
0
  6
ByLayer
 62
    6
370
   -1
100
AcDbPolyline
 90
    4
 70
    1
 43
0
 10
-4
 20
-85
 10
-6
 20
-85
 10
-6
 20
-91
 10
-4
 20
-91
  0
LWPOLYLINE
  5
B3
100
AcDbEntity
  8
0
  6
ByLayer
 62
    6
370
   -1
100
AcDbPolyline
 90
    4
 70
    1
 43
0
 10
0
 20
-89
 10
-4
 20
-89
 10
-4
 20
-87
 10
0
 20
-87
  0
LWPOLYLINE
  5
B4
100
AcDbEntity
  8
0
  6
ByLayer
 62
    6
370
   -1
100
AcDbPolyline
 90
    4
 70
    1
 43
0
 10
0
 20
-33
 10
-4
 20
-33
 10
-4
 20
-35
 10
0
 20
-35
  0
LWPOLYLINE
  5
B5
100
AcDbEntity
  8
0
  6
ByLayer
 62
    6
370
   -1
100
AcDbPolyline
 90
    4
 70
    1
 43
0
 10
-6
 20
-31
 10
-4
 20
-31
 10
-4
 20
-37
 10
-6
 20
-37
  0
LWPOLYLINE
  5
B6
100
AcDbEntity
  8
0
  6
ByLayer
 62
    6
370
   -1
100
AcDbPolyline
 90
    4
 70
    1
 43
0
 10
-2
 20
-19
 10
-3
 20
-19
 10
-3
 20
-21
 10
-2
 20
-21
  0
LWPOLYLINE
  5
B7
100
AcDbEntity
  8
0
  6
ByLayer
 62
    6
370
   -1
100
AcDbPolyline
 90
    4
 70
    1
 43
0
 10
-2
 20
-33
 10
-3
 20
-33
 10
-3
 20
-35
 10
-2
 20
-35
  0
LWPOLYLINE
  5
B8
100
AcDbEntity
  8
0
  6
ByLayer
 62
    6
370
   -1
100
AcDbPolyline
 90
    4
 70
    1
 43
0
 10
-2
 20
-87
 10
-3
 20
-87
 10
-3
 20
-89
 10
-2
 20
-89
  0
LWPOLYLINE
  5
B9
100
AcDbEntity
  8
0
  6
ByLayer
 62
    6
370
   -1
100
AcDbPolyline
 90
    4
 70
    1
 43
0
 10
36
 20
-18
 10
37
 20
-18
 10
37
 20
-27
 10
36
 20
-27
  0
LWPOLYLINE
  5
BA
100
AcDbEntity
  8
0
  6
ByLayer
 62
    6
370
   -1
100
AcDbPolyline
 90
    4
 70
    1
 43
0
 10
37
 20
-20
 10
39
 20
-20
 10
39
 20
-25
 10
37
 20
-25
  0
LWPOLYLINE
  5
BB
100
AcDbEntity
  8
0
  6
ByLayer
 62
    6
370
   -1
100
AcDbPolyline
 90
    4
 70
    1
 43
0
 10
39
 20
-18
 10
40
 20
-18
 10
40
 20
-27
 10
39
 20
-27
  0
LWPOLYLINE
  5
BC
100
AcDbEntity
  8
0
  6
ByLayer
 62
    6
370
   -1
100
AcDbPolyline
 90
    4
 70
    1
 43
0
 10
36
 20
-73
 10
37
 20
-73
 10
37
 20
-82
 10
36
 20
-82
  0
LWPOLYLINE
  5
BD
100
AcDbEntity
  8
0
  6
ByLayer
 62
    6
370
   -1
100
AcDbPolyline
 90
    4
 70
    1
 43
0
 10
37
 20
-75
 10
39
 20
-75
 10
39
 20
-80
 10
37
 20
-80
  0
LWPOLYLINE
  5
BE
100
AcDbEntity
  8
0
  6
ByLayer
 62
    6
370
   -1
100
AcDbPolyline
 90
    4
 70
    1
 43
0
 10
39
 20
-73
 10
40
 20
-73
 10
40
 20
-82
 10
39
 20
-82
  0
LWPOLYLINE
  5
BF
100
AcDbEntity
  8
0
  6
ByLayer
 62
    6
370
   -1
100
AcDbPolyline
 90
    4
 70
    1
 43
0
 10
74
 20
-53
 10
75
 20
-53
 10
75
 20
-56
 10
74
 20
-56
  0
LWPOLYLINE
  5
C0
100
AcDbEntity
  8
0
  6
ByLayer
 62
    6
370
   -1
100
AcDbPolyline
 90
    4
 70
    1
 43
0
 10
80
 20
-53
 10
81
 20
-53
 10
81
 20
-56
 10
80
 20
-56
  0
LWPOLYLINE
  5
C1
100
AcDbEntity
  8
0
  6
ByLayer
 62
    6
370
   -1
100
AcDbPolyline
 90
    4
 70
    1
 43
0
 10
92
 20
-53
 10
93
 20
-53
 10
93
 20
-56
 10
92
 20
-56
  0
LWPOLYLINE
  5
C2
100
AcDbEntity
  8
0
  6
ByLayer
 62
    6
370
   -1
100
AcDbPolyline
 90
    4
 70
    1
 43
0
 10
82
 20
-55
 10
85
 20
-55
 10
85
 20
-61
 10
82
 20
-61
  0
LWPOLYLINE
  5
C3
100
AcDbEntity
  8
0
  6
ByLayer
 62
    6
370
   -1
100
AcDbPolyline
 90
    4
 70
    1
 43
0
 10
73
 20
-54
 10
94
 20
-54
 10
94
 20
-55
 10
73
 20
-55
  0
LWPOLYLINE
  5
C4
100
AcDbEntity
  8
0
  6
ByLayer
 62
    6
370
   -1
100
AcDbPolyline
 90
    4
 70
    1
 43
0
 10
116
 20
-19
 10
120
 20
-19
 10
120
 20
-21
 10
116
 20
-21
  0
LWPOLYLINE
  5
C5
100
AcDbEntity
  8
0
  6
ByLayer
 62
    6
370
   -1
100
AcDbPolyline
 90
    4
 70
    1
 43
0
 10
122
 20
-17
 10
120
 20
-17
 10
120
 20
-23
 10
122
 20
-23
  0
LWPOLYLINE
  5
C6
100
AcDbEntity
  8
0
  6
ByLayer
 62
    6
370
   -1
100
AcDbPolyline
 90
    4
 70
    1
 43
0
 10
120
 20
-85
 10
122
 20
-85
 10
122
 20
-91
 10
120
 20
-91
  0
LWPOLYLINE
  5
C7
100
AcDbEntity
  8
0
  6
ByLayer
 62
    6
370
   -1
100
AcDbPolyline
 90
    4
 70
    1
 43
0
 10
116
 20
-89
 10
120
 20
-89
 10
120
 20
-87
 10
116
 20
-87
  0
LWPOLYLINE
  5
C8
100
AcDbEntity
  8
0
  6
ByLayer
 62
    6
370
   -1
100
AcDbPolyline
 90
    4
 70
    1
 43
0
 10
116
 20
-33
 10
120
 20
-33
 10
120
 20
-35
 10
116
 20
-35
  0
LWPOLYLINE
  5
C9
100
AcDbEntity
  8
0
  6
ByLayer
 62
    6
370
   -1
100
AcDbPolyline
 90
    4
 70
    1
 43
0
 10
122
 20
-31
 10
120
 20
-31
 10
120
 20
-37
 10
122
 20
-37
  0
LWPOLYLINE
  5
CA
100
AcDbEntity
  8
0
  6
ByLayer
 62
    6
370
   -1
100
AcDbPolyline
 90
    4
 70
    1
 43
0
 10
118
 20
-19
 10
119
 20
-19
 10
119
 20
-21
 10
118
 20
-21
  0
LWPOLYLINE
  5
CB
100
AcDbEntity
  8
0
  6
ByLayer
 62
    6
370
   -1
100
AcDbPolyline
 90
    4
 70
    1
 43
0
 10
118
 20
-33
 10
119
 20
-33
 10
119
 20
-35
 10
118
 20
-35
  0
LWPOLYLINE
  5
CC
100
AcDbEntity
  8
0
  6
ByLayer
 62
    6
370
   -1
100
AcDbPolyline
 90
    4
 70
    1
 43
0
 10
118
 20
-87
 10
119
 20
-87
 10
119
 20
-89
 10
118
 20
-89
  0
LWPOLYLINE
  5
CD
100
AcDbEntity
  8
0
  6
ByLayer
 62
    6
370
   -1
100
AcDbPolyline
 90
    4
 70
    1
 43
0
 10
34
 20
-87
 10
35
 20
-87
 10
35
 20
-100
 10
34
 20
-100
  0
LWPOLYLINE
  5
CE
100
AcDbEntity
  8
0
  6
ByLayer
 62
    6
370
   -1
100
AcDbPolyline
 90
    4
 70
    1
 43
0
 10
35
 20
-87
 10
36
 20
-87
 10
36
 20
-88
 10
35
 20
-88
  0
LWPOLYLINE
  5
CF
100
AcDbEntity
  8
0
  6
ByLayer
 62
    6
370
   -1
100
AcDbPolyline
 90
    4
 70
    1
 43
0
 10
35
 20
-90
 10
36
 20
-90
 10
36
 20
-91
 10
35
 20
-91
  0
LWPOLYLINE
  5
D0
100
AcDbEntity
  8
0
  6
ByLayer
 62
    6
370
   -1
100
AcDbPolyline
 90
    4
 70
    1
 43
0
 10
74
 20
-87
 10
75
 20
-87
 10
75
 20
-100
 10
74
 20
-100
  0
LWPOLYLINE
  5
D1
100
AcDbEntity
  8
0
  6
ByLayer
 62
    6
370
   -1
100
AcDbPolyline
 90
    4
 70
    1
 43
0
 10
75
 20
-87
 10
76
 20
-87
 10
76
 20
-88
 10
75
 20
-88
  0
LWPOLYLINE
  5
D2
100
AcDbEntity
  8
0
  6
ByLayer
 62
    6
370
   -1
100
AcDbPolyline
 90
    4
 70
    1
 43
0
 10
75
 20
-90
 10
76
 20
-90
 10
76
 20
-91
 10
75
 20
-91
  0
LWPOLYLINE
  5
D3
100
AcDbEntity
  8
0
  6
ByLayer
 62
    6
370
   -1
100
AcDbPolyline
 90
    4
 70
    1
 43
0
 10
83
 20
-57
 10
84
 20
-57
 10
84
 20
-60
 10
83
 20
-60
  0
LWPOLYLINE
  5
D4
100
AcDbEntity
  8
0
  6
ByLayer
 62
  256
370
   -1
100
AcDbPolyline
 90
    4
 70
    1
 43
0
 10
0
 20
-12
 10
36
 20
-12
 10
36
 20
0
 10
0
 20
0
  0
LWPOLYLINE
  5
D5
100
AcDbEntity
  8
0
  6
ByLayer
 62
  256
370
   -1
100
AcDbPolyline
 90
    4
 70
    1
 43
0
 10
2
 20
-2
 10
34
 20
-2
 10
34
 20
-10
 10
2
 20
-10
  0
LINE
  5
D6
100
AcDbEntity
  8
0
  6
ByLayer
 62
  256
370
   -1
100
AcDbLine
 10
18
 20
-6
 11
18
 21
-3
  0
LINE
  5
D7
100
AcDbEntity
  8
0
  6
ByLayer
 62
  256
370
   -1
100
AcDbLine
 10
15
 20
-6
 11
18
 21
-6
  0
LINE
  5
D8
100
AcDbEntity
  8
0
  6
ByLayer
 62
  256
370
   -1
100
AcDbLine
 10
18
 20
-6
 11
15
 21
-6
  0
LINE
  5
D9
100
AcDbEntity
  8
0
  6
ByLayer
 62
  256
370
   -1
100
AcDbLine
 10
18
 20
-6
 11
21
 21
-6
  0
LINE
  5
DA
100
AcDbEntity
  8
0
  6
ByLayer
 62
  256
370
   -1
100
AcDbLine
 10
18
 20
-6
 11
18
 21
-9
  0
LINE
  5
DB
100
AcDbEntity
  8
0
  6
ByLayer
 62
  256
370
   -1
100
AcDbLine
 10
21
 20
-6
 11
21
 21
-10
  0
LINE
  5
DC
100
AcDbEntity
  8
0
  6
ByLayer
 62
  256
370
   -1
100
AcDbLine
 10
15
 20
-6
 11
15
 21
-2
  0
LINE
  5
DD
100
AcDbEntity
  8
0
  6
ByLayer
 62
  256
370
   -1
100
AcDbLine
 10
4
 20
-2
 11
4
 21
-10
  0
LINE
  5
DE
100
AcDbEntity
  8
0
  6
ByLayer
 62
  256
370
   -1
100
AcDbLine
 10
32
 20
-2
 11
32
 21
-10
  0
LINE
  5
DF
100
AcDbEntity
  8
0
  6
ByLayer
 62
  256
370
   -1
100
AcDbLine
 10
18
 20
-3
 11
32
 21
-3
  0
LINE
  5
E0
100
AcDbEntity
  8
0
  6
ByLayer
 62
  256
370
   -1
100
AcDbLine
 10
18
 20
-9
 11
4
 21
-9
  0
LINE
  5
E1
100
AcDbEntity
  8
0
  6
ByLayer
 62
  256
370
   -1
100
AcDbLine
 10
2
 20
-4
 11
18
 21
-4
  0
LINE
  5
E2
100
AcDbEntity
  8
0
  6
ByLayer
 62
  256
370
   -1
100
AcDbLine
 10
18
 20
-8
 11
34
 21
-8
  0
LINE
  5
E3
100
AcDbEntity
  8
0
  6
ByLayer
 62
  256
370
   -1
100
AcDbLine
 10
4
 20
-7
 11
18
 21
-7
  0
LINE
  5
E4
100
AcDbEntity
  8
0
  6
ByLayer
 62
  256
370
   -1
100
AcDbLine
 10
18
 20
-5
 11
32
 21
-5
  0
LWPOLYLINE
  5
E5
100
AcDbEntity
  8
0
  6
ByLayer
 62
    6
370
   -1
100
AcDbPolyline
 90
    4
 70
    1
 43
0
 10
82
 20
-87
 10
81
 20
-87
 10
81
 20
-100
 10
82
 20
-100
  0
LWPOLYLINE
  5
E6
100
AcDbEntity
  8
0
  6
ByLayer
 62
    6
370
   -1
100
AcDbPolyline
 90
    4
 70
    1
 43
0
 10
81
 20
-87
 10
80
 20
-87
 10
80
 20
-88
 10
81
 20
-88
  0
LWPOLYLINE
  5
E7
100
AcDbEntity
  8
0
  6
ByLayer
 62
    6
370
   -1
100
AcDbPolyline
 90
    4
 70
    1
 43
0
 10
81
 20
-90
 10
80
 20
-90
 10
80
 20
-91
 10
81
 20
-91
  0
LWPOLYLINE
  5
E8
100
AcDbEntity
  8
0
  6
ByLayer
 62
    6
370
   -1
100
AcDbPolyline
 90
    4
 70
    1
 43
0
 10
-4
 20
-93
 10
0
 20
-93
 10
0
 20
-100
 10
-4
 20
-100
  0
LWPOLYLINE
  5
E9
100
AcDbEntity
  8
0
  6
ByLayer
 62
    6
370
   -1
100
AcDbPolyline
 90
    4
 70
    1
 43
0
 10
120
 20
-93
 10
116
 20
-93
 10
116
 20
-100
 10
120
 20
-100
  0
ENDSEC
  0
SECTION
  2
OBJECTS
  0
DICTIONARY
  5
C
330
0
100
AcDbDictionary
281
    1
  3
ACAD_GROUP
350
D
  0
DICTIONARY
  5
D
330
C
100
AcDbDictionary
281
    1
  0
PLOTSETTINGS
  5
EA
100
AcDbPlotSettings
  6
1x1
 40
0
 41
0
 42
0
 43
0
  0
ENDSEC
  0
EOF
