999
dxfrw 0.6.3
  0
SECTION
  2
HEADER
  9
$ACADVER
  1
AC1021
  9
$DWGCODEPAGE
  3
ANSI_1252
  9
$INSBASE
 10
0
 20
0
 30
0
  9
$EXTMIN
 10
-38
 20
-736
 30
0
  9
$EXTMAX
 10
436
 20
29.02500000000003
 30
0
  9
$LIMMIN
 10
0
 20
0
  9
$LIMMAX
 10
420
 20
297
  9
$ORTHOMODE
 70
    0
  9
$REGENMODE
 70
    1
  9
$FILLMODE
 70
    1
  9
$QTEXTMODE
 70
    0
  9
$MIRRTEXT
 70
    0
  9
$LTSCALE
 40
1
  9
$ATTMODE
 70
    0
  9
$TEXTSIZE
 40
2.5
  9
$TRACEWID
 40
15.68
  9
$TEXTSTYLE
  7
STANDARD
  9
$CLAYER
  8
furniture
  9
$CELTYPE
  6
BYLAYER
  9
$CECOLOR
 62
  256
  9
$CELTSCALE
 40
1
  9
$DISPSILH
 70
    0
  9
$DIMSCALE
 40
1
  9
$DIMASZ
 40
5
  9
$DIMEXO
 40
0.025
  9
$DIMDLI
 40
3.75
  9
$DIMRND
 40
0
  9
$DIMDLE
 40
0
  9
$DIMEXE
 40
0.05
  9
$DIMTP
 40
0
  9
$DIMTM
 40
0
  9
$DIMTXT
 40
5
  9
$DIMCEN
 40
2.5
  9
$DIMTSZ
 40
1
  9
$DIMTOL
 70
    0
  9
$DIMLIM
 70
    0
  9
$DIMTIH
 70
    0
  9
$DIMTOH
 70
    0
  9
$DIMSE1
 70
    0
  9
$DIMSE2
 70
    0
  9
$DIMTAD
 70
    1
  9
$DIMZIN
 70
    1
  9
$DIMBLK
  1

  9
$DIMASO
 70
    1
  9
$DIMSHO
 70
    1
  9
$DIMPOST
  1

  9
$DIMAPOST
  1

  9
$DIMALT
 70
    0
  9
$DIMALTD
 70
    3
  9
$DIMALTF
 40
0.03937
  9
$DIMLFAC
 40
1
  9
$DIMTOFL
 70
    1
  9
$DIMTVP
 40
0
  9
$DIMTIX
 70
    0
  9
$DIMSOXD
 70
    0
  9
$DIMSAH
 70
    0
  9
$DIMBLK1
  1

  9
$DIMBLK2
  1

  9
$DIMSTYLE
  2
STANDARD
  9
$DIMCLRD
 70
    0
  9
$DIMCLRE
 70
    0
  9
$DIMCLRT
 70
    0
  9
$DIMTFAC
 40
1
  9
$DIMGAP
 40
0.025
  9
$DIMJUST
 70
    0
  9
$DIMSD1
 70
    0
  9
$DIMSD2
 70
    0
  9
$DIMTOLJ
 70
    0
  9
$DIMTZIN
 70
    8
  9
$DIMALTZ
 70
    0
  9
$DIMALTTZ
 70
    0
  9
$DIMUPT
 70
    0
  9
$DIMDEC
 70
    0
  9
$DIMTDEC
 70
    2
  9
$DIMALTU
 70
    2
  9
$DIMALTTD
 70
    3
  9
$DIMTXSTY
  7
unicode
  9
$DIMAUNIT
 70
    0
  9
$DIMADEC
 70
    0
  9
$DIMALTRND
 40
0
  9
$DIMAZIN
 70
    0
  9
$DIMDSEP
 70
    0
  9
$DIMATFIT
 70
    3
  9
$DIMFRAC
 70
    0
  9
$DIMLDRBLK
  1
STANDARD
  9
$DIMLUNIT
 70
    4
  9
$DIMLWD
 70
   -2
  9
$DIMLWE
 70
   -2
  9
$DIMTMOVE
 70
    0
  9
$DIMFXL
 40
0.0394
  9
$DIMFXLON
 70
    0
  9
$DIMJOGANG
 40
0.7854
  9
$DIMTFILL
 70
    0
  9
$DIMTFILLCLR
 70
    0
  9
$DIMARCSYM
 70
    0
  9
$DIMLTYPE
  6

  9
$DIMLTEX1
  6

  9
$DIMLTEX2
  6

  9
$LUNITS
 70
    4
  9
$LUPREC
 70
    0
  9
$SKETCHINC
 40
1
  9
$FILLETRAD
 40
0
  9
$AUNITS
 70
    0
  9
$AUPREC
 70
    0
  9
$MENU
  1
.
  9
$ELEVATION
 40
0
  9
$PELEVATION
 40
0
  9
$THICKNESS
 40
0
  9
$LIMCHECK
 70
    0
  9
$CHAMFERA
 40
0
  9
$CHAMFERB
 40
0
  9
$CHAMFERC
 40
0
  9
$CHAMFERD
 40
0
  9
$SKPOLY
 70
    0
  9
$USRTIMER
 70
    1
  9
$ANGBASE
 50
0
  9
$ANGDIR
 70
    0
  9
$PDMODE
 70
   96
  9
$PDSIZE
 40
-2
  9
$PLINEWID
 40
0
  9
$SPLFRAME
 70
    0
  9
$SPLINETYPE
 70
    2
  9
$SPLINESEGS
 70
    8
  9
$HANDSEED
  5
20000
  9
$SURFTAB1
 70
    6
  9
$SURFTAB2
 70
    6
  9
$SURFTYPE
 70
    6
  9
$SURFU
 70
    6
  9
$SURFV
 70
    6
  9
$UCSBASE
  2

  9
$UCSNAME
  2

  9
$UCSORG
 10
0
 20
0
 30
0
  9
$UCSXDIR
 10
1
 20
0
 30
0
  9
$UCSYDIR
 10
0
 20
1
 30
0
  9
$UCSORTHOREF
  2

  9
$UCSORTHOVIEW
 70
    0
  9
$UCSORGTOP
 10
0
 20
0
 30
0
  9
$UCSORGBOTTOM
 10
0
 20
0
 30
0
  9
$UCSORGLEFT
 10
0
 20
0
 30
0
  9
$UCSORGRIGHT
 10
0
 20
0
 30
0
  9
$UCSORGFRONT
 10
0
 20
0
 30
0
  9
$UCSORGBACK
 10
0
 20
0
 30
0
  9
$PUCSBASE
  2

  9
$PUCSNAME
  2

  9
$PUCSORG
 10
0
 20
0
 30
0
  9
$PUCSXDIR
 10
1
 20
0
 30
0
  9
$PUCSYDIR
 10
0
 20
1
 30
0
  9
$PUCSORTHOREF
  2

  9
$PUCSORTHOVIEW
 70
    0
  9
$PUCSORGTOP
 10
0
 20
0
 30
0
  9
$PUCSORGBOTTOM
 10
0
 20
0
 30
0
  9
$PUCSORGLEFT
 10
0
 20
0
 30
0
  9
$PUCSORGRIGHT
 10
0
 20
0
 30
0
  9
$PUCSORGFRONT
 10
0
 20
0
 30
0
  9
$PUCSORGBACK
 10
0
 20
0
 30
0
  9
$USERI1
 70
    0
  9
$USERI2
 70
    0
  9
$USERI3
 70
    0
  9
$USERI4
 70
    0
  9
$USERI5
 70
    0
  9
$USERR1
 40
0
  9
$USERR2
 40
0
  9
$USERR3
 40
0
  9
$USERR4
 40
0
  9
$USERR5
 40
0
  9
$WORLDVIEW
 70
    1
  9
$SHADEDGE
 70
    3
  9
$SHADEDIF
 70
   70
  9
$TILEMODE
 70
    1
  9
$MAXACTVP
 70
   64
  9
$PINSBASE
 10
1.331041366308086
 20
10.82515387601198
 30
0
  9
$PLIMCHECK
 70
    0
  9
$PEXTMIN
 10
0
 20
0
 30
0
  9
$PEXTMAX
 10
0
 20
0
 30
0
  9
$GRIDMODE
 70
    1
  9
$SNAPSTYLE
 70
    0
  9
$GRIDUNIT
 10
1
 20
1
  9
$PLIMMIN
 10
0
 20
0
  9
$PLIMMAX
 10
8.267716535433072
 20
11.69291338582677
  9
$UNITMODE
 70
    0
  9
$VISRETAIN
 70
    1
  9
$PLINEGEN
 70
    0
  9
$PSLTSCALE
 70
    1
  9
$TREEDEPTH
 70
 3020
  9
$CMLSTYLE
  2
Standard
  9
$CMLJUST
 70
    0
  9
$CMLSCALE
 40
20
  9
$PROXYGRAPHICS
 70
    1
  9
$MEASUREMENT
 70
    0
  9
$CELWEIGHT
370
   -1
  9
$ENDCAPS
280
    1
  9
$JOINSTYLE
280
    1
  9
$LWDISPLAY
290
    0
  9
$INSUNITS
 70
    1
  9
$HYPERLINKBASE
  1

  9
$STYLESHEET
  1

  9
$XEDIT
290
    1
  9
$CEPSNTYPE
380
    0
  9
$PSTYLEMODE
290
    1
  9
$EXTNAMES
290
    1
  9
$PSVPSCALE
 40
0.01408450704225352
  9
$OLESTARTUP
290
    0
  9
$SORTENTS
280
  127
  9
$INDEXCTL
280
    0
  9
$HIDETEXT
280
    1
  9
$XCLIPFRAME
290
    0
  9
$HALOGAP
280
    0
  9
$OBSCOLOR
 70
  257
  9
$OBSLTYPE
280
    0
  9
$INTERSECTIONDISPLAY
280
    0
  9
$INTERSECTIONCOLOR
 70
  257
  9
$DIMASSOC
280
    1
  9
$PROJECTNAME
  1

  9
$CAMERADISPLAY
290
    0
  9
$LENSLENGTH
 40
50
  9
$CAMERAHEIGHT
 40
0
  9
$STEPSPERSEC
 40
2
  9
$STEPSIZE
 40
50
  9
$3DDWFPREC
 40
2
  9
$PSOLWIDTH
 40
5
  9
$PSOLHEIGHT
 40
80
  9
$LOFTANG1
 40
1.570796326794897
  9
$LOFTANG2
 40
1.570796326794897
  9
$LOFTMAG1
 40
0
  9
$LOFTMAG2
 40
0
  9
$LOFTPARAM
 70
    7
  9
$LOFTNORMALS
280
    1
  9
$LATITUDE
 40
1
  9
$LONGITUDE
 40
1
  9
$NORTHDIRECTION
 40
0
  9
$TIMEZONE
 70
-8000
  9
$LIGHTGLYPHDISPLAY
280
    1
  9
$TILEMODELIGHTSYNCH
280
    1
  9
$SOLIDHIST
280
    1
  9
$SHOWHIST
280
    1
  9
$DWFFRAME
280
    2
  9
$DGNFRAME
280
    0
  9
$REALWORLDSCALE
290
    1
  9
$INTERFERECOLOR
 62
    1
  9
$CSHADOW
280
    0
  9
$SHADOWPLANELOCATION
 40
0
  0
ENDSEC
  0
SECTION
  2
CLASSES
  0
ENDSEC
  0
SECTION
  2
TABLES
  0
TABLE
  2
VPORT
  5
8
330
0
100
AcDbSymbolTable
 70
    1
  0
VPORT
  5
31
330
2
100
AcDbSymbolTableRecord
100
AcDbViewportTableRecord
  2
*ACTIVE
 70
    0
 10
0
 20
0
 11
1
 21
1
 12
364.9889273529851
 22
-14.78148303921746
 13
0
 23
0
 14
10
 24
10
 15
1
 25
1
 16
0
 26
0
 36
1
 17
0
 27
0
 37
0
 40
781.1445267647998
 41
1.209606986899563
 42
50
 43
0
 44
0
 50
0
 51
0
 71
    0
 72
  100
 73
    1
 74
    3
 75
    0
 76
    1
 77
    0
 78
    0
281
    0
 65
    1
110
0
120
0
130
0
111
1
121
0
131
0
112
0
122
1
132
0
 79
    0
146
0
348
10020
 60
    3
 61
    5
292
1
282
    1
141
0
142
0
 63
  250
421
3358443
  0
ENDTAB
  0
TABLE
  2
LTYPE
  5
5
330
0
100
AcDbSymbolTable
 70
    4
  0
LTYPE
  5
14
330
5
100
AcDbSymbolTableRecord
100
AcDbLinetypeTableRecord
  2
ByBlock
 70
    0
  3

 72
   65
 73
    0
 40
0
  0
LTYPE
  5
15
330
5
100
AcDbSymbolTableRecord
100
AcDbLinetypeTableRecord
  2
ByLayer
 70
    0
  3

 72
   65
 73
    0
 40
0
  0
LTYPE
  5
16
330
5
100
AcDbSymbolTableRecord
100
AcDbLinetypeTableRecord
  2
Continuous
 70
    0
  3
Solid line
 72
   65
 73
    0
 40
0
  0
LTYPE
  5
32
330
5
100
AcDbSymbolTableRecord
100
AcDbLinetypeTableRecord
  2
DOT
 70
    0
  3
Dot . . . . . . . . . . . . . . . . . . . . . .
 72
   65
 73
    2
 40
6.35
 49
0
 74
    0
 49
-6.35
 74
    0
  0
LTYPE
  5
33
330
5
100
AcDbSymbolTableRecord
100
AcDbLinetypeTableRecord
  2
DOTTINY
 70
    0
  3
Dot (.15x) .....................................
 72
   65
 73
    2
 40
0.9525
 49
0
 74
    0
 49
-0.9525
 74
    0
  0
LTYPE
  5
34
330
5
100
AcDbSymbolTableRecord
100
AcDbLinetypeTableRecord
  2
DOT2
 70
    0
  3
Dot (.5x) .....................................
 72
   65
 73
    2
 40
3.175
 49
0
 74
    0
 49
-3.175
 74
    0
  0
LTYPE
  5
35
330
5
100
AcDbSymbolTableRecord
100
AcDbLinetypeTableRecord
  2
DOTX2
 70
    0
  3
Dot (2x) .  .  .  .  .  .  .  .  .  .  .  .  .
 72
   65
 73
    2
 40
12.7
 49
0
 74
    0
 49
-12.7
 74
    0
  0
LTYPE
  5
36
330
5
100
AcDbSymbolTableRecord
100
AcDbLinetypeTableRecord
  2
DASHED
 70
    0
  3
Dashed _ _ _ _ _ _ _ _ _ _ _ _ _ _ _ _ _
 72
   65
 73
    2
 40
19.05
 49
12.7
 74
    0
 49
-6.35
 74
    0
  0
LTYPE
  5
37
330
5
100
AcDbSymbolTableRecord
100
AcDbLinetypeTableRecord
  2
DASHEDTINY
 70
    0
  3
Dashed (.15x) _ _ _ _ _ _ _ _ _ _ _ _ _ _ _ _ _
 72
   65
 73
    2
 40
2.8575
 49
1.905
 74
    0
 49
-0.9525
 74
    0
  0
LTYPE
  5
38
330
5
100
AcDbSymbolTableRecord
100
AcDbLinetypeTableRecord
  2
DASHED2
 70
    0
  3
Dashed (.5x) _ _ _ _ _ _ _ _ _ _ _ _ _ _ _ _ _
 72
   65
 73
    2
 40
9.524999999999999
 49
6.35
 74
    0
 49
-3.175
 74
    0
  0
LTYPE
  5
39
330
5
100
AcDbSymbolTableRecord
100
AcDbLinetypeTableRecord
  2
DASHEDX2
 70
    0
  3
Dashed (2x) ____  ____  ____  ____  ____  ___
 72
   65
 73
    2
 40
38.09999999999999
 49
25.4
 74
    0
 49
-12.7
 74
    0
  0
LTYPE
  5
3A
330
5
100
AcDbSymbolTableRecord
100
AcDbLinetypeTableRecord
  2
DASHDOT
 70
    0
  3
Dash dot __ . __ . __ . __ . __ . __ . __ . __
 72
   65
 73
    4
 40
25.4
 49
12.7
 74
    0
 49
-6.35
 74
    0
 49
0
 74
    0
 49
-6.35
 74
    0
  0
LTYPE
  5
3B
330
5
100
AcDbSymbolTableRecord
100
AcDbLinetypeTableRecord
  2
DASHDOTTINY
 70
    0
  3
Dash dot (.15x) _._._._._._._._._._._._._._._.
 72
   65
 73
    4
 40
3.81
 49
1.905
 74
    0
 49
-0.9525
 74
    0
 49
0
 74
    0
 49
-0.9525
 74
    0
  0
LTYPE
  5
3C
330
5
100
AcDbSymbolTableRecord
100
AcDbLinetypeTableRecord
  2
DASHDOT2
 70
    0
  3
Dash dot (.5x) _._._._._._._._._._._._._._._.
 72
   65
 73
    4
 40
12.7
 49
6.35
 74
    0
 49
-3.175
 74
    0
 49
0
 74
    0
 49
-3.175
 74
    0
  0
LTYPE
  5
3D
330
5
100
AcDbSymbolTableRecord
100
AcDbLinetypeTableRecord
  2
DASHDOTX2
 70
    0
  3
Dash dot (2x) ____  .  ____  .  ____  .  ___
 72
   65
 73
    4
 40
50.8
 49
25.4
 74
    0
 49
-12.7
 74
    0
 49
0
 74
    0
 49
-12.7
 74
    0
  0
LTYPE
  5
3E
330
5
100
AcDbSymbolTableRecord
100
AcDbLinetypeTableRecord
  2
DIVIDE
 70
    0
  3
Divide ____ . . ____ . . ____ . . ____ . . ____
 72
   65
 73
    6
 40
31.75
 49
12.7
 74
    0
 49
-6.35
 74
    0
 49
0
 74
    0
 49
-6.35
 74
    0
 49
0
 74
    0
 49
-6.35
 74
    0
  0
LTYPE
  5
3F
330
5
100
AcDbSymbolTableRecord
100
AcDbLinetypeTableRecord
  2
DIVIDETINY
 70
    0
  3
Divide (.15x) __..__..__..__..__..__..__..__.._
 72
   65
 73
    6
 40
4.7625
 49
1.905
 74
    0
 49
-0.9525
 74
    0
 49
0
 74
    0
 49
-0.9525
 74
    0
 49
0
 74
    0
 49
-0.9525
 74
    0
  0
LTYPE
  5
40
330
5
100
AcDbSymbolTableRecord
100
AcDbLinetypeTableRecord
  2
DIVIDE2
 70
    0
  3
Divide (.5x) __..__..__..__..__..__..__..__.._
 72
   65
 73
    6
 40
15.875
 49
6.35
 74
    0
 49
-3.175
 74
    0
 49
0
 74
    0
 49
-3.175
 74
    0
 49
0
 74
    0
 49
-3.175
 74
    0
  0
LTYPE
  5
41
330
5
100
AcDbSymbolTableRecord
100
AcDbLinetypeTableRecord
  2
DIVIDEX2
 70
    0
  3
Divide (2x) ________  .  .  ________  .  .  _
 72
   65
 73
    6
 40
63.5
 49
25.4
 74
    0
 49
-12.7
 74
    0
 49
0
 74
    0
 49
-12.7
 74
    0
 49
0
 74
    0
 49
-12.7
 74
    0
  0
LTYPE
  5
42
330
5
100
AcDbSymbolTableRecord
100
AcDbLinetypeTableRecord
  2
BORDER
 70
    0
  3
Border __ __ . __ __ . __ __ . __ __ . __ __ .
 72
   65
 73
    6
 40
44.45
 49
12.7
 74
    0
 49
-6.35
 74
    0
 49
12.7
 74
    0
 49
-6.35
 74
    0
 49
0
 74
    0
 49
-6.35
 74
    0
  0
LTYPE
  5
43
330
5
100
AcDbSymbolTableRecord
100
AcDbLinetypeTableRecord
  2
BORDERTINY
 70
    0
  3
Border (.15x) __.__.__.__.__.__.__.__.__.__.__.
 72
   65
 73
    6
 40
6.6675
 49
1.905
 74
    0
 49
-0.9525
 74
    0
 49
1.905
 74
    0
 49
-0.9525
 74
    0
 49
0
 74
    0
 49
-0.9525
 74
    0
  0
LTYPE
  5
44
330
5
100
AcDbSymbolTableRecord
100
AcDbLinetypeTableRecord
  2
BORDER2
 70
    0
  3
Border (.5x) __.__.__.__.__.__.__.__.__.__.__.
 72
   65
 73
    6
 40
22.225
 49
6.35
 74
    0
 49
-3.175
 74
    0
 49
6.35
 74
    0
 49
-3.175
 74
    0
 49
0
 74
    0
 49
-3.175
 74
    0
  0
LTYPE
  5
45
330
5
100
AcDbSymbolTableRecord
100
AcDbLinetypeTableRecord
  2
BORDERX2
 70
    0
  3
Border (2x) ____  ____  .  ____  ____  .  ___
 72
   65
 73
    6
 40
88.89999999999999
 49
25.4
 74
    0
 49
-12.7
 74
    0
 49
25.4
 74
    0
 49
-12.7
 74
    0
 49
0
 74
    0
 49
-12.7
 74
    0
  0
LTYPE
  5
46
330
5
100
AcDbSymbolTableRecord
100
AcDbLinetypeTableRecord
  2
CENTER
 70
    0
  3
Center ____ _ ____ _ ____ _ ____ _ ____ _ ____
 72
   65
 73
    4
 40
50.8
 49
31.75
 74
    0
 49
-6.35
 74
    0
 49
6.35
 74
    0
 49
-6.35
 74
    0
  0
LTYPE
  5
47
330
5
100
AcDbSymbolTableRecord
100
AcDbLinetypeTableRecord
  2
CENTERTINY
 70
    0
  3
Center (.15x) ___ _ ___ _ ___ _ ___ _ ___ _ ___
 72
   65
 73
    4
 40
7.619999999999999
 49
4.7625
 74
    0
 49
-0.9525
 74
    0
 49
0.9525
 74
    0
 49
-0.9525
 74
    0
  0
LTYPE
  5
48
330
5
100
AcDbSymbolTableRecord
100
AcDbLinetypeTableRecord
  2
CENTER2
 70
    0
  3
Center (.5x) ___ _ ___ _ ___ _ ___ _ ___ _ ___
 72
   65
 73
    4
 40
28.575
 49
19.05
 74
    0
 49
-3.175
 74
    0
 49
3.175
 74
    0
 49
-3.175
 74
    0
  0
LTYPE
  5
49
330
5
100
AcDbSymbolTableRecord
100
AcDbLinetypeTableRecord
  2
CENTERX2
 70
    0
  3
Center (2x) ________  __  ________  __  _____
 72
   65
 73
    4
 40
101.6
 49
63.5
 74
    0
 49
-12.7
 74
    0
 49
12.7
 74
    0
 49
-12.7
 74
    0
  0
ENDTAB
  0
TABLE
  2
LAYER
  5
2
330
0
100
AcDbSymbolTable
 70
    1
  0
LAYER
  5
10
330
2
100
AcDbSymbolTableRecord
100
AcDbLayerTableRecord
  2
0
 70
    0
 62
    7
  6
CONTINUOUS
370
   25
390
F
  0
LAYER
  5
4A
330
2
100
AcDbSymbolTableRecord
100
AcDbLayerTableRecord
  2
Block furniture
 70
    0
 62
    7
  6
CONTINUOUS
370
   -3
390
F
  0
LAYER
  5
4B
330
2
100
AcDbSymbolTableRecord
100
AcDbLayerTableRecord
  2
Display
 70
    0
 62
    7
  6
CONTINUOUS
370
   25
390
F
  0
LAYER
  5
4C
330
2
100
AcDbSymbolTableRecord
100
AcDbLayerTableRecord
  2
Slab Electrical
 70
    0
 62
    1
  6
CONTINUOUS
370
   13
390
F
  0
LAYER
  5
4D
330
2
100
AcDbSymbolTableRecord
100
AcDbLayerTableRecord
  2
dimensions
 70
    0
 62
  253
420
10526884
  6
CONTINUOUS
370
    9
390
F
  0
LAYER
  5
4E
330
2
100
AcDbSymbolTableRecord
100
AcDbLayerTableRecord
  2
furniture
 70
    0
 62
  136
420
32896
  6
CONTINUOUS
370
    5
390
F
  0
LAYER
  5
4F
330
2
100
AcDbSymbolTableRecord
100
AcDbLayerTableRecord
  2
pillars
 70
    0
 62
    7
  6
CONTINUOUS
370
    0
390
F
  0
LAYER
  5
50
330
2
100
AcDbSymbolTableRecord
100
AcDbLayerTableRecord
  2
plumbing
 70
    0
 62
    7
  6
CONTINUOUS
370
   -3
390
F
  0
LAYER
  5
51
330
2
100
AcDbSymbolTableRecord
100
AcDbLayerTableRecord
  2
roomname
 70
    0
 62
    6
  6
CONTINUOUS
370
   25
390
F
  0
LAYER
  5
52
330
2
100
AcDbSymbolTableRecord
100
AcDbLayerTableRecord
  2
support beams
 70
    0
 62
    7
  6
CONTINUOUS
290
0
370
   25
390
F
  0
LAYER
  5
53
330
2
100
AcDbSymbolTableRecord
100
AcDbLayerTableRecord
  2
walls
 70
    0
 62
    7
  6
CONTINUOUS
370
   25
390
F
  0
ENDTAB
  0
TABLE
  2
STYLE
  5
3
330
0
100
AcDbSymbolTable
 70
    3
  0
STYLE
  5
54
330
2
100
AcDbSymbolTableRecord
100
AcDbTextStyleTableRecord
  2
standard
 70
    0
 40
0
 41
1
 50
0
 71
    0
 42
1
  3
standard
  4

  0
ENDTAB
  0
TABLE
  2
VIEW
  5
6
330
0
100
AcDbSymbolTable
 70
    0
  0
ENDTAB
  0
TABLE
  2
UCS
  5
7
330
0
100
AcDbSymbolTable
 70
    0
  0
ENDTAB
  0
TABLE
  2
APPID
  5
9
330
0
100
AcDbSymbolTable
 70
    1
  0
APPID
  5
12
330
9
100
AcDbSymbolTableRecord
100
AcDbRegAppTableRecord
  2
ACAD
 70
    0
  0
APPID
  5
55
330
9
100
AcDbSymbolTableRecord
100
AcDbRegAppTableRecord
  2
LibreCad
 70
    0
  0
ENDTAB
  0
TABLE
  2
DIMSTYLE
  5
A
330
0
100
AcDbSymbolTable
 70
    1
100
AcDbDimStyleTable
 71
    1
  0
DIMSTYLE
105
56
330
A
100
AcDbSymbolTableRecord
100
AcDbDimStyleTableRecord
  2
Standard
 70
    0
 40
1
 41
5
 42
0.025
 43
0.38
 44
0.05
 45
0
 46
0
 47
0
 48
0
 49
0.0394
140
5
141
0.09
142
1
143
25.4
144
1
145
0
146
1
147
0.025
148
0
 71
    0
 72
    0
 73
    0
 74
    1
 75
    0
 76
    0
 77
    0
 78
    1
 79
    0
170
    0
171
    2
172
    0
173
    0
174
    0
175
    0
176
    0
177
    0
178
    0
179
    0
271
    0
272
    4
273
    2
274
    2
275
    0
276
    0
277
    4
278
    0
279
    0
280
    0
281
    0
282
    0
283
    1
284
    0
285
    0
286
    0
288
    0
289
    3
  0
ENDTAB
  0
TABLE
  2
BLOCK_RECORD
  5
1
330
0
100
AcDbSymbolTable
 70
    2
  0
BLOCK_RECORD
  5
1F
330
1
100
AcDbSymbolTableRecord
100
AcDbBlockTableRecord
  2
*Model_Space
 70
    0
280
    1
281
    0
  0
BLOCK_RECORD
  5
1E
330
1
100
AcDbSymbolTableRecord
100
AcDbBlockTableRecord
  2
*Paper_Space
 70
    0
280
    1
281
    0
  0
BLOCK_RECORD
  5
57
330
1
100
AcDbSymbolTableRecord
100
AcDbBlockTableRecord
  2
*D7
 70
    0
280
    1
281
    0
  0
BLOCK_RECORD
  5
5A
330
1
100
AcDbSymbolTableRecord
100
AcDbBlockTableRecord
  2
*D9
 70
    0
280
    1
281
    0
  0
BLOCK_RECORD
  5
5D
330
1
100
AcDbSymbolTableRecord
100
AcDbBlockTableRecord
  2
*D13
 70
    0
280
    1
281
    0
  0
BLOCK_RECORD
  5
60
330
1
100
AcDbSymbolTableRecord
100
AcDbBlockTableRecord
  2
*D6
 70
    0
280
    1
281
    0
  0
BLOCK_RECORD
  5
63
330
1
100
AcDbSymbolTableRecord
100
AcDbBlockTableRecord
  2
*D2
 70
    0
280
    1
281
    0
  0
BLOCK_RECORD
  5
66
330
1
100
AcDbSymbolTableRecord
100
AcDbBlockTableRecord
  2
*D5
 70
    0
280
    1
281
    0
  0
BLOCK_RECORD
  5
69
330
1
100
AcDbSymbolTableRecord
100
AcDbBlockTableRecord
  2
*D11
 70
    0
280
    1
281
    0
  0
BLOCK_RECORD
  5
6C
330
1
100
AcDbSymbolTableRecord
100
AcDbBlockTableRecord
  2
*D3
 70
    0
280
    1
281
    0
  0
BLOCK_RECORD
  5
6F
330
1
100
AcDbSymbolTableRecord
100
AcDbBlockTableRecord
  2
*D14
 70
    0
280
    1
281
    0
  0
BLOCK_RECORD
  5
72
330
1
100
AcDbSymbolTableRecord
100
AcDbBlockTableRecord
  2
*D12
 70
    0
280
    1
281
    0
  0
BLOCK_RECORD
  5
75
330
1
100
AcDbSymbolTableRecord
100
AcDbBlockTableRecord
  2
*D8
 70
    0
280
    1
281
    0
  0
BLOCK_RECORD
  5
78
330
1
100
AcDbSymbolTableRecord
100
AcDbBlockTableRecord
  2
*D10
 70
    0
280
    1
281
    0
  0
BLOCK_RECORD
  5
7B
330
1
100
AcDbSymbolTableRecord
100
AcDbBlockTableRecord
  2
*D1
 70
    0
280
    1
281
    0
  0
BLOCK_RECORD
  5
7E
330
1
100
AcDbSymbolTableRecord
100
AcDbBlockTableRecord
  2
*D4
 70
    0
280
    1
281
    0
  0
BLOCK_RECORD
  5
81
330
1
100
AcDbSymbolTableRecord
100
AcDbBlockTableRecord
  2
*D15
 70
    0
280
    1
281
    0
  0
BLOCK_RECORD
  5
84
330
1
100
AcDbSymbolTableRecord
100
AcDbBlockTableRecord
  2
screw
 70
    0
280
    1
281
    0
  0
BLOCK_RECORD
  5
87
330
1
100
AcDbSymbolTableRecord
100
AcDbBlockTableRecord
  2
tux
 70
    0
280
    1
281
    0
  0
BLOCK_RECORD
  5
8A
330
1
100
AcDbSymbolTableRecord
100
AcDbBlockTableRecord
  2
Kitchen-fridge-V
 70
    0
280
    1
281
    0
  0
BLOCK_RECORD
  5
8D
330
1
100
AcDbSymbolTableRecord
100
AcDbBlockTableRecord
  2
Kitchen-sink-E
 70
    0
280
    1
281
    0
  0
BLOCK_RECORD
  5
90
330
1
100
AcDbSymbolTableRecord
100
AcDbBlockTableRecord
  2
Bathroom-sink-E
 70
    0
280
    1
281
    0
  0
BLOCK_RECORD
  5
93
330
1
100
AcDbSymbolTableRecord
100
AcDbBlockTableRecord
  2
Chair-sofa-E
 70
    0
280
    1
281
    0
  0
BLOCK_RECORD
  5
96
330
1
100
AcDbSymbolTableRecord
100
AcDbBlockTableRecord
  2
Table-dining-E
 70
    0
280
    1
281
    0
  0
BLOCK_RECORD
  5
99
330
1
100
AcDbSymbolTableRecord
100
AcDbBlockTableRecord
  2
Wardrobe-E
 70
    0
280
    1
281
    0
  0
ENDTAB
  0
ENDSEC
  0
SECTION
  2
BLOCKS
  0
BLOCK
  5
20
330
1F
100
AcDbEntity
  8
0
100
AcDbBlockBegin
  2
*Model_Space
 70
    0
 10
0
 20
0
 30
0
  3
*Model_Space
  1

  0
ENDBLK
  5
21
330
1F
100
AcDbEntity
  8
0
100
AcDbBlockEnd
  0
BLOCK
  5
1C
330
1B
100
AcDbEntity
  8
0
100
AcDbBlockBegin
  2
*Paper_Space
 70
    0
 10
0
 20
0
 30
0
  3
*Paper_Space
  1

  0
ENDBLK
  5
1D
330
1F
100
AcDbEntity
  8
0
100
AcDbBlockEnd
  0
BLOCK
  5
58
330
57
100
AcDbEntity
  8
0
100
AcDbBlockBegin
  2
*D7
 70
    1
 10
0
 20
0
  3
*D7
  1

  0
LINE
  5
9C
100
AcDbEntity
  8
dimensions
  6
ByBlock
 62
    0
370
   -2
100
AcDbLine
 10
-2.025000000000008
 20
-181
 11
-12.05000000000004
 21
-181
  0
LINE
  5
9D
100
AcDbEntity
  8
dimensions
  6
ByBlock
 62
    0
370
   -2
100
AcDbLine
 10
-2.02499999999997
 20
-361
 11
-12.05
 21
-361
  0
LINE
  5
9E
100
AcDbEntity
  8
dimensions
  6
ByBlock
 62
    0
370
   -2
100
AcDbLine
 10
-12.00000000000004
 20
-181
 11
-12
 21
-361
  0
MTEXT
  5
9F
100
AcDbEntity
  8
dimensions
  6
CONTINUOUS
 62
    0
370
   -2
100
AcDbMText
 10
-14.52500000000002
 20
-271
 30
0
 40
5
 41
18.33333333333334
 71
    5
 72
    1
  1
15'-0"
  7
unicode
210
0
220
0
230
1
 50
90
 73
    2
 44
1
  0
LINE
  5
A0
100
AcDbEntity
  8
dimensions
  6
ByBlock
 62
    0
370
   -2
100
AcDbLine
 10
-11.29289321881349
 20
-181.7071067811866
 11
-12.70710678118659
 21
-180.2928932188134
  0
LINE
  5
A1
100
AcDbEntity
  8
dimensions
  6
ByBlock
 62
    0
370
   -2
100
AcDbLine
 10
-11.29289321881345
 20
-361.7071067811866
 11
-12.70710678118655
 21
-360.2928932188134
  0
ENDBLK
  5
59
330
57
100
AcDbEntity
  8
0
100
AcDbBlockEnd
  0
BLOCK
  5
5B
330
5A
100
AcDbEntity
  8
0
100
AcDbBlockBegin
  2
*D9
 70
    1
 10
0
 20
0
  3
*D9
  1

  0
LINE
  5
A2
100
AcDbEntity
  8
dimensions
  6
ByBlock
 62
    0
370
   -2
100
AcDbLine
 10
371.025
 20
-181
 11
378.05
 21
-181
  0
LINE
  5
A3
100
AcDbEntity
  8
dimensions
  6
ByBlock
 62
    0
370
   -2
100
AcDbLine
 10
371.025
 20
-277
 11
378.05
 21
-277
  0
LINE
  5
A4
100
AcDbEntity
  8
dimensions
  6
ByBlock
 62
    0
370
   -2
100
AcDbLine
 10
378
 20
-181
 11
378
 21
-277
  0
MTEXT
  5
A5
100
AcDbEntity
  8
dimensions
  6
CONTINUOUS
 62
    0
370
   -2
100
AcDbMText
 10
375.475
 20
-229
 30
0
 40
5
 41
15.55555555555556
 71
    5
 72
    1
  1
8'-0"
  7
unicode
210
0
220
0
230
1
 50
90
 73
    2
 44
1
  0
LINE
  5
A6
100
AcDbEntity
  8
dimensions
  6
ByBlock
 62
    0
370
   -2
100
AcDbLine
 10
378.7071067811866
 20
-181.7071067811866
 11
377.2928932188134
 21
-180.2928932188134
  0
LINE
  5
A7
100
AcDbEntity
  8
dimensions
  6
ByBlock
 62
    0
370
   -2
100
AcDbLine
 10
378.7071067811866
 20
-277.7071067811866
 11
377.2928932188134
 21
-276.2928932188134
  0
ENDBLK
  5
5C
330
5A
100
AcDbEntity
  8
0
100
AcDbBlockEnd
  0
BLOCK
  5
5E
330
5D
100
AcDbEntity
  8
0
100
AcDbBlockBegin
  2
*D13
 70
    1
 10
0
 20
0
  3
*D13
  1

  0
LINE
  5
A8
100
AcDbEntity
  8
dimensions
  6
ByBlock
 62
    0
370
   -2
100
AcDbLine
 10
236.025
 20
-39
 11
240.05
 21
-39
  0
LINE
  5
A9
100
AcDbEntity
  8
dimensions
  6
ByBlock
 62
    0
370
   -2
100
AcDbLine
 10
236.025
 20
-69
 11
240.05
 21
-69
  0
LINE
  5
AA
100
AcDbEntity
  8
dimensions
  6
ByBlock
 62
    0
370
   -2
100
AcDbLine
 10
240
 20
-39
 11
240
 21
-69
  0
MTEXT
  5
AB
100
AcDbEntity
  8
dimensions
  6
CONTINUOUS
 62
    0
370
   -2
100
AcDbMText
 10
237.475
 20
-54
 30
0
 40
5
 41
15.55555555555556
 71
    5
 72
    1
  1
2'-6"
  7
unicode
210
0
220
0
230
1
 50
90
 73
    2
 44
1
  0
LINE
  5
AC
100
AcDbEntity
  8
dimensions
  6
ByBlock
 62
    0
370
   -2
100
AcDbLine
 10
240.7071067811866
 20
-39.70710678118655
 11
239.2928932188134
 21
-38.29289321881345
  0
LINE
  5
AD
100
AcDbEntity
  8
dimensions
  6
ByBlock
 62
    0
370
   -2
100
AcDbLine
 10
240.7071067811866
 20
-69.70710678118655
 11
239.2928932188134
 21
-68.29289321881345
  0
ENDBLK
  5
5F
330
5D
100
AcDbEntity
  8
0
100
AcDbBlockEnd
  0
BLOCK
  5
61
330
60
100
AcDbEntity
  8
0
100
AcDbBlockBegin
  2
*D6
 70
    1
 10
0
 20
0
  3
*D6
  1

  0
LINE
  5
AE
100
AcDbEntity
  8
dimensions
  6
ByBlock
 62
    0
370
   -2
100
AcDbLine
 10
-2.025000000000003
 20
3.061515884555943e-18
 11
-24.04999999999984
 21
2.700257010178322e-15
  0
LINE
  5
AF
100
AcDbEntity
  8
dimensions
  6
ByBlock
 62
    0
370
   -2
100
AcDbLine
 10
-2.025000000000163
 20
-361
 11
-24.05
 21
-361
  0
LINE
  5
B0
100
AcDbEntity
  8
dimensions
  6
ByBlock
 62
    0
370
   -2
100
AcDbLine
 10
-23.99999999999984
 20
2.69413397840921e-15
 11
-24
 21
-361
  0
MTEXT
  5
B1
100
AcDbEntity
  8
dimensions
  6
CONTINUOUS
 62
    0
370
   -2
100
AcDbMText
 10
-26.52499999999992
 20
-180.5
 30
0
 40
5
 41
18.33333333333334
 71
    5
 72
    1
  1
30'-1"
  7
unicode
210
0
220
0
230
1
 50
90
 73
    2
 44
1
  0
LINE
  5
B2
100
AcDbEntity
  8
dimensions
  6
ByBlock
 62
    0
370
   -2
100
AcDbLine
 10
-23.29289321881329
 20
-0.7071067811865452
 11
-24.70710678118639
 21
0.7071067811865506
  0
LINE
  5
B3
100
AcDbEntity
  8
dimensions
  6
ByBlock
 62
    0
370
   -2
100
AcDbLine
 10
-23.29289321881345
 20
-361.7071067811866
 11
-24.70710678118655
 21
-360.2928932188134
  0
ENDBLK
  5
62
330
60
100
AcDbEntity
  8
0
100
AcDbBlockEnd
  0
BLOCK
  5
64
330
63
100
AcDbEntity
  8
0
100
AcDbBlockBegin
  2
*D2
 70
    1
 10
0
 20
0
  3
*D2
  1

  0
LINE
  5
B4
100
AcDbEntity
  8
dimensions
  6
ByBlock
 62
    0
370
   -2
100
AcDbLine
 10
183
 20
-182.025
 11
183
 21
-186.05
  0
LINE
  5
B5
100
AcDbEntity
  8
dimensions
  6
ByBlock
 62
    0
370
   -2
100
AcDbLine
 10
225
 20
-182.025
 11
225
 21
-186.05
  0
LINE
  5
B6
100
AcDbEntity
  8
dimensions
  6
ByBlock
 62
    0
370
   -2
100
AcDbLine
 10
183
 20
-186
 11
225
 21
-186
  0
MTEXT
  5
B7
100
AcDbEntity
  8
dimensions
  6
CONTINUOUS
 62
    0
370
   -2
100
AcDbMText
 10
204
 20
-183.475
 30
0
 40
5
 41
15.55555555555556
 71
    5
 72
    1
  1
3'-6"
  7
unicode
210
0
220
0
230
1
 50
0
 73
    2
 44
1
  0
LINE
  5
B8
100
AcDbEntity
  8
dimensions
  6
ByBlock
 62
    0
370
   -2
100
AcDbLine
 10
183.7071067811866
 20
-185.2928932188134
 11
182.2928932188134
 21
-186.7071067811866
  0
LINE
  5
B9
100
AcDbEntity
  8
dimensions
  6
ByBlock
 62
    0
370
   -2
100
AcDbLine
 10
225.7071067811866
 20
-185.2928932188134
 11
224.2928932188134
 21
-186.7071067811866
  0
ENDBLK
  5
65
330
63
100
AcDbEntity
  8
0
100
AcDbBlockEnd
  0
BLOCK
  5
67
330
66
100
AcDbEntity
  8
0
100
AcDbBlockBegin
  2
*D5
 70
    1
 10
0
 20
0
  3
*D5
  1

  0
LINE
  5
BA
100
AcDbEntity
  8
dimensions
  6
ByBlock
 62
    0
370
   -2
100
AcDbLine
 10
-2.025000000000004
 20
-5
 11
-6.049999999999999
 21
-4.999999999999999
  0
LINE
  5
BB
100
AcDbEntity
  8
dimensions
  6
ByBlock
 62
    0
370
   -2
100
AcDbLine
 10
-2.025000000000005
 20
-176
 11
-6.05
 21
-176
  0
LINE
  5
BC
100
AcDbEntity
  8
dimensions
  6
ByBlock
 62
    0
370
   -2
100
AcDbLine
 10
-5.999999999999999
 20
-4.999999999999999
 11
-6
 21
-176
  0
MTEXT
  5
BD
100
AcDbEntity
  8
dimensions
  6
CONTINUOUS
 62
    0
370
   -2
100
AcDbMText
 10
-8.525
 20
-90.5
 30
0
 40
5
 41
18.88888888888889
 71
    5
 72
    1
  1
14'-3"
  7
unicode
210
0
220
0
230
1
 50
90
 73
    2
 44
1
  0
LINE
  5
BE
100
AcDbEntity
  8
dimensions
  6
ByBlock
 62
    0
370
   -2
100
AcDbLine
 10
-5.292893218813452
 20
-5.707106781186547
 11
-6.707106781186546
 21
-4.292893218813451
  0
LINE
  5
BF
100
AcDbEntity
  8
dimensions
  6
ByBlock
 62
    0
370
   -2
100
AcDbLine
 10
-5.292893218813452
 20
-176.7071067811866
 11
-6.707106781186548
 21
-175.2928932188134
  0
ENDBLK
  5
68
330
66
100
AcDbEntity
  8
0
100
AcDbBlockEnd
  0
BLOCK
  5
6A
330
69
100
AcDbEntity
  8
0
100
AcDbBlockBegin
  2
*D11
 70
    1
 10
0
 20
0
  3
*D11
  1

  0
LINE
  5
C0
100
AcDbEntity
  8
dimensions
  6
ByBlock
 62
    0
370
   -2
100
AcDbLine
 10
225
 20
-363.025
 11
225
 21
-369.05
  0
LINE
  5
C1
100
AcDbEntity
  8
dimensions
  6
ByBlock
 62
    0
370
   -2
100
AcDbLine
 10
369
 20
-363.025
 11
369
 21
-369.05
  0
LINE
  5
C2
100
AcDbEntity
  8
dimensions
  6
ByBlock
 62
    0
370
   -2
100
AcDbLine
 10
225
 20
-369
 11
369
 21
-369
  0
MTEXT
  5
C3
100
AcDbEntity
  8
dimensions
  6
CONTINUOUS
 62
    0
370
   -2
100
AcDbMText
 10
297
 20
-366.475
 30
0
 40
5
 41
18.33333333333334
 71
    5
 72
    1
  1
12'-0"
  7
unicode
210
0
220
0
230
1
 50
0
 73
    2
 44
1
  0
LINE
  5
C4
100
AcDbEntity
  8
dimensions
  6
ByBlock
 62
    0
370
   -2
100
AcDbLine
 10
225.7071067811866
 20
-368.2928932188134
 11
224.2928932188134
 21
-369.7071067811866
  0
LINE
  5
C5
100
AcDbEntity
  8
dimensions
  6
ByBlock
 62
    0
370
   -2
100
AcDbLine
 10
369.7071067811866
 20
-368.2928932188134
 11
368.2928932188134
 21
-369.7071067811866
  0
ENDBLK
  5
6B
330
69
100
AcDbEntity
  8
0
100
AcDbBlockEnd
  0
BLOCK
  5
6D
330
6C
100
AcDbEntity
  8
0
100
AcDbBlockBegin
  2
*D3
 70
    1
 10
0
 20
0
  3
*D3
  1

  0
LINE
  5
C6
100
AcDbEntity
  8
dimensions
  6
ByBlock
 62
    0
370
   -2
100
AcDbLine
 10
-2.849234316906237e-14
 20
2.025000000000087
 11
-5.681647237106336e-14
 21
12.05
  0
LINE
  5
C7
100
AcDbEntity
  8
dimensions
  6
ByBlock
 62
    0
370
   -2
100
AcDbLine
 10
225
 20
2.025000000000087
 11
225
 21
12.05
  0
LINE
  5
C8
100
AcDbEntity
  8
dimensions
  6
ByBlock
 62
    0
370
   -2
100
AcDbLine
 10
-5.667520489374664e-14
 20
12
 11
225
 21
12
  0
MTEXT
  5
C9
100
AcDbEntity
  8
dimensions
  6
CONTINUOUS
 62
    0
370
   -2
100
AcDbMText
 10
112.5
 20
14.525
 30
0
 40
5
 41
18.33333333333334
 71
    5
 72
    1
  1
18'-9"
  7
unicode
210
0
220
0
230
1
 50
0
 73
    2
 44
1
  0
LINE
  5
CA
100
AcDbEntity
  8
dimensions
  6
ByBlock
 62
    0
370
   -2
100
AcDbLine
 10
0.7071067811864911
 20
12.70710678118655
 11
-0.7071067811866043
 21
11.29289321881345
  0
LINE
  5
CB
100
AcDbEntity
  8
dimensions
  6
ByBlock
 62
    0
370
   -2
100
AcDbLine
 10
225.7071067811865
 20
12.70710678118655
 11
224.2928932188134
 21
11.29289321881345
  0
ENDBLK
  5
6E
330
6C
100
AcDbEntity
  8
0
100
AcDbBlockEnd
  0
BLOCK
  5
70
330
6F
100
AcDbEntity
  8
0
100
AcDbBlockBegin
  2
*D14
 70
    1
 10
0
 20
0
  3
*D14
  1

  0
LINE
  5
CC
100
AcDbEntity
  8
dimensions
  6
ByBlock
 62
    0
370
   -2
100
AcDbLine
 10
222.975
 20
-320
 11
215.95
 21
-320
  0
LINE
  5
CD
100
AcDbEntity
  8
dimensions
  6
ByBlock
 62
    0
370
   -2
100
AcDbLine
 10
222.975
 20
-356
 11
215.95
 21
-356
  0
LINE
  5
CE
100
AcDbEntity
  8
dimensions
  6
ByBlock
 62
    0
370
   -2
100
AcDbLine
 10
216
 20
-320
 11
216
 21
-356
  0
MTEXT
  5
CF
100
AcDbEntity
  8
dimensions
  6
CONTINUOUS
 62
    0
370
   -2
100
AcDbMText
 10
213.475
 20
-338
 30
0
 40
5
 41
15.55555555555556
 71
    5
 72
    1
  1
3'-0"
  7
unicode
210
0
220
0
230
1
 50
90
 73
    2
 44
1
  0
LINE
  5
D0
100
AcDbEntity
  8
dimensions
  6
ByBlock
 62
    0
370
   -2
100
AcDbLine
 10
216.7071067811866
 20
-320.7071067811866
 11
215.2928932188134
 21
-319.2928932188134
  0
LINE
  5
D1
100
AcDbEntity
  8
dimensions
  6
ByBlock
 62
    0
370
   -2
100
AcDbLine
 10
216.7071067811866
 20
-356.7071067811866
 11
215.2928932188134
 21
-355.2928932188134
  0
ENDBLK
  5
71
330
6F
100
AcDbEntity
  8
0
100
AcDbBlockEnd
  0
BLOCK
  5
73
330
72
100
AcDbEntity
  8
0
100
AcDbBlockBegin
  2
*D12
 70
    1
 10
0
 20
0
  3
*D12
  1

  0
LINE
  5
D2
100
AcDbEntity
  8
dimensions
  6
ByBlock
 62
    0
370
   -2
100
AcDbLine
 10
117
 20
-363.025
 11
117
 21
-369.05
  0
LINE
  5
D3
100
AcDbEntity
  8
dimensions
  6
ByBlock
 62
    0
370
   -2
100
AcDbLine
 10
225
 20
-363.025
 11
225
 21
-369.05
  0
LINE
  5
D4
100
AcDbEntity
  8
dimensions
  6
ByBlock
 62
    0
370
   -2
100
AcDbLine
 10
117
 20
-369
 11
225
 21
-369
  0
MTEXT
  5
D5
100
AcDbEntity
  8
dimensions
  6
CONTINUOUS
 62
    0
370
   -2
100
AcDbMText
 10
171
 20
-366.475
 30
0
 40
5
 41
15.55555555555556
 71
    5
 72
    1
  1
9'-0"
  7
unicode
210
0
220
0
230
1
 50
0
 73
    2
 44
1
  0
LINE
  5
D6
100
AcDbEntity
  8
dimensions
  6
ByBlock
 62
    0
370
   -2
100
AcDbLine
 10
117.7071067811866
 20
-368.2928932188134
 11
116.2928932188134
 21
-369.7071067811866
  0
LINE
  5
D7
100
AcDbEntity
  8
dimensions
  6
ByBlock
 62
    0
370
   -2
100
AcDbLine
 10
225.7071067811866
 20
-368.2928932188134
 11
224.2928932188134
 21
-369.7071067811866
  0
ENDBLK
  5
74
330
72
100
AcDbEntity
  8
0
100
AcDbBlockEnd
  0
BLOCK
  5
76
330
75
100
AcDbEntity
  8
0
100
AcDbBlockBegin
  2
*D8
 70
    1
 10
0
 20
0
  3
*D8
  1

  0
LINE
  5
D8
100
AcDbEntity
  8
dimensions
  6
ByBlock
 62
    0
370
   -2
100
AcDbLine
 10
9
 20
-182.025
 11
8.999999999999998
 21
-187.05
  0
LINE
  5
D9
100
AcDbEntity
  8
dimensions
  6
ByBlock
 62
    0
370
   -2
100
AcDbLine
 10
32
 20
-182.025
 11
32
 21
-187.05
  0
LINE
  5
DA
100
AcDbEntity
  8
dimensions
  6
ByBlock
 62
    0
370
   -2
100
AcDbLine
 10
8.999999999999998
 20
-187
 11
32
 21
-187
  0
MTEXT
  5
DB
100
AcDbEntity
  8
dimensions
  6
CONTINUOUS
 62
    0
370
   -2
100
AcDbMText
 10
20.5
 20
-184.475
 30
0
 40
5
 41
16.11111111111111
 71
    5
 72
    1
  1
1'-11"
  7
unicode
210
0
220
0
230
1
 50
0
 73
    2
 44
1
  0
LINE
  5
DC
100
AcDbEntity
  8
dimensions
  6
ByBlock
 62
    0
370
   -2
100
AcDbLine
 10
9.707106781186546
 20
-186.2928932188134
 11
8.29289321881345
 21
-187.7071067811866
  0
LINE
  5
DD
100
AcDbEntity
  8
dimensions
  6
ByBlock
 62
    0
370
   -2
100
AcDbLine
 10
32.70710678118655
 20
-186.2928932188134
 11
31.29289321881345
 21
-187.7071067811866
  0
ENDBLK
  5
77
330
75
100
AcDbEntity
  8
0
100
AcDbBlockEnd
  0
BLOCK
  5
79
330
78
100
AcDbEntity
  8
0
100
AcDbBlockBegin
  2
*D10
 70
    1
 10
0
 20
0
  3
*D10
  1

  0
LINE
  5
DE
100
AcDbEntity
  8
dimensions
  6
ByBlock
 62
    0
370
   -2
100
AcDbLine
 10
371.025
 20
-277
 11
378.05
 21
-277
  0
LINE
  5
DF
100
AcDbEntity
  8
dimensions
  6
ByBlock
 62
    0
370
   -2
100
AcDbLine
 10
371.025
 20
-361
 11
378.05
 21
-361
  0
LINE
  5
E0
100
AcDbEntity
  8
dimensions
  6
ByBlock
 62
    0
370
   -2
100
AcDbLine
 10
378
 20
-277
 11
378
 21
-361
  0
MTEXT
  5
E1
100
AcDbEntity
  8
dimensions
  6
CONTINUOUS
 62
    0
370
   -2
100
AcDbMText
 10
375.475
 20
-319
 30
0
 40
5
 41
15.55555555555556
 71
    5
 72
    1
  1
7'-0"
  7
unicode
210
0
220
0
230
1
 50
90
 73
    2
 44
1
  0
LINE
  5
E2
100
AcDbEntity
  8
dimensions
  6
ByBlock
 62
    0
370
   -2
100
AcDbLine
 10
378.7071067811866
 20
-277.7071067811866
 11
377.2928932188134
 21
-276.2928932188134
  0
LINE
  5
E3
100
AcDbEntity
  8
dimensions
  6
ByBlock
 62
    0
370
   -2
100
AcDbLine
 10
378.7071067811866
 20
-361.7071067811866
 11
377.2928932188134
 21
-360.2928932188134
  0
ENDBLK
  5
7A
330
78
100
AcDbEntity
  8
0
100
AcDbBlockEnd
  0
BLOCK
  5
7C
330
7B
100
AcDbEntity
  8
0
100
AcDbBlockBegin
  2
*D1
 70
    1
 10
0
 20
0
  3
*D1
  1

  0
LINE
  5
E4
100
AcDbEntity
  8
dimensions
  6
ByBlock
 62
    0
370
   -2
100
AcDbLine
 10
-5.684188810286573e-14
 20
2.024999999999932
 11
-5.549329035571883e-14
 21
24.05000000000008
  0
LINE
  5
E5
100
AcDbEntity
  8
dimensions
  6
ByBlock
 62
    0
370
   -2
100
AcDbLine
 10
369.0000000000001
 20
2.024999999999859
 11
369.0000000000001
 21
24.05
  0
LINE
  5
E6
100
AcDbEntity
  8
dimensions
  6
ByBlock
 62
    0
370
   -2
100
AcDbLine
 10
-5.549635187160339e-14
 20
24.00000000000007
 11
369.0000000000001
 21
24
  0
MTEXT
  5
E7
100
AcDbEntity
  8
dimensions
  6
CONTINUOUS
 62
    0
370
   -2
100
AcDbMText
 10
184.5
 20
26.52500000000003
 30
0
 40
5
 41
19.44444444444444
 71
    5
 72
    1
  1
30'-9"
  7
unicode
210
0
220
0
230
1
 50
0
 73
    2
 44
1
  0
LINE
  5
E8
100
AcDbEntity
  8
dimensions
  6
ByBlock
 62
    0
370
   -2
100
AcDbLine
 10
0.7071067811864922
 20
24.70710678118662
 11
-0.7071067811866032
 21
23.29289321881353
  0
LINE
  5
E9
100
AcDbEntity
  8
dimensions
  6
ByBlock
 62
    0
370
   -2
100
AcDbLine
 10
369.7071067811867
 20
24.70710678118655
 11
368.2928932188136
 21
23.29289321881345
  0
ENDBLK
  5
7D
330
7B
100
AcDbEntity
  8
0
100
AcDbBlockEnd
  0
BLOCK
  5
7F
330
7E
100
AcDbEntity
  8
0
100
AcDbBlockBegin
  2
*D4
 70
    1
 10
0
 20
0
  3
*D4
  1

  0
LINE
  5
EA
100
AcDbEntity
  8
dimensions
  6
ByBlock
 62
    0
370
   -2
100
AcDbLine
 10
234
 20
-182.025
 11
234
 21
-186.05
  0
LINE
  5
EB
100
AcDbEntity
  8
dimensions
  6
ByBlock
 62
    0
370
   -2
100
AcDbLine
 10
276
 20
-182.025
 11
276
 21
-186.05
  0
LINE
  5
EC
100
AcDbEntity
  8
dimensions
  6
ByBlock
 62
    0
370
   -2
100
AcDbLine
 10
234
 20
-186
 11
276
 21
-186
  0
MTEXT
  5
ED
100
AcDbEntity
  8
dimensions
  6
CONTINUOUS
 62
    0
370
   -2
100
AcDbMText
 10
255
 20
-183.475
 30
0
 40
5
 41
15.55555555555556
 71
    5
 72
    1
  1
3'-6"
  7
unicode
210
0
220
0
230
1
 50
0
 73
    2
 44
1
  0
LINE
  5
EE
100
AcDbEntity
  8
dimensions
  6
ByBlock
 62
    0
370
   -2
100
AcDbLine
 10
234.7071067811866
 20
-185.2928932188134
 11
233.2928932188134
 21
-186.7071067811866
  0
LINE
  5
EF
100
AcDbEntity
  8
dimensions
  6
ByBlock
 62
    0
370
   -2
100
AcDbLine
 10
276.7071067811866
 20
-185.2928932188134
 11
275.2928932188134
 21
-186.7071067811866
  0
ENDBLK
  5
80
330
7E
100
AcDbEntity
  8
0
100
AcDbBlockEnd
  0
BLOCK
  5
82
330
81
100
AcDbEntity
  8
0
100
AcDbBlockBegin
  2
*D15
 70
    1
 10
0
 20
0
  3
*D15
  1

  0
LINE
  5
F0
100
AcDbEntity
  8
dimensions
  6
ByBlock
 62
    0
370
   -2
100
AcDbLine
 10
222.975
 20
-272
 11
215.95
 21
-272
  0
LINE
  5
F1
100
AcDbEntity
  8
dimensions
  6
ByBlock
 62
    0
370
   -2
100
AcDbLine
 10
222.975
 20
-308
 11
215.95
 21
-308
  0
LINE
  5
F2
100
AcDbEntity
  8
dimensions
  6
ByBlock
 62
    0
370
   -2
100
AcDbLine
 10
216
 20
-272
 11
216
 21
-308
  0
MTEXT
  5
F3
100
AcDbEntity
  8
dimensions
  6
CONTINUOUS
 62
    0
370
   -2
100
AcDbMText
 10
213.475
 20
-290
 30
0
 40
5
 41
15.55555555555556
 71
    5
 72
    1
  1
3'-0"
  7
unicode
210
0
220
0
230
1
 50
90
 73
    2
 44
1
  0
LINE
  5
F4
100
AcDbEntity
  8
dimensions
  6
ByBlock
 62
    0
370
   -2
100
AcDbLine
 10
216.7071067811866
 20
-272.7071067811866
 11
215.2928932188134
 21
-271.2928932188134
  0
LINE
  5
F5
100
AcDbEntity
  8
dimensions
  6
ByBlock
 62
    0
370
   -2
100
AcDbLine
 10
216.7071067811866
 20
-308.7071067811866
 11
215.2928932188134
 21
-307.2928932188134
  0
ENDBLK
  5
83
330
81
100
AcDbEntity
  8
0
100
AcDbBlockEnd
  0
BLOCK
  5
85
330
84
100
AcDbEntity
  8
0
100
AcDbBlockBegin
  2
screw
 70
    0
 10
0
 20
0
  3
screw
  1

  0
LINE
  5
F6
100
AcDbEntity
  8
0
  6
CONTINUOUS
 62
    0
370
    0
100
AcDbLine
 10
0.43413
 20
0.3465
 11
2
 21
0.3465
  0
LINE
  5
F7
100
AcDbEntity
  8
0
  6
CONTINUOUS
 62
    0
370
    0
100
AcDbLine
 10
0.425681
 20
-0.3465
 11
2
 21
-0.3465
  0
LINE
  5
F8
100
AcDbEntity
  8
0
  6
CONTINUOUS
 62
    0
370
    0
100
AcDbLine
 10
0
 20
1
 11
0
 21
-1
  0
LINE
  5
F9
100
AcDbEntity
  8
0
  6
CONTINUOUS
 62
    0
370
    0
100
AcDbLine
 10
-0.7
 20
0.938758
 11
0
 21
1
  0
LINE
  5
FA
100
AcDbEntity
  8
0
  6
CONTINUOUS
 62
    0
370
    0
100
AcDbLine
 10
-0.7
 20
-0.938758
 11
0
 21
-1
  0
LINE
  5
FB
100
AcDbEntity
  8
0
  6
CONTINUOUS
 62
    0
370
    0
100
AcDbLine
 10
-0.4
 20
0.125
 11
-0.4
 21
-0.125
  0
LINE
  5
FC
100
AcDbEntity
  8
0
  6
CONTINUOUS
 62
    0
370
    0
100
AcDbLine
 10
-0.7
 20
-0.125
 11
-0.4
 21
-0.125
  0
LINE
  5
FD
100
AcDbEntity
  8
0
  6
CONTINUOUS
 62
    0
370
    0
100
AcDbLine
 10
-0.7
 20
0.125
 11
-0.4
 21
0.125
  0
LINE
  5
FE
100
AcDbEntity
  8
0
  6
CONTINUOUS
 62
    0
370
    0
100
AcDbLine
 10
-0.7
 20
0.938758
 11
-0.7
 21
0.125
  0
LINE
  5
FF
100
AcDbEntity
  8
0
  6
CONTINUOUS
 62
    0
370
    0
100
AcDbLine
 10
-0.7
 20
-0.125
 11
-0.7
 21
-0.938758
  0
ARC
  5
100
100
AcDbEntity
  8
0
  6
CONTINUOUS
 62
    0
370
    0
100
AcDbCircle
 10
0.12
 20
0.42
 40
0.12
100
AcDbArc
 50
180
 51
270
  0
LINE
  5
101
100
AcDbEntity
  8
0
  6
CONTINUOUS
 62
    0
370
    0
100
AcDbLine
 10
0.12
 20
0.3
 11
0.321436
 21
0.3
  0
ARC
  5
102
100
AcDbEntity
  8
0
  6
CONTINUOUS
 62
    0
370
    0
100
AcDbCircle
 10
0.321436
 20
0.42
 40
0.12
100
AcDbArc
 50
270
 51
305
  0
LINE
  5
103
100
AcDbEntity
  8
0
  6
CONTINUOUS
 62
    0
370
    0
100
AcDbLine
 10
0.390265
 20
0.321702
 11
0.6449009999999999
 21
0.5
  0
LINE
  5
104
100
AcDbEntity
  8
0
  6
CONTINUOUS
 62
    0
370
    0
100
AcDbLine
 10
0.6449009999999999
 20
0.5
 11
0.6449009999999999
 21
-0.5
  0
ARC
  5
105
100
AcDbEntity
  8
0
  6
CONTINUOUS
 62
    0
370
    0
100
AcDbCircle
 10
0.12
 20
-0.42
 40
0.12
100
AcDbArc
 50
90
 51
180
  0
LINE
  5
106
100
AcDbEntity
  8
0
  6
CONTINUOUS
 62
    0
370
    0
100
AcDbLine
 10
0.12
 20
-0.3
 11
0.321436
 21
-0.3
  0
ARC
  5
107
100
AcDbEntity
  8
0
  6
CONTINUOUS
 62
    0
370
    0
100
AcDbCircle
 10
0.321436
 20
-0.42
 40
0.12
100
AcDbArc
 50
55
 51
90
  0
LINE
  5
108
100
AcDbEntity
  8
0
  6
CONTINUOUS
 62
    0
370
    0
100
AcDbLine
 10
0.390265
 20
-0.321702
 11
0.6449009999999999
 21
-0.5
  0
LINE
  5
109
100
AcDbEntity
  8
0
  6
CONTINUOUS
 62
    0
370
    0
100
AcDbLine
 10
1.8465
 20
-0.5
 11
0.6449009999999999
 21
-0.5
  0
LINE
  5
10A
100
AcDbEntity
  8
0
  6
CONTINUOUS
 62
    0
370
    0
100
AcDbLine
 10
1.8465
 20
-0.5
 11
2
 21
-0.3465
  0
LINE
  5
10B
100
AcDbEntity
  8
0
  6
CONTINUOUS
 62
    0
370
    0
100
AcDbLine
 10
2
 20
0.3465
 11
2
 21
-0.3465
  0
LINE
  5
10C
100
AcDbEntity
  8
0
  6
CONTINUOUS
 62
    0
370
    0
100
AcDbLine
 10
1.8465
 20
0.5
 11
2
 21
0.3465
  0
LINE
  5
10D
100
AcDbEntity
  8
0
  6
CONTINUOUS
 62
    0
370
    0
100
AcDbLine
 10
0.6449009999999999
 20
0.5
 11
1.8465
 21
0.5
  0
LINE
  5
10E
100
AcDbEntity
  8
0
  6
CONTINUOUS
 62
    0
370
    0
100
AcDbLine
 10
1.8465
 20
0.5
 11
1.8465
 21
-0.5
  0
ENDBLK
  5
86
330
84
100
AcDbEntity
  8
0
100
AcDbBlockEnd
  0
BLOCK
  5
88
330
87
100
AcDbEntity
  8
0
100
AcDbBlockBegin
  2
tux
 70
    0
 10
0
 20
0
  3
tux
  1

  0
ARC
  5
10F
100
AcDbEntity
  8
0
  6
CONTINUOUS
 62
    0
370
    0
100
AcDbCircle
 10
12.727015
 20
26.404627
 40
3.931872
100
AcDbArc
 50
105.141426
 51
177.151825
  0
ARC
  5
110
100
AcDbEntity
  8
0
  6
CONTINUOUS
 62
    0
370
    0
100
AcDbCircle
 10
12.877937
 20
25.504308
 40
4.841184
100
AcDbArc
 50
39.750774
 51
104.082336
  0
ARC
  5
111
100
AcDbEntity
  8
0
  6
CONTINUOUS
 62
    0
370
    0
100
AcDbCircle
 10
8.204839
 20
23.946774
 40
9.598502
100
AcDbArc
 50
1.511741
 51
28.998495
  0
ARC
  5
112
100
AcDbEntity
  8
0
  6
CONTINUOUS
 62
    0
370
    0
100
AcDbCircle
 10
21.393749
 20
23.31875
 40
3.700222
100
AcDbArc
 50
166.221954
 51
199.230667
  0
ARC
  5
113
100
AcDbEntity
  8
0
  6
CONTINUOUS
 62
    0
370
    0
100
AcDbCircle
 10
28.341782
 20
24.829452
 40
10.792622
100
AcDbArc
 50
194.64917
 51
215.906265
  0
ARC
  5
114
100
AcDbEntity
  8
0
  6
CONTINUOUS
 62
    0
370
    0
100
AcDbCircle
 10
14.31
 20
11.81
 40
8.528786999999999
100
AcDbArc
 50
27.135887
 51
51.665436
  0
ARC
  5
115
100
AcDbEntity
  8
0
  6
CONTINUOUS
 62
    0
370
    0
100
AcDbCircle
 10
10.25
 20
10.75
 40
12.658001
100
AcDbArc
 50
7.489953
 51
23.020285
  0
ARC
  5
116
100
AcDbEntity
  8
0
  6
CONTINUOUS
 62
    0
370
    0
100
AcDbCircle
 10
18.777632
 20
11.196382
 40
4.198588
100
AcDbArc
 50
310.421143
 51
16.658829
  0
ARC
  5
117
100
AcDbEntity
  8
0
  6
CONTINUOUS
 62
    0
370
    0
100
AcDbCircle
 10
20.40366
 20
9.430488
 40
1.802293
100
AcDbArc
 50
218.847504
 51
307.466949
  0
ARC
  5
118
100
AcDbEntity
  8
0
  6
CONTINUOUS
 62
    0
370
    0
100
AcDbCircle
 10
20.632561
 20
8.701226
 40
1.681142
100
AcDbArc
 50
50.583836
 51
193.807632
  0
ARC
  5
119
100
AcDbEntity
  8
0
  6
CONTINUOUS
 62
    0
370
    0
100
AcDbCircle
 10
25.43125
 20
8.2875
 40
2.348911
100
AcDbArc
 50
187.030472
 51
222.519806
  0
ARC
  5
11A
100
AcDbEntity
  8
0
  6
CONTINUOUS
 62
    0
370
    0
100
AcDbCircle
 10
28.475
 20
11.5625
 40
6.815022
100
AcDbArc
 50
225.520187
 51
239.342636
  0
ARC
  5
11B
100
AcDbEntity
  8
0
  6
CONTINUOUS
 62
    0
370
    0
100
AcDbCircle
 10
24.637501
 20
5
 40
0.788293
100
AcDbArc
 50
297.377716
 51
62.622295
  0
ARC
  5
11C
100
AcDbEntity
  8
0
  6
CONTINUOUS
 62
    0
370
    0
100
AcDbCircle
 10
27.612499
 20
-5.518749
 40
9.784133000000001
100
AcDbArc
 50
119.463425
 51
136.630661
  0
ARC
  5
11D
100
AcDbEntity
  8
0
  6
CONTINUOUS
 62
    0
370
    0
100
AcDbCircle
 10
18.957018
 20
2.899123
 40
2.295172
100
AcDbArc
 50
211.49704
 51
312.242767
  0
ARC
  5
11E
100
AcDbEntity
  8
0
  6
CONTINUOUS
 62
    0
370
    0
100
AcDbCircle
 10
20.77676
 20
2.966901
 40
3.983586
100
AcDbArc
 50
157.365326
 51
198.543854
  0
ARC
  5
11F
100
AcDbEntity
  8
0
  6
CONTINUOUS
 62
    0
370
    0
100
AcDbCircle
 10
3.2
 20
7.2
 40
14.159802
100
AcDbArc
 50
349.007477
 51
5.267697
  0
ARC
  5
120
100
AcDbEntity
  8
0
  6
CONTINUOUS
 62
    0
370
    0
100
AcDbCircle
 10
17.85
 20
8.85
 40
0.6519200000000001
100
AcDbArc
 50
57.52880900000001
 51
212.471191
  0
ARC
  5
121
100
AcDbEntity
  8
0
  6
CONTINUOUS
 62
    0
370
    0
100
AcDbCircle
 10
6.05
 20
6.35
 40
5.09166
100
AcDbArc
 50
162.276764
 51
187.334381
  0
ARC
  5
122
100
AcDbEntity
  8
0
  6
CONTINUOUS
 62
    0
370
    0
100
AcDbCircle
 10
4.883766
 20
8.975974000000001
 40
1.027446
100
AcDbArc
 50
37.398586
 51
149.334335
  0
ARC
  5
123
100
AcDbEntity
  8
0
  6
CONTINUOUS
 62
    0
370
    0
100
AcDbCircle
 10
-12.5
 20
-6
 40
23.970816
100
AcDbArc
 50
26.778839
 51
40.601295
  0
ARC
  5
124
100
AcDbEntity
  8
0
  6
CONTINUOUS
 62
    0
370
    0
100
AcDbCircle
 10
7.759524
 20
2.888095
 40
2.226222
100
AcDbArc
 50
321.426331
 51
59.183372
  0
ARC
  5
125
100
AcDbEntity
  8
0
  6
CONTINUOUS
 62
    0
370
    0
100
AcDbCircle
 10
7.840476
 20
2.819048
 40
2.119883
100
AcDbArc
 50
234.185532
 51
321.521088
  0
ARC
  5
126
100
AcDbEntity
  8
0
  6
CONTINUOUS
 62
    0
370
    0
100
AcDbCircle
 10
10.525
 20
8.1875
 40
7.197276
100
AcDbArc
 50
140.143463
 51
156.997406
  0
ARC
  5
127
100
AcDbEntity
  8
0
  6
CONTINUOUS
 62
    0
370
    0
100
AcDbCircle
 10
-3.8
 20
16.930769
 40
9.721278
100
AcDbArc
 50
334.85437
 51
350.940155
  0
ARC
  5
128
100
AcDbEntity
  8
0
  6
CONTINUOUS
 62
    0
370
    0
100
AcDbCircle
 10
10.541667
 20
14.083333
 40
4.921079
100
AcDbArc
 50
136.02916
 51
164.481079
  0
ARC
  5
129
100
AcDbEntity
  8
0
  6
CONTINUOUS
 62
    0
370
    0
100
AcDbCircle
 10
-2
 20
26.016667
 40
12.390868
100
AcDbArc
 50
316.580536
 51
328.811554
  0
ARC
  5
12A
100
AcDbEntity
  8
0
  6
CONTINUOUS
 62
    0
370
    0
100
AcDbCircle
 10
6.4375
 20
21.1
 40
2.631807
100
AcDbArc
 50
325.253204
 51
13.178191
  0
ARC
  5
12B
100
AcDbEntity
  8
0
  6
CONTINUOUS
 62
    0
370
    0
100
AcDbCircle
 10
1481.349976
 20
84.25
 40
1473.678101
100
AcDbArc
 50
182.241974
 51
182.432632
  0
ARC
  5
12C
100
AcDbEntity
  8
0
  6
CONTINUOUS
 62
    0
370
    0
100
AcDbCircle
 10
11.572222
 20
10.527778
 40
7.119097
100
AcDbArc
 50
289.085358
 51
323.568298
  0
ARC
  5
12D
100
AcDbEntity
  8
0
  6
CONTINUOUS
 62
    0
370
    0
100
AcDbCircle
 10
27.143257
 20
30.218538
 40
29.124475
100
AcDbArc
 50
220.509583
 51
232.218262
  0
ARC
  5
12E
100
AcDbEntity
  8
0
  6
CONTINUOUS
 62
    0
370
    0
100
AcDbCircle
 10
15.85
 20
12.25
 40
4.756574
100
AcDbArc
 50
3.012788
 51
56.142891
  0
ARC
  5
12F
100
AcDbEntity
  8
0
  6
CONTINUOUS
 62
    0
370
    0
100
AcDbCircle
 10
10.6
 20
20.4
 40
1
100
AcDbArc
 50
143.130096
 51
216.869904
  0
ARC
  5
130
100
AcDbEntity
  8
0
  6
CONTINUOUS
 62
    0
370
    0
100
AcDbCircle
 10
18.902382
 20
12.683333
 40
11.554232
100
AcDbArc
 50
141.980042
 51
155.362579
  0
ARC
  5
131
100
AcDbEntity
  8
0
  6
CONTINUOUS
 62
    0
370
    0
100
AcDbCircle
 10
9.300000000000001
 20
16.85
 40
1.11018
100
AcDbArc
 50
144.162354
 51
215.837646
  0
ARC
  5
132
100
AcDbEntity
  8
0
  6
CONTINUOUS
 62
    0
370
    0
100
AcDbCircle
 10
13.725
 20
10.925
 40
7.495415
100
AcDbArc
 50
135.270264
 51
187.859848
  0
ARC
  5
133
100
AcDbEntity
  8
0
  6
CONTINUOUS
 62
    0
370
    0
100
AcDbCircle
 10
7.194444
 20
14.627778
 40
10.198078
100
AcDbArc
 50
11.150778
 51
32.452042
  0
ARC
  5
134
100
AcDbEntity
  8
0
  6
CONTINUOUS
 62
    0
370
    0
100
AcDbCircle
 10
15.15
 20
20.4
 40
0.7158910000000001
100
AcDbArc
 50
335.224854
 51
77.905243
  0
ARC
  5
135
100
AcDbEntity
  8
0
  6
CONTINUOUS
 62
    0
370
    0
100
AcDbCircle
 10
32.492105
 20
10.623684
 40
21.895338
100
AcDbArc
 50
172.187378
 51
185.56601
  0
ARC
  5
136
100
AcDbEntity
  8
0
  6
CONTINUOUS
 62
    0
370
    0
100
AcDbCircle
 10
12.872414
 20
9.696552000000001
 40
6.951612
100
AcDbArc
 50
44.859322
 51
78.149399
  0
ARC
  5
137
100
AcDbEntity
  8
0
  6
CONTINUOUS
 62
    0
370
    0
100
AcDbCircle
 10
16.96
 20
7.94
 40
8.963772000000001
100
AcDbArc
 50
91.662132
 51
107.262512
  0
ARC
  5
138
100
AcDbEntity
  8
0
  6
CONTINUOUS
 62
    0
370
    0
100
AcDbCircle
 10
10.455556
 20
24.883333
 40
0.951623
100
AcDbArc
 50
7.042039
 51
154.03331
  0
ARC
  5
139
100
AcDbEntity
  8
0
  6
CONTINUOUS
 62
    0
370
    0
100
AcDbCircle
 10
9.797368000000001
 20
17.889474
 40
1.293552
100
AcDbArc
 50
202.234314
 51
274.55069
  0
ARC
  5
13A
100
AcDbEntity
  8
0
  6
CONTINUOUS
 62
    0
370
    0
100
AcDbCircle
 10
15.05
 20
3.8
 40
13.797192
100
AcDbArc
 50
111.917084
 51
121.21302
  0
ARC
  5
13B
100
AcDbEntity
  8
0
  6
CONTINUOUS
 62
    0
370
    0
100
AcDbCircle
 10
9.069469
 20
6.360619
 40
0.870462
100
AcDbArc
 50
278.624359
 51
74.6427
  0
ARC
  5
13C
100
AcDbEntity
  8
0
  6
CONTINUOUS
 62
    0
370
    0
100
AcDbCircle
 10
4.983333
 20
10.5
 40
1.193152
100
AcDbArc
 50
155.224854
 51
224.077087
  0
ARC
  5
13D
100
AcDbEntity
  8
0
  6
CONTINUOUS
 62
    0
370
    0
100
AcDbCircle
 10
-0.926087
 20
5.030435
 40
2.039149
100
AcDbArc
 50
314.263245
 51
19.168976
  0
ARC
  5
13E
100
AcDbEntity
  8
0
  6
CONTINUOUS
 62
    0
370
    0
100
AcDbCircle
 10
1.185714
 20
3.4
 40
0.709268
100
AcDbArc
 50
166.12233
 51
279.272614
  0
ARC
  5
13F
100
AcDbEntity
  8
0
  6
CONTINUOUS
 62
    0
370
    0
100
AcDbCircle
 10
15.269231
 20
38.85
 40
38.755154
100
AcDbArc
 50
248.872269
 51
256.922272
  0
ARC
  5
140
100
AcDbEntity
  8
0
  6
CONTINUOUS
 62
    0
370
    0
100
AcDbCircle
 10
2.771429
 20
9.507142999999999
 40
1.228592
100
AcDbArc
 50
261.565582
 51
359.666901
  0
ARC
  5
141
100
AcDbEntity
  8
0
  6
CONTINUOUS
 62
    0
370
    0
100
AcDbCircle
 10
2.839474
 20
4.744737
 40
3.555778
100
AcDbArc
 50
94.003441
 51
117.456375
  0
ARC
  5
142
100
AcDbEntity
  8
0
  6
CONTINUOUS
 62
    0
370
    0
100
AcDbCircle
 10
13.4
 20
-13.1625
 40
15.463793
100
AcDbArc
 50
76.918594
 51
103.712036
  0
ARC
  5
143
100
AcDbEntity
  8
0
  6
CONTINUOUS
 62
    0
370
    0
100
AcDbCircle
 10
12.100943
 20
9.04434
 40
5.54434
100
AcDbArc
 50
243.687195
 51
288.934387
  0
ARC
  5
144
100
AcDbEntity
  8
0
  6
CONTINUOUS
 62
    0
370
    0
100
AcDbCircle
 10
21.924999
 20
8.324999999999999
 40
1.219119
100
AcDbArc
 50
344.538788
 51
58.77594800000001
  0
ARC
  5
145
100
AcDbEntity
  8
0
  6
CONTINUOUS
 62
    0
370
    0
100
AcDbCircle
 10
11.6875
 20
13.36875
 40
8.954741
100
AcDbArc
 50
339.926117
 51
354.432648
  0
ARC
  5
146
100
AcDbEntity
  8
0
  6
CONTINUOUS
 62
    0
370
    0
100
AcDbCircle
 10
10.674468
 20
11.73617
 40
8.13876
100
AcDbArc
 50
341.889526
 51
36.699142
  0
ARC
  5
147
100
AcDbEntity
  8
0
  6
CONTINUOUS
 62
    0
370
    0
100
AcDbCircle
 10
19.23476
 20
10.310894
 40
1.37857
100
AcDbArc
 50
221.3573
 51
258.974304
  0
ARC
  5
148
100
AcDbEntity
  8
0
  6
CONTINUOUS
 62
    0
370
    0
100
AcDbCircle
 10
11.869565
 20
11.278261
 40
6.369602
100
AcDbArc
 50
138.486633
 51
185.200317
  0
ARC
  5
149
100
AcDbEntity
  8
0
  6
CONTINUOUS
 62
    0
370
    0
100
AcDbCircle
 10
13.670968
 20
24.309677
 40
1.938398
100
AcDbArc
 50
311.96637
 51
62.02845800000001
  0
ARC
  5
14A
100
AcDbEntity
  8
0
  6
CONTINUOUS
 62
    0
370
    0
100
AcDbCircle
 10
12.1
 20
22.7
 40
1.204159
100
AcDbArc
 50
30.362411
 51
138.366455
  0
ARC
  5
14B
100
AcDbEntity
  8
0
  6
CONTINUOUS
 62
    0
370
    0
100
AcDbCircle
 10
10.383333
 20
21.797619
 40
0.988167
100
AcDbArc
 50
116.205345
 51
233.820374
  0
ARC
  5
14C
100
AcDbEntity
  8
0
  6
CONTINUOUS
 62
    0
370
    0
100
AcDbCircle
 10
12.375
 20
20.325
 40
3.385447
100
AcDbArc
 50
110.308441
 51
135.823502
  0
ARC
  5
14D
100
AcDbEntity
  8
0
  6
CONTINUOUS
 62
    0
370
    0
100
AcDbCircle
 10
9.35
 20
24.65
 40
2.079663
100
AcDbArc
 50
324.260376
 51
9.688787
  0
ARC
  5
14E
100
AcDbEntity
  8
0
  6
CONTINUOUS
 62
    0
370
    0
100
AcDbCircle
 10
12.480625
 20
24.056663
 40
3.137497
100
AcDbArc
 50
156.653992
 51
208.87178
  0
ARC
  5
14F
100
AcDbEntity
  8
0
  6
CONTINUOUS
 62
    0
370
    0
100
AcDbCircle
 10
13.217642
 20
19.648994
 40
3.660514
100
AcDbArc
 50
62.638962
 51
91.23098
  0
ARC
  5
150
100
AcDbEntity
  8
0
  6
CONTINUOUS
 62
    0
370
    0
100
AcDbCircle
 10
15.264609
 20
24.871906
 40
2.582419
100
AcDbArc
 50
188.835068
 51
217.230103
  0
ARC
  5
151
100
AcDbEntity
  8
0
  6
CONTINUOUS
 62
    0
370
    0
100
AcDbCircle
 10
14.115116
 20
24.682558
 40
1.417522
100
AcDbArc
 50
70.849289
 51
190.29921
  0
ARC
  5
152
100
AcDbEntity
  8
0
  6
CONTINUOUS
 62
    0
370
    0
100
AcDbCircle
 10
10.31601
 20
24.450404
 40
0.3
100
AcDbArc
 50
63.315994
 51
150.122559
  0
ARC
  5
153
100
AcDbEntity
  8
0
  6
CONTINUOUS
 62
    0
370
    0
100
AcDbCircle
 10
10.057895
 20
23.936842
 40
0.874777
100
AcDbArc
 50
344.291351
 51
63.315994
  0
ARC
  5
154
100
AcDbEntity
  8
0
  6
CONTINUOUS
 62
    0
370
    0
100
AcDbCircle
 10
11.1
 20
24
 40
1.204159
100
AcDbArc
 50
150.122559
 51
232.263321
  0
ARC
  5
155
100
AcDbEntity
  8
0
  6
CONTINUOUS
 62
    0
370
    0
100
AcDbCircle
 10
14.212873
 20
24.585545
 40
0.3
100
AcDbArc
 50
46.369446
 51
103.180428
  0
ARC
  5
156
100
AcDbEntity
  8
0
  6
CONTINUOUS
 62
    0
370
    0
100
AcDbCircle
 10
14.35
 20
24
 40
0.901388
100
AcDbArc
 50
103.180428
 51
235.625168
  0
ARC
  5
157
100
AcDbEntity
  8
0
  6
CONTINUOUS
 62
    0
370
    0
100
AcDbCircle
 10
13.75
 20
24.1
 40
0.970824
100
AcDbArc
 50
291.832794
 51
46.369446
  0
ARC
  5
158
100
AcDbEntity
  8
0
  6
CONTINUOUS
 62
    0
370
    0
100
AcDbCircle
 10
14.945522
 20
21.459683
 40
0.3
100
AcDbArc
 50
294.032593
 51
308.966309
  0
ARC
  5
159
100
AcDbEntity
  8
0
  6
CONTINUOUS
 62
    0
370
    0
100
AcDbCircle
 10
14.514286
 20
21.992857
 40
0.9857399999999999
100
AcDbArc
 50
308.966309
 51
66.964958
  0
ARC
  5
15A
100
AcDbEntity
  8
0
  6
CONTINUOUS
 62
    0
370
    0
100
AcDbCircle
 10
10.987847
 20
21.089974
 40
0.3
100
AcDbArc
 50
244.809341
 51
261.619019
  0
ARC
  5
15B
100
AcDbEntity
  8
0
  6
CONTINUOUS
 62
    0
370
    0
100
AcDbCircle
 10
12.786364
 20
24.913636
 40
4.525524
100
AcDbArc
 50
225.244156
 51
244.809341
  0
ARC
  5
15C
100
AcDbEntity
  8
0
  6
CONTINUOUS
 62
    0
370
    0
100
AcDbCircle
 10
13.130515
 20
20.928682
 40
0.3
100
AcDbArc
 50
110.92012
 51
120.32196
  0
ARC
  5
15D
100
AcDbEntity
  8
0
  6
CONTINUOUS
 62
    0
370
    0
100
AcDbCircle
 10
11.4
 20
23.8875
 40
3.127724
100
AcDbArc
 50
261.619019
 51
300.32196
  0
ARC
  5
15E
100
AcDbEntity
  8
0
  6
CONTINUOUS
 62
    0
370
    0
100
AcDbCircle
 10
9.878571000000001
 20
29.435715
 40
8.807401
100
AcDbArc
 50
290.920135
 51
304.759796
  0
ARC
  5
15F
100
AcDbEntity
  8
0
  6
CONTINUOUS
 62
    0
370
    0
100
AcDbCircle
 10
11.379521
 20
20.788561
 40
1
100
AcDbArc
 50
218.746292
 51
251.565079
  0
ARC
  5
160
100
AcDbEntity
  8
0
  6
CONTINUOUS
 62
    0
370
    0
100
AcDbCircle
 10
11.95
 20
22.5
 40
2.804015
100
AcDbArc
 50
251.565079
 51
291.991119
  0
ARC
  5
161
100
AcDbEntity
  8
0
  6
CONTINUOUS
 62
    0
370
    0
100
AcDbCircle
 10
5.35
 20
15.95
 40
6.730899
100
AcDbArc
 50
38.746292
 51
48.61388
  0
ARC
  5
162
100
AcDbEntity
  8
0
  6
CONTINUOUS
 62
    0
370
    0
100
AcDbCircle
 10
18.999159
 20
12.557426
 40
9.481733999999999
100
AcDbArc
 50
114.49633
 51
129.250107
  0
ARC
  5
163
100
AcDbEntity
  8
0
  6
CONTINUOUS
 62
    0
370
    0
100
AcDbCircle
 10
8.943042
 20
9.193163999999999
 40
3.702093
100
AcDbArc
 50
263.500458
 51
273.980042
  0
ARC
  5
164
100
AcDbEntity
  8
0
  6
CONTINUOUS
 62
    0
370
    0
100
AcDbCircle
 10
28.940781
 20
-4.880551
 40
9.990608999999999
100
AcDbArc
 50
113.231583
 51
127.926872
  0
ARC
  5
165
100
AcDbEntity
  8
0
  6
CONTINUOUS
 62
    0
370
    0
100
AcDbCircle
 10
9.106971
 20
23.999931
 40
1.817941
100
AcDbArc
 50
337.953156
 51
350.503693
  0
ENDBLK
  5
89
330
87
100
AcDbEntity
  8
0
100
AcDbBlockEnd
  0
BLOCK
  5
8B
330
8A
100
AcDbEntity
  8
0
100
AcDbBlockBegin
  2
Kitchen-fridge-V
 70
    0
 10
0
 20
0
  3
Kitchen-fridge-V
  1

  0
ENDBLK
  5
8C
330
8A
100
AcDbEntity
  8
0
100
AcDbBlockEnd
  0
BLOCK
  5
8E
330
8D
100
AcDbEntity
  8
0
100
AcDbBlockBegin
  2
Kitchen-sink-E
 70
    0
 10
0
 20
0
  3
Kitchen-sink-E
  1

  0
ENDBLK
  5
8F
330
8D
100
AcDbEntity
  8
0
100
AcDbBlockEnd
  0
BLOCK
  5
91
330
90
100
AcDbEntity
  8
0
100
AcDbBlockBegin
  2
Bathroom-sink-E
 70
    0
 10
0
 20
0
  3
Bathroom-sink-E
  1

  0
LINE
  5
166
100
AcDbEntity
  8
Block furniture
  6
ByLayer
 62
  136
420
32896
370
   -1
100
AcDbLine
 10
-12.59842519685039
 20
0
 11
12.59842519685039
 21
0
  0
LINE
  5
167
100
AcDbEntity
  8
Block furniture
  6
ByLayer
 62
  136
420
32896
370
   -1
100
AcDbLine
 10
12.59842519685039
 20
0
 11
12.59842519685039
 21
-18.11023622047244
  0
LINE
  5
168
100
AcDbEntity
  8
Block furniture
  6
ByLayer
 62
  136
420
32896
370
   -1
100
AcDbLine
 10
11.41732283464567
 20
-19.29133858267717
 11
-11.41732283464567
 21
-19.29133858267717
  0
ARC
  5
169
100
AcDbEntity
  8
Block furniture
  6
ByLayer
 62
  136
420
32896
370
   -1
100
AcDbCircle
 10
-11.41732283464567
 20
-18.11023622047244
 40
1.181102362204724
100
AcDbArc
 50
180
 51
270
  0
ARC
  5
16A
100
AcDbEntity
  8
Block furniture
  6
ByLayer
 62
  136
420
32896
370
   -1
100
AcDbCircle
 10
11.41732283464567
 20
-18.11023622047244
 40
1.181102362204724
100
AcDbArc
 50
270
 51
0
  0
LINE
  5
16B
100
AcDbEntity
  8
Block furniture
  6
ByLayer
 62
  136
420
32896
370
   -1
100
AcDbLine
 10
-12.59842519685039
 20
-18.11023622047244
 11
-12.59842519685039
 21
0
  0
LINE
  5
16C
100
AcDbEntity
  8
Block furniture
  6
ByLayer
 62
  136
420
32896
370
   -1
100
AcDbLine
 10
-11.41732283464567
 20
-1.181102362204724
 11
11.41732283464567
 21
-1.181102362204724
  0
LINE
  5
16D
100
AcDbEntity
  8
Block furniture
  6
ByLayer
 62
  136
420
32896
370
   -1
100
AcDbLine
 10
-7.283464566929133
 20
-4.724409448818897
 11
7.283464566929133
 21
-4.724409448818897
  0
ARC
  5
16E
100
AcDbEntity
  8
Block furniture
  6
ByLayer
 62
  136
420
32896
370
   -1
100
AcDbCircle
 10
7.283464566929133
 20
-6.692913385826771
 40
1.968503937007874
100
AcDbArc
 50
0
 51
90
  0
LINE
  5
16F
100
AcDbEntity
  8
Block furniture
  6
ByLayer
 62
  136
420
32896
370
   -1
100
AcDbLine
 10
-12.59842519685039
 20
-7.874015748031496
 11
-12.59842519685039
 21
-7.874015748031496
  0
ARC
  5
170
100
AcDbEntity
  8
Block furniture
  6
ByLayer
 62
  136
420
32896
370
   -1
100
AcDbCircle
 10
-12.59842519685039
 20
-6.692913385826771
 40
1.181102362204724
100
AcDbArc
 50
270
 51
0
  0
LINE
  5
171
100
AcDbEntity
  8
Block furniture
  6
ByLayer
 62
  136
420
32896
370
   -1
100
AcDbLine
 10
11.41732283464567
 20
-1.181102362204724
 11
11.41732283464567
 21
-6.692913385826771
  0
LINE
  5
172
100
AcDbEntity
  8
Block furniture
  6
ByLayer
 62
  136
420
32896
370
   -1
100
AcDbLine
 10
-11.41732283464567
 20
-6.692913385826771
 11
-11.41732283464567
 21
-1.181102362204724
  0
CIRCLE
  5
173
100
AcDbEntity
  8
Block furniture
  6
ByLayer
 62
  136
420
32896
370
   -1
100
AcDbCircle
 10
0
 20
-6.692913385826771
 40
0.984251968503937
  0
ARC
  5
174
100
AcDbEntity
  8
Block furniture
  6
ByLayer
 62
  136
420
32896
370
   -1
100
AcDbCircle
 10
12.59842519685039
 20
-6.692913385826771
 40
1.181102362204724
100
AcDbArc
 50
180
 51
270
  0
LINE
  5
175
100
AcDbEntity
  8
Block furniture
  6
ByLayer
 62
  136
420
32896
370
   -1
100
AcDbLine
 10
-5.31496062992126
 20
-16.53543307086614
 11
5.31496062992126
 21
-16.53543307086614
  0
ARC
  5
176
100
AcDbEntity
  8
Block furniture
  6
ByLayer
 62
  136
420
32896
370
   -1
100
AcDbCircle
 10
5.31496062992126
 20
-12.59842519685039
 40
3.937007874015748
100
AcDbArc
 50
270
 51
0
  0
ARC
  5
177
100
AcDbEntity
  8
Block furniture
  6
ByLayer
 62
  136
420
32896
370
   -1
100
AcDbCircle
 10
-5.31496062992126
 20
-12.59842519685039
 40
3.937007874015748
100
AcDbArc
 50
180
 51
270
  0
LINE
  5
178
100
AcDbEntity
  8
Block furniture
  6
ByLayer
 62
  136
420
32896
370
   -1
100
AcDbLine
 10
9.251968503937007
 20
-6.692913385826771
 11
9.251968503937007
 21
-12.59842519685039
  0
LINE
  5
179
100
AcDbEntity
  8
Block furniture
  6
ByLayer
 62
  136
420
32896
370
   -1
100
AcDbLine
 10
-9.251968503937007
 20
-12.59842519685039
 11
-9.251968503937007
 21
-6.692913385826771
  0
ARC
  5
17A
100
AcDbEntity
  8
Block furniture
  6
ByLayer
 62
  136
420
32896
370
   -1
100
AcDbCircle
 10
-7.283464566929133
 20
-6.692913385826771
 40
1.968503937007874
100
AcDbArc
 50
90
 51
180
  0
ENDBLK
  5
92
330
90
100
AcDbEntity
  8
0
100
AcDbBlockEnd
  0
BLOCK
  5
94
330
93
100
AcDbEntity
  8
0
100
AcDbBlockBegin
  2
Chair-sofa-E
 70
    0
 10
0
 20
0
  3
Chair-sofa-E
  1

  0
LINE
  5
17B
100
AcDbEntity
  8
Block furniture
  6
ByLayer
 62
  256
370
   -1
100
AcDbLine
 10
-41.33858267716536
 20
0
 11
41.33858267716536
 21
0
  0
LINE
  5
17C
100
AcDbEntity
  8
Block furniture
  6
ByLayer
 62
  256
370
   -1
100
AcDbLine
 10
41.33858267716536
 20
0
 11
41.33858267716536
 21
-25.59055118110236
  0
LINE
  5
17D
100
AcDbEntity
  8
Block furniture
  6
ByLayer
 62
  256
370
   -1
100
AcDbLine
 10
35.43307086614173
 20
-31.49606299212599
 11
35.43307086614173
 21
-31.49606299212599
  0
ARC
  5
17E
100
AcDbEntity
  8
Block furniture
  6
ByLayer
 62
  256
370
   -1
100
AcDbCircle
 10
35.43307086614173
 20
-25.59055118110236
 40
5.905511811023622
100
AcDbArc
 50
180
 51
270
  0
ARC
  5
17F
100
AcDbEntity
  8
Block furniture
  6
ByLayer
 62
  256
370
   -1
100
AcDbCircle
 10
35.43307086614173
 20
-25.59055118110236
 40
5.905511811023622
100
AcDbArc
 50
270
 51
0
  0
LINE
  5
180
100
AcDbEntity
  8
Block furniture
  6
ByLayer
 62
  256
370
   -1
100
AcDbLine
 10
-41.33858267716536
 20
-25.59055118110236
 11
-41.33858267716536
 21
0
  0
LINE
  5
181
100
AcDbEntity
  8
Block furniture
  6
ByLayer
 62
  256
370
   -1
100
AcDbLine
 10
-35.43307086614173
 20
-31.49606299212599
 11
-35.43307086614173
 21
-31.49606299212599
  0
ARC
  5
182
100
AcDbEntity
  8
Block furniture
  6
ByLayer
 62
  256
370
   -1
100
AcDbCircle
 10
-35.43307086614173
 20
-25.59055118110236
 40
5.905511811023622
100
AcDbArc
 50
180
 51
270
  0
LINE
  5
183
100
AcDbEntity
  8
Block furniture
  6
ByLayer
 62
  256
370
   -1
100
AcDbLine
 10
-29.52755905511811
 20
-25.59055118110236
 11
-29.52755905511811
 21
-11.81102362204724
  0
ARC
  5
184
100
AcDbEntity
  8
Block furniture
  6
ByLayer
 62
  256
370
   -1
100
AcDbCircle
 10
-25.59055118110236
 20
-11.81102362204724
 40
3.937007874015748
100
AcDbArc
 50
90
 51
180
  0
ARC
  5
185
100
AcDbEntity
  8
Block furniture
  6
ByLayer
 62
  256
370
   -1
100
AcDbCircle
 10
-35.43307086614173
 20
-25.59055118110236
 40
5.905511811023622
100
AcDbArc
 50
270
 51
0
  0
LINE
  5
186
100
AcDbEntity
  8
Block furniture
  6
ByLayer
 62
  256
370
   -1
100
AcDbLine
 10
-25.59055118110236
 20
-7.874015748031496
 11
25.59055118110236
 21
-7.874015748031496
  0
LINE
  5
187
100
AcDbEntity
  8
Block furniture
  6
ByLayer
 62
  256
370
   -1
100
AcDbLine
 10
29.52755905511811
 20
-11.81102362204724
 11
29.52755905511811
 21
-25.59055118110236
  0
ARC
  5
188
100
AcDbEntity
  8
Block furniture
  6
ByLayer
 62
  256
370
   -1
100
AcDbCircle
 10
25.59055118110236
 20
-11.81102362204724
 40
3.937007874015748
100
AcDbArc
 50
0
 51
90
  0
LINE
  5
189
100
AcDbEntity
  8
Block furniture
  6
ByLayer
 62
  256
370
   -1
100
AcDbLine
 10
-35.43307086614173
 20
-31.49606299212599
 11
35.43307086614173
 21
-31.49606299212599
  0
LINE
  5
18A
100
AcDbEntity
  8
Block furniture
  6
ByLayer
 62
  256
370
   -1
100
AcDbLine
 10
-9.84251968503937
 20
-31.49606299212599
 11
-9.84251968503937
 21
-7.874015748031496
  0
LINE
  5
18B
100
AcDbEntity
  8
Block furniture
  6
ByLayer
 62
  256
370
   -1
100
AcDbLine
 10
9.84251968503937
 20
-31.49606299212599
 11
9.84251968503937
 21
-7.874015748031496
  0
ENDBLK
  5
95
330
93
100
AcDbEntity
  8
0
100
AcDbBlockEnd
  0
BLOCK
  5
97
330
96
100
AcDbEntity
  8
0
100
AcDbBlockBegin
  2
Table-dining-E
 70
    0
 10
0
 20
0
  3
Table-dining-E
  1

  0
LINE
  5
18C
100
AcDbEntity
  8
Block furniture
  6
ByLayer
 62
  136
420
32896
370
   -1
100
AcDbLine
 10
-21.65354330708661
 20
0
 11
21.65354330708661
 21
0
  0
LINE
  5
18D
100
AcDbEntity
  8
Block furniture
  6
ByLayer
 62
  136
420
32896
370
   -1
100
AcDbLine
 10
29.52755905511811
 20
-7.874015748031496
 11
29.52755905511811
 21
-27.55905511811024
  0
ARC
  5
18E
100
AcDbEntity
  8
Block furniture
  6
ByLayer
 62
  136
420
32896
370
   -1
100
AcDbCircle
 10
21.65354330708661
 20
-7.874015748031496
 40
7.874015748031496
100
AcDbArc
 50
0
 51
90
  0
LINE
  5
18F
100
AcDbEntity
  8
Block furniture
  6
ByLayer
 62
  136
420
32896
370
   -1
100
AcDbLine
 10
21.65354330708661
 20
-35.43307086614173
 11
-21.65354330708661
 21
-35.43307086614173
  0
ARC
  5
190
100
AcDbEntity
  8
Block furniture
  6
ByLayer
 62
  136
420
32896
370
   -1
100
AcDbCircle
 10
21.65354330708661
 20
-27.55905511811024
 40
7.874015748031496
100
AcDbArc
 50
270
 51
0
  0
ARC
  5
191
100
AcDbEntity
  8
Block furniture
  6
ByLayer
 62
  136
420
32896
370
   -1
100
AcDbCircle
 10
-21.65354330708661
 20
-27.55905511811024
 40
7.874015748031496
100
AcDbArc
 50
180
 51
270
  0
LINE
  5
192
100
AcDbEntity
  8
Block furniture
  6
ByLayer
 62
  136
420
32896
370
   -1
100
AcDbLine
 10
-29.52755905511811
 20
-27.55905511811024
 11
-29.52755905511811
 21
-7.874015748031496
  0
ARC
  5
193
100
AcDbEntity
  8
Block furniture
  6
ByLayer
 62
  136
420
32896
370
   -1
100
AcDbCircle
 10
-21.65354330708661
 20
-7.874015748031496
 40
7.874015748031496
100
AcDbArc
 50
90
 51
180
  0
ENDBLK
  5
98
330
96
100
AcDbEntity
  8
0
100
AcDbBlockEnd
  0
BLOCK
  5
9A
330
99
100
AcDbEntity
  8
0
100
AcDbBlockBegin
  2
Wardrobe-E
 70
    0
 10
0
 20
0
  3
Wardrobe-E
  1

  0
LINE
  5
194
100
AcDbEntity
  8
Block furniture
  6
ByLayer
 62
  136
420
32896
370
   -1
100
AcDbLine
 10
-35.43307086614173
 20
0
 11
35.43307086614173
 21
0
  0
LINE
  5
195
100
AcDbEntity
  8
Block furniture
  6
ByLayer
 62
  136
420
32896
370
   -1
100
AcDbLine
 10
35.43307086614173
 20
0
 11
35.43307086614173
 21
-23.62204724409449
  0
LINE
  5
196
100
AcDbEntity
  8
Block furniture
  6
ByLayer
 62
  136
420
32896
370
   -1
100
AcDbLine
 10
35.43307086614173
 20
-23.62204724409449
 11
-35.43307086614173
 21
-23.62204724409449
  0
LINE
  5
197
100
AcDbEntity
  8
Block furniture
  6
ByLayer
 62
  136
420
32896
370
   -1
100
AcDbLine
 10
-35.43307086614173
 20
-23.62204724409449
 11
-35.43307086614173
 21
0
  0
LINE
  5
198
100
AcDbEntity
  8
Block furniture
  6
ByLayer
 62
  136
420
32896
370
   -1
100
AcDbLine
 10
-34.64566929133859
 20
-23.62204724409449
 11
-34.64566929133859
 21
-24.40944881889764
  0
LINE
  5
199
100
AcDbEntity
  8
Block furniture
  6
ByLayer
 62
  136
420
32896
370
   -1
100
AcDbLine
 10
-34.64566929133859
 20
-24.40944881889764
 11
-1.181102362204724
 21
-24.40944881889764
  0
LINE
  5
19A
100
AcDbEntity
  8
Block furniture
  6
ByLayer
 62
  136
420
32896
370
   -1
100
AcDbLine
 10
-1.181102362204724
 20
-24.40944881889764
 11
-1.181102362204724
 21
-23.62204724409449
  0
LINE
  5
19B
100
AcDbEntity
  8
Block furniture
  6
ByLayer
 62
  136
420
32896
370
   -1
100
AcDbLine
 10
34.64566929133859
 20
-23.62204724409449
 11
34.64566929133859
 21
-24.40944881889764
  0
LINE
  5
19C
100
AcDbEntity
  8
Block furniture
  6
ByLayer
 62
  136
420
32896
370
   -1
100
AcDbLine
 10
34.64566929133859
 20
-24.40944881889764
 11
1.181102362204724
 21
-24.40944881889764
  0
LINE
  5
19D
100
AcDbEntity
  8
Block furniture
  6
ByLayer
 62
  136
420
32896
370
   -1
100
AcDbLine
 10
1.181102362204724
 20
-24.40944881889764
 11
1.181102362204724
 21
-23.62204724409449
  0
ENDBLK
  5
9B
330
99
100
AcDbEntity
  8
0
100
AcDbBlockEnd
  0
ENDSEC
  0
SECTION
  2
ENTITIES
  0
HATCH
  5
19E
100
AcDbEntity
  8
walls
  6
ByLayer
 62
    7
370
   -1
100
AcDbHatch
 10
0
 20
0
 30
0
210
0
220
0
230
1
  2
ansi31
 70
    0
 71
    0
 91
    1
 92
    0
 93
    4
 72
    1
 10
360
 20
-361
 11
237
 21
-361
 72
    1
 10
237
 20
-361
 11
237
 21
-356
 72
    1
 10
237
 20
-356
 11
360
 21
-356
 72
    1
 10
360
 20
-356
 11
360
 21
-361
 97
    0
 75
    0
 76
    1
 52
0
 41
2
 77
    0
 78
    0
 98
    0
  0
HATCH
  5
19F
100
AcDbEntity
  8
pillars
  6
ByLayer
 62
  256
370
   25
100
AcDbHatch
 10
0
 20
0
 30
0
210
0
220
0
230
1
  2
SOLID
 70
    1
 71
    0
 91
    1
 92
    0
 93
   48
 72
    1
 10
108
 20
-172
 11
120
 21
-172
 72
    1
 10
120
 20
-172
 11
120
 21
-181
 72
    1
 10
120
 20
-181
 11
108
 21
-181
 72
    1
 10
108
 20
-181
 11
108
 21
-172
 72
    1
 10
225
 20
-172
 11
237
 21
-172
 72
    1
 10
237
 20
-172
 11
237
 21
-181
 72
    1
 10
237
 20
-181
 11
225
 21
-181
 72
    1
 10
225
 20
-181
 11
225
 21
-172
 72
    1
 10
9
 20
-172
 11
0
 21
-172
 72
    1
 10
0
 20
-172
 11
0
 21
-181
 72
    1
 10
0
 20
-181
 11
9
 21
-181
 72
    1
 10
9
 20
-181
 11
9
 21
-172
 72
    1
 10
0
 20
0
 11
9
 21
0
 72
    1
 10
9
 20
0
 11
9
 21
-9
 72
    1
 10
9
 20
-9
 11
0
 21
-9
 72
    1
 10
0
 20
-9
 11
0
 21
0
 72
    1
 10
108
 20
0
 11
120
 21
0
 72
    1
 10
120
 20
0
 11
120
 21
-9
 72
    1
 10
120
 20
-9
 11
108
 21
-9
 72
    1
 10
108
 20
-9
 11
108
 21
0
 72
    1
 10
225
 20
0
 11
234
 21
0
 72
    1
 10
234
 20
0
 11
234
 21
-9
 72
    1
 10
234
 20
-9
 11
225
 21
-9
 72
    1
 10
225
 20
-9
 11
225
 21
0
 72
    1
 10
360
 20
0
 11
369
 21
0
 72
    1
 10
369
 20
0
 11
369
 21
-9
 72
    1
 10
369
 20
-9
 11
360
 21
-9
 72
    1
 10
360
 20
-9
 11
360
 21
0
 72
    1
 10
360
 20
-172
 11
369
 21
-172
 72
    1
 10
369
 20
-172
 11
369
 21
-181
 72
    1
 10
369
 20
-181
 11
360
 21
-181
 72
    1
 10
360
 20
-181
 11
360
 21
-172
 72
    1
 10
360
 20
-352
 11
369
 21
-352
 72
    1
 10
369
 20
-352
 11
369
 21
-361
 72
    1
 10
369
 20
-361
 11
360
 21
-361
 72
    1
 10
360
 20
-361
 11
360
 21
-352
 72
    1
 10
225
 20
-352
 11
237
 21
-352
 72
    1
 10
237
 20
-352
 11
237
 21
-361
 72
    1
 10
237
 20
-361
 11
225
 21
-361
 72
    1
 10
225
 20
-361
 11
225
 21
-352
 72
    1
 10
108
 20
-352
 11
117
 21
-352
 72
    1
 10
117
 20
-352
 11
117
 21
-361
 72
    1
 10
117
 20
-361
 11
108
 21
-361
 72
    1
 10
108
 20
-361
 11
108
 21
-352
 72
    1
 10
0
 20
-352
 11
9
 21
-352
 72
    1
 10
9
 20
-352
 11
9
 21
-361
 72
    1
 10
9
 20
-361
 11
0
 21
-361
 72
    1
 10
0
 20
-361
 11
0
 21
-352
 97
    0
 75
    0
 76
    1
 98
    0
  0
HATCH
  5
1A0
100
AcDbEntity
  8
walls
  6
ByLayer
 62
  256
370
   25
100
AcDbHatch
 10
0
 20
0
 30
0
210
0
220
0
230
1
  2
ansi31
 70
    0
 71
    0
 91
    1
 92
    0
 93
    8
 72
    1
 10
322
 20
-176
 11
360
 21
-176
 72
    1
 10
360
 20
-176
 11
360
 21
-181
 72
    1
 10
360
 20
-181
 11
322
 21
-181
 72
    1
 10
322
 20
-181
 11
322
 21
-176
 72
    1
 10
286
 20
-181
 11
276
 21
-181
 72
    1
 10
276
 20
-181
 11
276
 21
-176
 72
    1
 10
276
 20
-176
 11
286
 21
-176
 72
    1
 10
286
 20
-176
 11
286
 21
-181
 97
    0
 75
    0
 76
    1
 52
0
 41
2
 77
    0
 78
    0
 98
    0
  0
HATCH
  5
1A1
100
AcDbEntity
  8
walls
  6
ByLayer
 62
  256
370
   25
100
AcDbHatch
 10
0
 20
0
 30
0
210
0
220
0
230
1
  2
ansi31
 70
    0
 71
    0
 91
    1
 92
    0
 93
    8
 72
    1
 10
229
 20
-39
 11
234
 21
-39
 72
    1
 10
234
 20
-39
 11
234
 21
-9
 72
    1
 10
234
 20
-9
 11
229
 21
-9
 72
    1
 10
229
 20
-9
 11
229
 21
-39
 72
    1
 10
234
 20
-172
 11
229
 21
-172
 72
    1
 10
229
 20
-172
 11
229
 21
-69
 72
    1
 10
229
 20
-69
 11
234
 21
-69
 72
    1
 10
234
 20
-69
 11
234
 21
-172
 97
    0
 75
    0
 76
    1
 52
0
 41
2
 77
    0
 78
    0
 98
    0
  0
HATCH
  5
1A2
100
AcDbEntity
  8
walls
  6
ByLayer
 62
  256
370
   25
100
AcDbHatch
 10
0
 20
0
 30
0
210
0
220
0
230
1
  2
ansi31
 70
    0
 71
    0
 91
    1
 92
    0
 93
    4
 72
    1
 10
369
 20
-352
 11
364
 21
-352
 72
    1
 10
364
 20
-352
 11
364
 21
-9
 72
    1
 10
364
 20
-9
 11
369
 21
-9
 72
    1
 10
369
 20
-9
 11
369
 21
-352
 97
    0
 75
    0
 76
    1
 52
0
 41
2
 77
    0
 78
    0
 98
    0
  0
HATCH
  5
1A3
100
AcDbEntity
  8
walls
  6
ByLayer
 62
  256
370
   25
100
AcDbHatch
 10
0
 20
0
 30
0
210
0
220
0
230
1
  2
ansi31
 70
    0
 71
    0
 91
    1
 92
    0
 93
   12
 72
    1
 10
126
 20
-181
 11
32
 21
-181
 72
    1
 10
32
 20
-181
 11
32
 21
-176
 72
    1
 10
32
 20
-176
 11
126
 21
-176
 72
    1
 10
126
 20
-176
 11
126
 21
-181
 72
    1
 10
174
 20
-181
 11
183
 21
-181
 72
    1
 10
183
 20
-181
 11
183
 21
-176
 72
    1
 10
183
 20
-176
 11
174
 21
-176
 72
    1
 10
174
 20
-176
 11
174
 21
-181
 72
    1
 10
37
 20
-181
 11
32
 21
-181
 72
    1
 10
32
 20
-181
 11
32
 21
-206
 72
    1
 10
32
 20
-206
 11
37
 21
-206
 72
    1
 10
37
 20
-206
 11
37
 21
-181
 97
    0
 75
    0
 76
    1
 52
0
 41
2
 77
    0
 78
    0
 98
    0
  0
HATCH
  5
1A4
100
AcDbEntity
  8
walls
  6
ByLayer
 62
  256
370
   25
100
AcDbHatch
 10
0
 20
0
 30
0
210
0
220
0
230
1
  2
ansi31
 70
    0
 71
    0
 91
    1
 92
    0
 93
    4
 72
    1
 10
9
 20
-361
 11
108
 21
-361
 72
    1
 10
108
 20
-361
 11
108
 21
-356
 72
    1
 10
108
 20
-356
 11
9
 21
-356
 72
    1
 10
9
 20
-356
 11
9
 21
-361
 97
    0
 75
    0
 76
    1
 52
0
 41
2
 77
    0
 78
    0
 98
    0
  0
HATCH
  5
1A5
100
AcDbEntity
  8
Display
  6
ByLayer
 62
  256
370
   25
100
AcDbHatch
 10
0
 20
0
 30
0
210
0
220
0
230
1
  2
SOLID
 70
    1
 71
    0
 91
    1
 92
    0
 93
    3
 72
    1
 10
356.0542929995325
 20
-668.3265677125942
 11
378.4127595252495
 21
-705.1518168579626
 72
    1
 10
378.4127595252495
 20
-705.1518168579626
 11
359.9999999999998
 21
-692.0000000000022
 72
    1
 10
359.9999999999998
 20
-692.0000000000022
 11
356.0542929995329
 21
-668.3265677125945
 97
    0
 75
    0
 76
    1
 98
    0
  0
HATCH
  5
1A6
100
AcDbEntity
  8
walls
  6
ByLayer
 62
  256
370
   25
100
AcDbHatch
 10
0
 20
0
 30
0
210
0
220
0
230
1
  2
ansi31
 70
    0
 71
    0
 91
    1
 92
    0
 93
    4
 72
    1
 10
5
 20
-253
 11
5
 21
-258
 72
    1
 10
5
 20
-258
 11
37
 21
-258
 72
    1
 10
37
 20
-258
 11
37
 21
-253
 72
    1
 10
37
 20
-253
 11
5
 21
-253
 97
    0
 75
    0
 76
    1
 52
0
 41
2
 77
    0
 78
    0
 98
    0
  0
HATCH
  5
1A7
100
AcDbEntity
  8
walls
  6
ByLayer
 62
  256
370
   25
100
AcDbHatch
 10
0
 20
0
 30
0
210
0
220
0
230
1
  2
SOLID
 70
    1
 71
    0
 91
    1
 92
    0
 93
    4
 72
    1
 10
120
 20
-172
 11
120
 21
-181
 72
    1
 10
120
 20
-181
 11
108
 21
-181
 72
    1
 10
108
 20
-181
 11
108
 21
-172
 72
    1
 10
108
 20
-172
 11
120
 21
-172
 97
    0
 75
    0
 76
    1
 98
    0
  0
HATCH
  5
1A8
100
AcDbEntity
  8
walls
  6
ByLayer
 62
  256
370
   25
100
AcDbHatch
 10
0
 20
0
 30
0
210
0
220
0
230
1
  2
ansi31
 70
    0
 71
    0
 91
    1
 92
    0
 93
   24
 72
    1
 10
5
 20
-9
 11
0
 21
-9
 72
    1
 10
0
 20
-9
 11
0
 21
-352
 72
    1
 10
0
 20
-352
 11
5
 21
-352
 72
    1
 10
5
 20
-352
 11
5
 21
-9
 72
    1
 10
5
 20
-305
 11
108
 21
-305
 72
    1
 10
108
 20
-305
 11
108
 21
-310
 72
    1
 10
108
 20
-310
 11
5
 21
-310
 72
    1
 10
5
 20
-310
 11
5
 21
-305
 72
    1
 10
72
 20
-305
 11
67
 21
-305
 72
    1
 10
67
 20
-305
 11
67
 21
-253
 72
    1
 10
67
 20
-253
 11
72
 21
-253
 72
    1
 10
72
 20
-253
 11
72
 21
-305
 72
    1
 10
9
 20
0
 11
360
 21
0
 72
    1
 10
360
 20
0
 11
360
 21
-5
 72
    1
 10
360
 20
-5
 11
9
 21
-5
 72
    1
 10
9
 20
-5
 11
9
 21
0
 72
    1
 10
108
 20
-258
 11
113
 21
-258
 72
    1
 10
113
 20
-258
 11
113
 21
-322
 72
    1
 10
113
 20
-322
 11
108
 21
-322
 72
    1
 10
108
 20
-322
 11
108
 21
-258
 72
    1
 10
113
 20
-253
 11
102
 21
-253
 72
    1
 10
102
 20
-253
 11
102
 21
-258
 72
    1
 10
102
 20
-258
 11
113
 21
-258
 72
    1
 10
113
 20
-258
 11
113
 21
-253
 97
    0
 75
    0
 76
    1
 52
0
 41
2
 77
    0
 78
    0
 98
    0
  0
DIMENSION
  5
1A9
100
AcDbEntity
  8
dimensions
  6
ByLayer
 62
  256
370
   25
100
AcDbDimension
  2
*D1
 10
369.0000000000001
 20
24
 30
0
 11
184.5
 21
26.52500000000003
 31
0
 70
   33
 71
    5
  3
Standard
 53
0
210
0
220
0
230
1
100
AcDbAlignedDimension
 13
-5.684341886080801e-14
 23
1.999999999999932
 33
0
 14
369.0000000000001
 24
1.999999999999859
 34
0
  0
DIMENSION
  5
1AA
100
AcDbEntity
  8
dimensions
  6
ByLayer
 62
  256
370
   25
100
AcDbDimension
  2
*D2
 10
225
 20
-186
 30
0
 11
204
 21
-183.475
 31
0
 70
   33
 71
    5
  3
Standard
 53
0
210
0
220
0
230
1
100
AcDbAlignedDimension
 13
183
 23
-182
 33
0
 14
225
 24
-182
 34
0
  0
DIMENSION
  5
1AB
100
AcDbEntity
  8
dimensions
  6
ByLayer
 62
  256
370
   25
100
AcDbDimension
  2
*D3
 10
225
 20
12
 30
0
 11
112.5
 21
14.525
 31
0
 70
   33
 71
    5
  3
Standard
 53
0
210
0
220
0
230
1
100
AcDbAlignedDimension
 13
-2.842170943040401e-14
 23
2.000000000000087
 33
0
 14
225
 24
2.000000000000087
 34
0
  0
TEXT
  5
1AC
100
AcDbEntity
  8
Display
  6
ByLayer
 62
   16
420
8388608
370
   25
100
AcDbText
 10
64
 20
-708
 30
0
 40
10
  1
Shivam Maurya
 50
0
 41
1
 51
0
  7
standard
 71
    0
210
0
220
0
230
1
100
AcDbText
  0
LINE
  5
1AD
100
AcDbEntity
  8
Display
  6
ByLayer
 62
  256
370
   25
100
AcDbLine
 10
260
 20
-652
 11
260
 21
-732
  0
LINE
  5
1AE
100
AcDbEntity
  8
Display
  6
ByLayer
 62
  256
370
   25
100
AcDbLine
 10
-36
 20
-652
 11
434
 21
-652
  0
LINE
  5
1AF
100
AcDbEntity
  8
0
  6
CONTINUOUS
 62
   16
420
8388608
370
   25
100
AcDbLine
 10
408
 20
-624
 11
0
 21
-612
  0
LINE
  5
1B0
100
AcDbEntity
  8
0
  6
CONTINUOUS
 62
   16
420
8388608
370
   25
100
AcDbLine
 10
372
 20
6
 11
408
 21
-624
  0
LINE
  5
1B1
100
AcDbEntity
  8
0
  6
CONTINUOUS
 62
    1
370
   25
100
AcDbLine
 10
0
 20
-612
 11
0
 21
0
  0
LINE
  5
1B2
100
AcDbEntity
  8
0
  6
CONTINUOUS
 62
   16
420
8388608
370
   25
100
AcDbLine
 10
0
 20
0
 11
372
 21
6
  0
TEXT
  5
1B3
100
AcDbEntity
  8
roomname
  6
ByLayer
 62
  256
370
   25
100
AcDbText
 10
144
 20
-504
 30
0
 40
10
  1
FRONT SPACE
 50
0
 41
1
 51
0
  7
standard
 71
    0
210
0
220
0
230
1
100
AcDbText
  0
DIMENSION
  5
1B4
100
AcDbEntity
  8
dimensions
  6
ByLayer
 62
  256
370
   25
100
AcDbDimension
  2
*D4
 10
276
 20
-186
 30
0
 11
255
 21
-183.475
 31
0
 70
   33
 71
    5
  3
Standard
 53
0
210
0
220
0
230
1
100
AcDbAlignedDimension
 13
234
 23
-182
 33
0
 14
276
 24
-182
 34
0
  0
INSERT
  5
1B5
100
AcDbEntity
  8
furniture
  6
ByLayer
 62
  256
370
   25
100
AcDbBlockReference
  2
Kitchen-fridge-V
 10
312
 20
-252
 30
0
 41
1
 42
1
 43
0
 50
0
 70
    1
 71
    1
 44
0
 45
0
  0
INSERT
  5
1B6
100
AcDbEntity
  8
furniture
  6
ByLayer
 62
  256
370
   25
100
AcDbBlockReference
  2
Kitchen-sink-E
 10
336
 20
-212
 30
0
 41
1
 42
1
 43
0
 50
0
 70
    1
 71
    1
 44
0
 45
0
  0
TEXT
  5
1B7
100
AcDbEntity
  8
roomname
  6
ByLayer
 62
  256
370
   25
100
AcDbText
 10
144
 20
-172
 30
0
 40
5
  1
w
 50
0
 41
1
 51
0
  7
standard
 71
    0
210
0
220
0
230
1
100
AcDbText
  0
INSERT
  5
1B8
100
AcDbEntity
  8
furniture
  6
ByLayer
 62
  136
420
32896
370
   25
100
AcDbBlockReference
  2
Table-dining-E
 10
160
 20
-92
 30
0
 41
1
 42
1
 43
0
 50
270
 70
    1
 71
    1
 44
0
 45
0
  0
TEXT
  5
1B9
100
AcDbEntity
  8
roomname
  6
ByLayer
 62
  256
370
   25
100
AcDbText
 10
274
 20
-368
 30
0
 40
5
  1
STAIRS
 50
0
 41
1
 51
0
  7
standard
 71
    0
210
0
220
0
230
1
100
AcDbText
  0
TEXT
  5
1BA
100
AcDbEntity
  8
roomname
  6
ByLayer
 62
  256
370
   25
100
AcDbText
 10
268
 20
-132
 30
0
 40
5
  1
BED ROOM 11'2"x13'11"
 50
0
 41
1
 51
0
  7
standard
 71
    0
210
0
220
0
230
1
100
AcDbText
  0
DIMENSION
  5
1BB
100
AcDbEntity
  8
dimensions
  6
ByLayer
 62
  256
370
   25
100
AcDbDimension
  2
*D5
 10
-6
 20
-176
 30
0
 11
-8.525
 21
-90.5
 31
0
 70
   33
 71
    5
  3
Standard
 53
0
210
0
220
0
230
1
100
AcDbAlignedDimension
 13
-2.000000000000004
 23
-5
 33
0
 14
-2.000000000000005
 24
-176
 34
0
  0
TEXT
  5
1BC
100
AcDbEntity
  8
roomname
  6
ByLayer
 62
  256
370
   25
100
AcDbText
 10
76
 20
-136
 30
0
 40
5
  1
LIVING ROOM 18'4"x14'3"
 50
0
 41
1
 51
0
  7
standard
 71
    0
210
0
220
0
230
1
100
AcDbText
  0
TEXT
  5
1BD
100
AcDbEntity
  8
Display
  6
ByLayer
 62
  216
420
8388736
370
   25
100
AcDbText
 10
64
 20
-673
 30
0
 40
10
  1
Front Home Plan
 50
0
 41
1
 51
0
  7
standard
 71
    0
210
0
220
0
230
1
100
AcDbText
  0
TEXT
  5
1BE
100
AcDbEntity
  8
roomname
  6
ByLayer
 62
  256
370
   25
100
AcDbText
 10
302
 20
-186
 30
0
 40
5
  1
w
 50
0
 41
1
 51
0
  7
standard
 71
    0
210
0
220
0
230
1
100
AcDbText
  0
DIMENSION
  5
1BF
100
AcDbEntity
  8
dimensions
  6
ByLayer
 62
  256
370
   25
100
AcDbDimension
  2
*D6
 10
-24
 20
-361
 30
0
 11
-26.52499999999992
 21
-180.5
 31
0
 70
   33
 71
    5
 72
    0
  3
Standard
 53
0
210
0
220
0
230
1
100
AcDbAlignedDimension
 13
-2.000000000000003
 23
0
 33
0
 14
-2.000000000000163
 24
-361
 34
0
  0
DIMENSION
  5
1C0
100
AcDbEntity
  8
dimensions
  6
ByLayer
 62
  256
370
   25
100
AcDbDimension
  2
*D7
 10
-12
 20
-361
 30
0
 11
-14.52500000000002
 21
-271
 31
0
 70
   33
 71
    5
  3
Standard
 53
0
210
0
220
0
230
1
100
AcDbAlignedDimension
 13
-2.000000000000008
 23
-181
 33
0
 14
-1.99999999999997
 24
-361
 34
0
  0
LINE
  5
1C1
100
AcDbEntity
  8
walls
  6
CONTINUOUS
 62
  256
370
   25
100
AcDbLine
 10
0
 20
-361
 11
360
 21
-361
  0
TEXT
  5
1C2
100
AcDbEntity
  8
roomname
  6
ByLayer
 62
  256
370
   25
100
AcDbText
 10
20
 20
-292
 30
0
 40
5
  1
Bath 5'2"x4'
 50
0
 41
1
 51
0
  7
standard
 71
    0
210
0
220
0
230
1
100
AcDbText
  0
INSERT
  5
1C3
100
AcDbEntity
  8
furniture
  6
ByLayer
 62
  136
420
32896
370
   25
100
AcDbBlockReference
  2
Wardrobe-E
 10
72
 20
-176
 30
0
 41
1
 42
1
 43
0
 50
180
 70
    1
 71
    1
 44
0
 45
0
  0
LINE
  5
1C4
100
AcDbEntity
  8
furniture
  6
ByLayer
 62
  136
420
32896
370
   25
100
AcDbLine
 10
40
 20
-184
 11
40
 21
-187
  0
CIRCLE
  5
1C5
100
AcDbEntity
  8
furniture
  6
ByLayer
 62
  136
420
32896
370
   25
100
AcDbCircle
 10
49
 20
-186
 40
1
  0
ARC
  5
1C6
100
AcDbEntity
  8
furniture
  6
ByLayer
 62
  136
420
32896
370
   25
100
AcDbCircle
 10
49
 20
-187
 40
8
100
AcDbArc
 50
180
 51
0
  0
ARC
  5
1C7
100
AcDbEntity
  8
furniture
  6
ByLayer
 62
  136
420
32896
370
   25
100
AcDbCircle
 10
49
 20
-187
 40
9
100
AcDbArc
 50
180
 51
0
  0
LINE
  5
1C8
100
AcDbEntity
  8
furniture
  6
ByLayer
 62
  136
420
32896
370
   25
100
AcDbLine
 10
58
 20
-184
 11
58
 21
-187
  0
LINE
  5
1C9
100
AcDbEntity
  8
furniture
  6
ByLayer
 62
  136
420
32896
370
   25
100
AcDbLine
 10
41
 20
-187
 11
57.99999999999997
 21
-187.0000024936152
  0
DIMENSION
  5
1CA
100
AcDbEntity
  8
dimensions
  6
ByLayer
 62
  256
370
   25
100
AcDbDimension
  2
*D8
 10
32
 20
-187
 30
0
 11
20.5
 21
-184.475
 31
0
 70
   33
 71
    5
 72
    0
  3
Standard
 53
0
210
0
220
0
230
1
100
AcDbAlignedDimension
 13
9
 23
-182
 33
0
 14
32
 24
-182
 34
0
  0
TEXT
  5
1CB
100
AcDbEntity
  8
roomname
  6
ByLayer
 62
  256
370
   25
100
AcDbText
 10
80
 20
-271
 30
0
 40
5
  1
W/C
 50
0
 41
1
 51
0
  7
standard
 71
    0
210
0
220
0
230
1
100
AcDbText
  0
TEXT
  5
1CC
100
AcDbEntity
  8
roomname
  6
ByLayer
 62
  256
370
   25
100
AcDbText
 10
32
 20
-333
 30
0
 40
5
  1
W/C
 50
0
 41
1
 51
0
  7
standard
 71
    0
210
0
220
0
230
1
100
AcDbText
  0
INSERT
  5
1CD
100
AcDbEntity
  8
furniture
  6
ByLayer
 62
  136
420
32896
370
   25
100
AcDbBlockReference
  2
Wardrobe-E
 10
324
 20
-5
 30
0
 41
1
 42
1
 43
0
 50
0
 70
    1
 71
    1
 44
0
 45
0
  0
DIMENSION
  5
1CE
100
AcDbEntity
  8
dimensions
  6
ByLayer
 62
  256
370
   25
100
AcDbDimension
  2
*D9
 10
378
 20
-277
 30
0
 11
375.475
 21
-229
 31
0
 70
   33
 71
    5
  3
Standard
 53
0
210
0
220
0
230
1
100
AcDbAlignedDimension
 13
371
 23
-181
 33
0
 14
371
 24
-277
 34
0
  0
DIMENSION
  5
1CF
100
AcDbEntity
  8
dimensions
  6
ByLayer
 62
  256
370
   25
100
AcDbDimension
  2
*D10
 10
378
 20
-361
 30
0
 11
375.475
 21
-319
 31
0
 70
   33
 71
    5
  3
Standard
 53
0
210
0
220
0
230
1
100
AcDbAlignedDimension
 13
371
 23
-277
 33
0
 14
371
 24
-361
 34
0
  0
DIMENSION
  5
1D0
100
AcDbEntity
  8
dimensions
  6
ByLayer
 62
  256
370
   25
100
AcDbDimension
  2
*D11
 10
369
 20
-369
 30
0
 11
297
 21
-366.475
 31
0
 70
   33
 71
    5
  3
Standard
 53
0
210
0
220
0
230
1
100
AcDbAlignedDimension
 13
225
 23
-363
 33
0
 14
369
 24
-363
 34
0
  0
DIMENSION
  5
1D1
100
AcDbEntity
  8
dimensions
  6
ByLayer
 62
  256
370
   25
100
AcDbDimension
  2
*D12
 10
225
 20
-369
 30
0
 11
171
 21
-366.475
 31
0
 70
   33
 71
    5
  3
Standard
 53
0
210
0
220
0
230
1
100
AcDbAlignedDimension
 13
117
 23
-363
 33
0
 14
225
 24
-363
 34
0
  0
DIMENSION
  5
1D2
100
AcDbEntity
  8
dimensions
  6
ByLayer
 62
  256
370
   25
100
AcDbDimension
  2
*D13
 10
240
 20
-69
 30
0
 11
237.475
 21
-54
 31
0
 70
   33
 71
    5
 72
    0
  3
Standard
 53
0
210
0
220
0
230
1
100
AcDbAlignedDimension
 13
236
 23
-39
 33
0
 14
236
 24
-69
 34
0
  0
TEXT
  5
1D3
100
AcDbEntity
  8
roomname
  6
ByLayer
 62
  256
370
   25
100
AcDbText
 10
215.5555555555553
 20
-236
 30
0
 40
5
  1
DINING LOBBY
 50
0
 41
1
 51
0
  7
standard
 71
    0
210
0
220
0
230
1
100
AcDbText
  0
TEXT
  5
1D4
100
AcDbEntity
  8
roomname
  6
ByLayer
 62
  256
370
   25
100
AcDbText
 10
215.5555555555553
 20
-236
 30
0
 40
5
  1
DINING LOBBY
 50
0
 41
1
 51
0
  7
standard
 71
    0
210
0
220
0
230
1
100
AcDbText
  0
TEXT
  5
1D5
100
AcDbEntity
  8
roomname
  6
ByLayer
 62
  256
370
   25
100
AcDbText
 10
215.5555555555553
 20
-236
 30
0
 40
5
  1
DINING LOBBY
 50
0
 41
1
 51
0
  7
standard
 71
    0
210
0
220
0
230
1
100
AcDbText
  0
TEXT
  5
1D6
100
AcDbEntity
  8
roomname
  6
ByLayer
 62
  256
370
   25
100
AcDbText
 10
215.5555555555553
 20
-236
 30
0
 40
5
  1
DINING LOBBY
 50
0
 41
1
 51
0
  7
standard
 71
    0
210
0
220
0
230
1
100
AcDbText
  0
TEXT
  5
1D7
100
AcDbEntity
  8
roomname
  6
ByLayer
 62
    6
370
   25
100
AcDbText
 10
215.5555555555553
 20
-236
 30
0
 40
5
  1
DINING LOBBY
 50
0
 41
1
 51
0
  7
standard
 71
    0
210
0
220
0
230
1
100
AcDbText
  0
TEXT
  5
1D8
100
AcDbEntity
  8
roomname
  6
ByLayer
 62
  256
370
   25
100
AcDbText
 10
312
 20
-236
 30
0
 40
5
  1
OPEN KITCHEN
 50
0
 41
1
 51
0
  7
standard
 71
    0
210
0
220
0
230
1
100
AcDbText
  0
LINE
  5
1D9
100
AcDbEntity
  8
Slab Electrical
  6
ByLayer
 62
  256
370
   25
100
AcDbLine
 10
60
 20
-6
 11
60
 21
-174
  0
CIRCLE
  5
1DA
100
AcDbEntity
  8
Slab Electrical
  6
ByLayer
 62
  256
370
   25
100
AcDbCircle
 10
132
 20
-372
 40
4
  0
LINE
  5
1DB
100
AcDbEntity
  8
Slab Electrical
  6
ByLayer
 62
  256
370
   25
100
AcDbLine
 10
252
 20
-372
 11
336
 21
-372
  0
CIRCLE
  5
1DC
100
AcDbEntity
  8
Slab Electrical
  6
ByLayer
 62
  256
370
   25
100
AcDbCircle
 10
336
 20
-372
 40
4
  0
CIRCLE
  5
1DD
100
AcDbEntity
  8
Slab Electrical
  6
ByLayer
 62
  256
370
   25
100
AcDbCircle
 10
252
 20
-372
 40
4
  0
CIRCLE
  5
1DE
100
AcDbEntity
  8
Slab Electrical
  6
ByLayer
 62
  256
370
   25
100
AcDbCircle
 10
296
 20
-372
 40
4
  0
CIRCLE
  5
1DF
100
AcDbEntity
  8
Slab Electrical
  6
ByLayer
 62
  256
370
   25
100
AcDbCircle
 10
92.00000000000895
 20
-372
 40
4
  0
CIRCLE
  5
1E0
100
AcDbEntity
  8
Slab Electrical
  6
ByLayer
 62
  256
370
   25
100
AcDbCircle
 10
60
 20
-12
 40
4
  0
CIRCLE
  5
1E1
100
AcDbEntity
  8
Slab Electrical
  6
ByLayer
 62
  256
370
   25
100
AcDbCircle
 10
60
 20
-168
 40
4
  0
CIRCLE
  5
1E2
100
AcDbEntity
  8
Slab Electrical
  6
ByLayer
 62
  256
370
   25
100
AcDbCircle
 10
240
 20
-92
 40
4
  0
CIRCLE
  5
1E3
100
AcDbEntity
  8
Slab Electrical
  6
ByLayer
 62
  256
370
   25
100
AcDbCircle
 10
300
 20
-12
 40
4
  0
CIRCLE
  5
1E4
100
AcDbEntity
  8
Slab Electrical
  6
ByLayer
 62
  256
370
   25
100
AcDbCircle
 10
356
 20
-90
 40
4
  0
CIRCLE
  5
1E5
100
AcDbEntity
  8
Slab Electrical
  6
ByLayer
 62
  256
370
   25
100
AcDbCircle
 10
282
 20
-188
 40
4
  0
CIRCLE
  5
1E6
100
AcDbEntity
  8
Slab Electrical
  6
ByLayer
 62
  256
370
   25
100
AcDbCircle
 10
92
 20
-352
 40
4
  0
CIRCLE
  5
1E7
100
AcDbEntity
  8
Slab Electrical
  6
ByLayer
 62
  256
370
   25
100
AcDbCircle
 10
132
 20
-332
 40
4
  0
CIRCLE
  5
1E8
100
AcDbEntity
  8
Slab Electrical
  6
ByLayer
 62
  256
370
   25
100
AcDbCircle
 10
132
 20
-280
 40
4
  0
CIRCLE
  5
1E9
100
AcDbEntity
  8
Slab Electrical
  6
ByLayer
 62
  256
370
   25
100
AcDbCircle
 10
36
 20
-332
 40
4
  0
CIRCLE
  5
1EA
100
AcDbEntity
  8
Slab Electrical
  6
ByLayer
 62
  256
370
   25
100
AcDbCircle
 10
48
 20
-280
 40
4
  0
CIRCLE
  5
1EB
100
AcDbEntity
  8
Slab Electrical
  6
ByLayer
 62
  256
370
   25
100
AcDbCircle
 10
20
 20
-280
 40
4
  0
CIRCLE
  5
1EC
100
AcDbEntity
  8
Slab Electrical
  6
ByLayer
 62
  256
370
   25
100
AcDbCircle
 10
336
 20
-220
 40
4
  0
LINE
  5
1ED
100
AcDbEntity
  8
Slab Electrical
  6
ByLayer
 62
  256
370
   25
100
AcDbLine
 10
20
 20
-280
 11
132
 21
-280
  0
CIRCLE
  5
1EE
100
AcDbEntity
  8
Slab Electrical
  6
ByLayer
 62
  256
370
   25
100
AcDbCircle
 10
172
 20
-168
 40
4
  0
CIRCLE
  5
1EF
100
AcDbEntity
  8
Slab Electrical
  6
ByLayer
 62
  256
370
   25
100
AcDbCircle
 10
120
 20
-280
 40
4
  0
CIRCLE
  5
1F0
100
AcDbEntity
  8
Slab Electrical
  6
ByLayer
 62
  256
370
   25
100
AcDbCircle
 10
104
 20
-280
 40
4
  0
CIRCLE
  5
1F1
100
AcDbEntity
  8
Slab Electrical
  6
ByLayer
 62
  256
370
   25
100
AcDbCircle
 10
65
 20
-280
 40
4.123105625617661
  0
CIRCLE
  5
1F2
100
AcDbEntity
  8
Slab Electrical
  6
ByLayer
 62
  256
370
   25
100
AcDbCircle
 10
24
 20
-372
 40
4
  0
LINE
  5
1F3
100
AcDbEntity
  8
Slab Electrical
  6
ByLayer
 62
  256
370
   25
100
AcDbLine
 10
24
 20
-372
 11
92.00000000000895
 21
-372
  0
CIRCLE
  5
1F4
100
AcDbEntity
  8
Slab Electrical
  6
ByLayer
 62
  256
370
   25
100
AcDbCircle
 10
172
 20
-372
 40
4
  0
CIRCLE
  5
1F5
100
AcDbEntity
  8
Slab Electrical
  6
ByLayer
 62
  256
370
   25
100
AcDbCircle
 10
208.0000000000118
 20
-372
 40
4
  0
LINE
  5
1F6
100
AcDbEntity
  8
Slab Electrical
  6
ByLayer
 62
  256
370
   25
100
AcDbLine
 10
132
 20
-372
 11
208.0000000000118
 21
-372
  0
CIRCLE
  5
1F7
100
AcDbEntity
  8
Slab Electrical
  6
ByLayer
 62
  256
370
   25
100
AcDbCircle
 10
171.9999999999994
 20
-11.99999999972412
 40
4
  0
CIRCLE
  5
1F8
100
AcDbEntity
  8
Slab Electrical
  6
ByLayer
 62
  256
370
   25
100
AcDbCircle
 10
24
 20
-420
 40
4
  0
CIRCLE
  5
1F9
100
AcDbEntity
  8
Slab Electrical
  6
ByLayer
 62
  256
370
   25
100
AcDbCircle
 10
132
 20
-420
 40
4
  0
LINE
  5
1FA
100
AcDbEntity
  8
Slab Electrical
  6
ByLayer
 62
  256
370
   25
100
AcDbLine
 10
132
 20
-352
 11
132
 21
-372
  0
LINE
  5
1FB
100
AcDbEntity
  8
Slab Electrical
  6
ByLayer
 62
  256
370
   25
100
AcDbLine
 10
132
 20
-420
 11
132
 21
-352
  0
LINE
  5
1FC
100
AcDbEntity
  8
Slab Electrical
  6
ByLayer
 62
  256
370
   25
100
AcDbLine
 10
296
 20
-372
 11
296
 21
-352
  0
LINE
  5
1FD
100
AcDbEntity
  8
Slab Electrical
  6
ByLayer
 62
  256
370
   25
100
AcDbLine
 10
352
 20
-348
 11
352
 21
-364
  0
CIRCLE
  5
1FE
100
AcDbEntity
  8
Slab Electrical
  6
ByLayer
 62
  256
370
   25
100
AcDbCircle
 10
336
 20
-140
 40
4
  0
CIRCLE
  5
1FF
100
AcDbEntity
  8
Slab Electrical
  6
ByLayer
 62
  256
370
   25
100
AcDbCircle
 10
264
 20
-140
 40
4
  0
LINE
  5
200
100
AcDbEntity
  8
Slab Electrical
  6
ByLayer
 62
  256
370
   25
100
AcDbLine
 10
280
 20
-12
 11
300
 21
-12
  0
CIRCLE
  5
201
100
AcDbEntity
  8
Slab Electrical
  6
ByLayer
 62
  256
370
   25
100
AcDbCircle
 10
90
 20
-280
 40
4
  0
CIRCLE
  5
202
100
AcDbEntity
  8
Slab Electrical
  6
ByLayer
 62
  256
370
   25
100
AcDbCircle
 10
90
 20
-332
 40
4
  0
LINE
  5
203
100
AcDbEntity
  8
Slab Electrical
  6
ByLayer
 62
  256
370
   25
100
AcDbLine
 10
90
 20
-372
 11
90
 21
-332
  0
LINE
  5
204
100
AcDbEntity
  8
Slab Electrical
  6
ByLayer
 62
  256
370
   25
100
AcDbLine
 10
240
 20
-140
 11
264
 21
-140
  0
LINE
  5
205
100
AcDbEntity
  8
Slab Electrical
  6
ByLayer
 62
  256
370
   25
100
AcDbLine
 10
356
 20
-88
 11
356
 21
-128
  0
TEXT
  5
206
100
AcDbEntity
  8
Slab Electrical
  6
ByLayer
 62
    6
370
   25
100
AcDbText
 10
96
 20
-444
 30
0
 40
5
  1
SLAB LIGHTS
 50
0
 41
1
 51
0
  7
standard
 71
    0
210
0
220
0
230
1
100
AcDbText
  0
CIRCLE
  5
207
100
AcDbEntity
  8
Slab Electrical
  6
ByLayer
 62
  256
370
   25
100
AcDbCircle
 10
76
 20
-420
 40
4
  0
CIRCLE
  5
208
100
AcDbEntity
  8
Slab Electrical
  6
ByLayer
 62
  256
370
   25
100
AcDbCircle
 10
188
 20
-420
 40
4
  0
CIRCLE
  5
209
100
AcDbEntity
  8
Slab Electrical
  6
ByLayer
 62
  256
370
   25
100
AcDbCircle
 10
264
 20
-219.9999999999976
 40
4
  0
CIRCLE
  5
20A
100
AcDbEntity
  8
Slab Electrical
  6
ByLayer
 62
  256
370
   25
100
AcDbCircle
 10
204
 20
-280.0000001149081
 40
4
  0
CIRCLE
  5
20B
100
AcDbEntity
  8
Slab Electrical
  6
ByLayer
 62
  256
370
   25
100
AcDbCircle
 10
203.9999999999997
 20
-332.0000000000001
 40
4
  0
CIRCLE
  5
20C
100
AcDbEntity
  8
Slab Electrical
  6
ByLayer
 62
  256
370
   25
100
AcDbCircle
 10
300
 20
-88
 40
24
  0
CIRCLE
  5
20D
100
AcDbEntity
  8
Slab Electrical
  6
ByLayer
 62
  256
370
   25
100
AcDbCircle
 10
172
 20
-88
 40
24
  0
CIRCLE
  5
20E
100
AcDbEntity
  8
Slab Electrical
  6
ByLayer
 62
  256
370
   25
100
AcDbCircle
 10
300
 20
-240
 40
20
  0
LINE
  5
20F
100
AcDbEntity
  8
Slab Electrical
  6
ByLayer
 62
  256
370
   25
100
AcDbLine
 10
336
 20
-260
 11
264
 21
-260
  0
CIRCLE
  5
210
100
AcDbEntity
  8
Slab Electrical
  6
ByLayer
 62
  256
370
   25
100
AcDbCircle
 10
264
 20
-260
 40
4
  0
CIRCLE
  5
211
100
AcDbEntity
  8
Slab Electrical
  6
ByLayer
 62
  256
370
   25
100
AcDbCircle
 10
336
 20
-260
 40
4
  0
LINE
  5
212
100
AcDbEntity
  8
Slab Electrical
  6
ByLayer
 62
  256
370
   25
100
AcDbLine
 10
336
 20
-220
 11
336
 21
-260
  0
LINE
  5
213
100
AcDbEntity
  8
Slab Electrical
  6
ByLayer
 62
  256
370
   25
100
AcDbLine
 10
204
 20
-332
 11
36
 21
-332
  0
CIRCLE
  5
214
100
AcDbEntity
  8
Slab Electrical
  6
ByLayer
 62
  256
370
   25
100
AcDbCircle
 10
132.0000032174282
 20
-215.999999999999
 40
4
  0
CIRCLE
  5
215
100
AcDbEntity
  8
Slab Electrical
  6
ByLayer
 62
  256
370
   25
100
AcDbCircle
 10
88.00000321742824
 20
-216
 40
4
  0
CIRCLE
  5
216
100
AcDbEntity
  8
Slab Electrical
  6
ByLayer
 62
  256
370
   25
100
AcDbCircle
 10
55.99999990837347
 20
-216
 40
4
  0
CIRCLE
  5
217
100
AcDbEntity
  8
Slab Electrical
  6
ByLayer
 62
  256
370
   25
100
AcDbCircle
 10
204
 20
-216
 40
4
  0
LINE
  5
218
100
AcDbEntity
  8
Slab Electrical
  6
ByLayer
 62
  256
370
   25
100
AcDbLine
 10
132
 20
-332
 11
132
 21
-216
  0
LINE
  5
219
100
AcDbEntity
  8
Slab Electrical
  6
ByLayer
 62
  256
370
   25
100
AcDbLine
 10
204
 20
-216
 11
204
 21
-332
  0
CIRCLE
  5
21A
100
AcDbEntity
  8
Slab Electrical
  6
ByLayer
 62
  256
370
   25
100
AcDbCircle
 10
168
 20
-248
 40
24
  0
CIRCLE
  5
21B
100
AcDbEntity
  8
Slab Electrical
  6
ByLayer
 62
  256
370
   25
100
AcDbCircle
 10
144
 20
-36
 40
4
  0
CIRCLE
  5
21C
100
AcDbEntity
  8
Slab Electrical
  6
ByLayer
 62
  256
370
   25
100
AcDbCircle
 10
31.99999999999996
 20
-36
 40
4
  0
CIRCLE
  5
21D
100
AcDbEntity
  8
Slab Electrical
  6
ByLayer
 62
  256
370
   25
100
AcDbCircle
 10
88
 20
-36
 40
4
  0
LINE
  5
21E
100
AcDbEntity
  8
Slab Electrical
  6
ByLayer
 62
  256
370
   25
100
AcDbLine
 10
32
 20
-36
 11
88
 21
-36
  0
CIRCLE
  5
21F
100
AcDbEntity
  8
Slab Electrical
  6
ByLayer
 62
  256
370
   25
100
AcDbCircle
 10
200.0000000000011
 20
-36
 40
4
  0
LINE
  5
220
100
AcDbEntity
  8
Slab Electrical
  6
ByLayer
 62
  256
370
   25
100
AcDbLine
 10
144
 20
-36
 11
200.0000000000011
 21
-36
  0
LINE
  5
221
100
AcDbEntity
  8
Slab Electrical
  6
ByLayer
 62
  256
370
   25
100
AcDbLine
 10
88
 20
-140
 11
144
 21
-140
  0
CIRCLE
  5
222
100
AcDbEntity
  8
Slab Electrical
  6
ByLayer
 62
  256
370
   25
100
AcDbCircle
 10
60
 20
-88
 40
24
  0
LINE
  5
223
100
AcDbEntity
  8
Slab Electrical
  6
ByLayer
 62
  256
370
   25
100
AcDbLine
 10
144
 20
-140
 11
144
 21
-36
  0
LINE
  5
224
100
AcDbEntity
  8
Slab Electrical
  6
ByLayer
 62
  256
370
   25
100
AcDbLine
 10
200
 20
-36
 11
200
 21
-140
  0
CIRCLE
  5
225
100
AcDbEntity
  8
Slab Electrical
  6
ByLayer
 62
  256
370
   25
100
AcDbCircle
 10
200
 20
-140
 40
4
  0
CIRCLE
  5
226
100
AcDbEntity
  8
Slab Electrical
  6
ByLayer
 62
  256
370
   25
100
AcDbCircle
 10
144
 20
-140
 40
4
  0
CIRCLE
  5
227
100
AcDbEntity
  8
Slab Electrical
  6
ByLayer
 62
  256
370
   25
100
AcDbCircle
 10
88
 20
-140
 40
4
  0
LINE
  5
228
100
AcDbEntity
  8
Slab Electrical
  6
ByLayer
 62
  256
370
   25
100
AcDbLine
 10
88
 20
-36
 11
88
 21
-140
  0
LINE
  5
229
100
AcDbEntity
  8
Slab Electrical
  6
ByLayer
 62
  256
370
   25
100
AcDbLine
 10
32
 20
-140
 11
32
 21
-36
  0
CIRCLE
  5
22A
100
AcDbEntity
  8
Slab Electrical
  6
ByLayer
 62
  256
370
   25
100
AcDbCircle
 10
32
 20
-140
 40
4
  0
CIRCLE
  5
22B
100
AcDbEntity
  8
Slab Electrical
  6
ByLayer
 62
  256
370
   25
100
AcDbCircle
 10
335.9999913053513
 20
-35.99999999999997
 40
4
  0
CIRCLE
  5
22C
100
AcDbEntity
  8
Slab Electrical
  6
ByLayer
 62
  256
370
   25
100
AcDbCircle
 10
263.9999994638638
 20
-35.99999999999999
 40
4
  0
LINE
  5
22D
100
AcDbEntity
  8
Slab Electrical
  6
ByLayer
 62
  256
370
   25
100
AcDbLine
 10
335.9999975653354
 20
-35.99999999999997
 11
264
 21
-36
  0
LINE
  5
22E
100
AcDbEntity
  8
Slab Electrical
  6
ByLayer
 62
  256
370
   25
100
AcDbLine
 10
335.9999975653354
 20
-35.99999999999997
 11
336
 21
-140
  0
LINE
  5
22F
100
AcDbEntity
  8
Slab Electrical
  6
ByLayer
 62
  256
370
   25
100
AcDbLine
 10
264
 20
-140
 11
336
 21
-140
  0
LINE
  5
230
100
AcDbEntity
  8
Slab Electrical
  6
ByLayer
 62
   56
420
8421376
370
   25
100
AcDbLine
 10
356
 20
-192
 11
12
 21
-192
  0
CIRCLE
  5
231
100
AcDbEntity
  8
Slab Electrical
  6
ByLayer
 62
  256
370
   25
100
AcDbCircle
 10
263.9999986625676
 20
-192.0000000000001
 40
4
  0
LINE
  5
232
100
AcDbEntity
  8
Slab Electrical
  6
ByLayer
 62
  256
370
   25
100
AcDbLine
 10
172
 20
-12
 11
172
 21
-192
  0
CIRCLE
  5
233
100
AcDbEntity
  8
Slab Electrical
  6
ByLayer
 62
  256
370
   25
100
AcDbCircle
 10
171.9999959233994
 20
-192
 40
4
  0
CIRCLE
  5
234
100
AcDbEntity
  8
Slab Electrical
  6
ByLayer
 62
  256
370
   25
100
AcDbCircle
 10
88
 20
-191.9999999999999
 40
4
  0
LINE
  5
235
100
AcDbEntity
  8
Slab Electrical
  6
ByLayer
 62
   56
420
8421376
370
   25
100
AcDbLine
 10
88
 20
-192
 11
88
 21
-244
  0
LINE
  5
236
100
AcDbEntity
  8
Slab Electrical
  6
ByLayer
 62
   56
420
8421376
370
   25
100
AcDbLine
 10
12
 20
-192
 11
12
 21
-156
  0
LINE
  5
237
100
AcDbEntity
  8
Slab Electrical
  6
ByLayer
 62
  256
370
   25
100
AcDbLine
 10
264
 20
-260
 11
264.0000013374324
 21
-192
  0
LINE
  5
238
100
AcDbEntity
  8
Slab Electrical
  6
ByLayer
 62
  256
370
   25
100
AcDbLine
 10
96.00000000000003
 20
-351.9999993416452
 11
352
 21
-352
  0
TEXT
  5
239
100
AcDbEntity
  8
Slab Electrical
  6
ByLayer
 62
    6
370
   25
100
AcDbText
 10
252
 20
-504
 30
0
 40
5
  1
FAN
 50
0
 41
1
 51
0
  7
standard
 71
    0
210
0
220
0
230
1
100
AcDbText
  0
CIRCLE
  5
23A
100
AcDbEntity
  8
Slab Electrical
  6
ByLayer
 62
  256
370
   25
100
AcDbCircle
 10
312
 20
-492
 40
24
  0
TEXT
  5
23B
100
AcDbEntity
  8
Slab Electrical
  6
ByLayer
 62
    6
370
   25
100
AcDbText
 10
252
 20
-540
 30
0
 40
5
  1
Downlight
 50
0
 41
1
 51
0
  7
standard
 71
    0
210
0
220
0
230
1
100
AcDbText
  0
TEXT
  5
23C
100
AcDbEntity
  8
Slab Electrical
  6
ByLayer
 62
    6
370
   25
100
AcDbText
 10
252
 20
-576
 30
0
 40
5
  1
BOARDS 5A and 16A
 50
0
 41
1
 51
0
  7
standard
 71
    0
210
0
220
0
230
1
100
AcDbText
  0
CIRCLE
  5
23D
100
AcDbEntity
  8
Slab Electrical
  6
ByLayer
 62
  256
370
   25
100
AcDbCircle
 10
316
 20
-540
 40
4
  0
TEXT
  5
23E
100
AcDbEntity
  8
Slab Electrical
  6
ByLayer
 62
    6
370
   25
100
AcDbText
 10
252
 20
-600
 30
0
 40
5
  1
MAINBOARD
 50
0
 41
1
 51
0
  7
standard
 71
    0
210
0
220
0
230
1
100
AcDbText
  0
LINE
  5
23F
100
AcDbEntity
  8
Slab Electrical
  6
CONTINUOUS
 62
   56
420
8421376
370
   25
100
AcDbLine
 10
264
 20
-12
 11
264
 21
-192
  0
LINE
  5
240
100
AcDbEntity
  8
Slab Electrical
  6
ByLayer
 62
   56
420
8421376
370
   25
100
AcDbLine
 10
356
 20
-328
 11
356
 21
-192
  0
LINE
  5
241
100
AcDbEntity
  8
Slab Electrical
  6
ByLayer
 62
    4
370
   25
100
AcDbLine
 10
120
 20
-372
 11
120
 21
-188
  0
LINE
  5
242
100
AcDbEntity
  8
Slab Electrical
  6
ByLayer
 62
    4
370
   25
100
AcDbLine
 10
120
 20
-188
 11
152
 21
-188
  0
LINE
  5
243
100
AcDbEntity
  8
Slab Electrical
  6
ByLayer
 62
    4
370
   25
100
AcDbLine
 10
152
 20
-188
 11
152
 21
-172
  0
LINE
  5
244
100
AcDbEntity
  8
Slab Electrical
  6
ByLayer
 62
    4
370
   25
100
AcDbLine
 10
152
 20
-172
 11
8
 21
-88
  0
LINE
  5
245
100
AcDbEntity
  8
Slab Electrical
  6
ByLayer
 62
  256
370
   25
100
AcDbLine
 10
204
 20
-216
 11
56
 21
-216
  0
CIRCLE
  5
246
100
AcDbEntity
  8
Display
  6
ByLayer
 62
  256
370
   25
100
AcDbCircle
 10
359.9999999999998
 20
-692.0000000000022
 40
24
  0
LINE
  5
247
100
AcDbEntity
  8
Display
  6
ByLayer
 62
  256
370
   25
100
AcDbLine
 10
356.0542929995325
 20
-668.3265677125942
 11
346.8481831420395
 21
-710.4127595252519
  0
LINE
  5
248
100
AcDbEntity
  8
Display
  6
ByLayer
 62
  256
370
   25
100
AcDbLine
 10
356.0542929995325
 20
-668.3265677125942
 11
378.4127595252495
 21
-705.1518168579626
  0
LINE
  5
249
100
AcDbEntity
  8
Display
  6
ByLayer
 62
  256
370
   25
100
AcDbLine
 10
356.0542929995329
 20
-668.3265677125945
 11
355.7254840828272
 21
-666.3537816886441
  0
TEXT
  5
24A
100
AcDbEntity
  8
Display
  6
ByLayer
 62
  256
370
   25
100
AcDbText
 10
329.7506255454708
 20
-699.0693242328894
 30
0
 40
5
  1
W
 50
9.462640000000055
 41
1
 51
0
  7
standard
 71
    0
210
0
220
0
230
1
100
AcDbText
  0
TEXT
  5
24B
100
AcDbEntity
  8
Display
  6
ByLayer
 62
  256
370
   25
100
AcDbText
 10
364.4389541136667
 20
-724.7153738535402
 30
0
 40
5
  1
S
 50
9.462640000000055
 41
1
 51
0
  7
standard
 71
    0
210
0
220
0
230
1
100
AcDbText
  0
TEXT
  5
24C
100
AcDbEntity
  8
Display
  6
ByLayer
 62
  256
370
   25
100
AcDbText
 10
388.1122177103668
 20
-690.3558542020498
 30
0
 40
5
  1
E
 50
9.462640000000055
 41
1
 51
0
  7
standard
 71
    0
210
0
220
0
230
1
100
AcDbText
  0
LINE
  5
24D
100
AcDbEntity
  8
Display
  6
ByLayer
 62
  256
370
   25
100
AcDbLine
 10
340.2721397604935
 20
-695.288089167058
 11
334.3537816886417
 21
-696.2745159171748
  0
LINE
  5
24E
100
AcDbEntity
  8
Display
  6
ByLayer
 62
  256
370
   25
100
AcDbLine
 10
379.727860239506
 20
-688.7119108329463
 11
385.6462183113578
 21
-687.7254840828296
  0
LINE
  5
24F
100
AcDbEntity
  8
Display
  6
ByLayer
 62
  256
370
   25
100
AcDbLine
 10
363.2880891670557
 20
-711.7278602395083
 11
364.2745159171724
 21
-717.6462183113603
  0
LINE
  5
250
100
AcDbEntity
  8
Display
  6
ByLayer
 62
  256
370
   25
100
AcDbLine
 10
356.0542929995329
 20
-668.3265677125945
 11
359.9999999999998
 21
-692.0000000000022
  0
LINE
  5
251
100
AcDbEntity
  8
Display
  6
ByLayer
 62
  256
370
   25
100
AcDbLine
 10
346.8481831420395
 20
-710.4127595252519
 11
359.9999999999998
 21
-692.0000000000022
  0
LINE
  5
252
100
AcDbEntity
  8
Display
  6
ByLayer
 62
  256
370
   25
100
AcDbLine
 10
378.4127595252495
 20
-705.1518168579626
 11
359.9999999999998
 21
-692.0000000000022
  0
TEXT
  5
253
100
AcDbEntity
  8
Display
  6
ByLayer
 62
    3
370
   25
100
AcDbText
 10
353.5882936005236
 20
-665.6961975933722
 30
0
 40
5
  1
N
 50
9.462640000000055
 41
1
 51
0
  7
standard
 71
    0
210
0
220
0
230
1
100
AcDbText
  0
TEXT
  5
254
100
AcDbEntity
  8
roomname
  6
ByLayer
 62
  256
370
   25
100
AcDbText
 10
222
 20
-56
 30
0
 40
5
  1
w
 50
0
 41
1
 51
0
  7
standard
 71
    0
210
0
220
0
230
1
100
AcDbText
  0
ARC
  5
255
100
AcDbEntity
  8
walls
  6
ByLayer
 62
  256
370
   25
100
AcDbCircle
 10
65
 20
-255
 40
26
100
AcDbArc
 50
180
 51
270
  0
ARC
  5
256
100
AcDbEntity
  8
walls
  6
ByLayer
 62
  256
370
   25
100
AcDbCircle
 10
74
 20
-255
 40
26
100
AcDbArc
 50
270
 51
0
  0
ARC
  5
257
100
AcDbEntity
  8
walls
  6
ByLayer
 62
  256
370
   25
100
AcDbCircle
 10
111
 20
-324
 40
26
100
AcDbArc
 50
180
 51
270
  0
TEXT
  5
258
100
AcDbEntity
  8
roomname
  6
ByLayer
 62
  256
370
   25
100
AcDbText
 10
12
 20
-250
 30
0
 40
5
  1
Vent
 50
0
 41
1
 51
0
  7
standard
 71
    0
210
0
220
0
230
1
100
AcDbText
  0
LINE
  5
259
100
AcDbEntity
  8
walls
  6
ByLayer
 62
  256
370
   25
100
AcDbLine
 10
65
 20
-255
 11
65
 21
-281
  0
LINE
  5
25A
100
AcDbEntity
  8
walls
  6
ByLayer
 62
  256
370
   25
100
AcDbLine
 10
74
 20
-255
 11
74
 21
-281
  0
LINE
  5
25B
100
AcDbEntity
  8
walls
  6
ByLayer
 62
  256
370
   25
100
AcDbLine
 10
111
 20
-324
 11
85
 21
-324
  0
LINE
  5
25C
100
AcDbEntity
  8
furniture
  6
ByLayer
 62
  136
420
32896
370
   25
100
AcDbLine
 10
96
 20
-310
 11
96
 21
-313
  0
LINE
  5
25D
100
AcDbEntity
  8
plumbing
  6
ByLayer
 62
    4
370
   25
100
AcDbLine
 10
15.00000000000001
 20
-259
 11
15
 21
-263
  0
LINE
  5
25E
100
AcDbEntity
  8
plumbing
  6
ByLayer
 62
    4
370
   25
100
AcDbLine
 10
19
 20
-259
 11
19
 21
-263
  0
CIRCLE
  5
25F
100
AcDbEntity
  8
plumbing
  6
ByLayer
 62
    1
370
   25
100
AcDbCircle
 10
11
 20
-354
 40
2
  0
LINE
  5
260
100
AcDbEntity
  8
plumbing
  6
ByLayer
 62
    1
370
   25
100
AcDbLine
 10
11
 20
-352
 11
18
 21
-352
  0
LINE
  5
261
100
AcDbEntity
  8
plumbing
  6
ByLayer
 62
    1
370
   25
100
AcDbLine
 10
11.00000000000007
 20
-356
 11
18
 21
-356
  0
LINE
  5
262
100
AcDbEntity
  8
plumbing
  6
ByLayer
 62
    4
370
   25
100
AcDbLine
 10
13
 20
-217
 11
17
 21
-217
  0
CIRCLE
  5
263
100
AcDbEntity
  8
plumbing
  6
ByLayer
 62
    4
370
   25
100
AcDbCircle
 10
30
 20
-186
 40
2
  0
LINE
  5
264
100
AcDbEntity
  8
plumbing
  6
ByLayer
 62
    4
370
   25
100
AcDbLine
 10
28
 20
-186
 11
13
 21
-217
  0
LINE
  5
265
100
AcDbEntity
  8
plumbing
  6
ByLayer
 62
    4
370
   25
100
AcDbLine
 10
32
 20
-186.0000013525811
 11
17
 21
-217
  0
CIRCLE
  5
266
100
AcDbEntity
  8
plumbing
  6
ByLayer
 62
    4
370
   25
100
AcDbCircle
 10
60
 20
-185
 40
2
  0
LINE
  5
267
100
AcDbEntity
  8
plumbing
  6
ByLayer
 62
    4
370
   25
100
AcDbLine
 10
58
 20
-185
 11
19
 21
-217
  0
LINE
  5
268
100
AcDbEntity
  8
plumbing
  6
ByLayer
 62
    4
370
   25
100
AcDbLine
 10
62
 20
-185.0000013525811
 11
23
 21
-217
  0
LINE
  5
269
100
AcDbEntity
  8
plumbing
  6
ByLayer
 62
    4
370
   25
100
AcDbLine
 10
19
 20
-217
 11
23
 21
-217
  0
LINE
  5
26A
100
AcDbEntity
  8
plumbing
  6
ByLayer
 62
    4
370
   25
100
AcDbLine
 10
23
 20
-219
 11
23
 21
-223
  0
LINE
  5
26B
100
AcDbEntity
  8
plumbing
  6
ByLayer
 62
    4
370
   25
100
AcDbLine
 10
118
 20
-219
 11
23
 21
-219
  0
ARC
  5
26C
100
AcDbEntity
  8
plumbing
  6
ByLayer
 62
    4
370
   25
100
AcDbCircle
 10
118
 20
-223
 40
4.000000000000001
100
AcDbArc
 50
0
 51
90
  0
LINE
  5
26D
100
AcDbEntity
  8
plumbing
  6
ByLayer
 62
    4
370
   25
100
AcDbLine
 10
23
 20
-223
 11
118
 21
-223
  0
CIRCLE
  5
26E
100
AcDbEntity
  8
plumbing
  6
ByLayer
 62
    4
370
   25
100
AcDbCircle
 10
102
 20
-316
 40
2
  0
CIRCLE
  5
26F
100
AcDbEntity
  8
plumbing
  6
ByLayer
 62
    4
370
   25
100
AcDbCircle
 10
102
 20
-354
 40
2
  0
CIRCLE
  5
270
100
AcDbEntity
  8
plumbing
  6
ByLayer
 62
    4
370
   25
100
AcDbCircle
 10
359
 20
-184
 40
2
  0
LINE
  5
271
100
AcDbEntity
  8
plumbing
  6
ByLayer
 62
    4
370
   25
100
AcDbLine
 10
114
 20
-219
 11
114
 21
-223
  0
LINE
  5
272
100
AcDbEntity
  8
plumbing
  6
ByLayer
 62
    4
370
   25
100
AcDbLine
 10
118
 20
-227
 11
122
 21
-227
  0
LWPOLYLINE
  5
273
100
AcDbEntity
  8
plumbing
  6
ByLayer
 62
    4
370
   25
100
AcDbPolyline
 90
    2
 70
    1
 43
0
 10
357
 20
-188
 10
361
 20
-188
  0
LINE
  5
274
100
AcDbEntity
  8
plumbing
  6
ByLayer
 62
    4
370
   25
100
AcDbLine
 10
118
 20
-300
 11
122
 21
-300
  0
CIRCLE
  5
275
100
AcDbEntity
  8
plumbing
  6
ByLayer
 62
    4
370
   25
100
AcDbCircle
 10
115
 20
-295
 40
1
  0
LINE
  5
276
100
AcDbEntity
  8
plumbing
  6
ByLayer
 62
    4
370
   25
100
AcDbLine
 10
114
 20
-295
 11
115
 21
-300
  0
LINE
  5
277
100
AcDbEntity
  8
plumbing
  6
ByLayer
 62
    4
370
   25
100
AcDbLine
 10
115
 20
-300
 11
117
 21
-300
  0
LINE
  5
278
100
AcDbEntity
  8
plumbing
  6
ByLayer
 62
    4
370
   25
100
AcDbLine
 10
117
 20
-300
 11
116
 21
-295
  0
LINE
  5
279
100
AcDbEntity
  8
plumbing
  6
ByLayer
 62
    4
370
   25
100
AcDbLine
 10
125
 20
-300
 11
125
 21
-304
  0
LINE
  5
27A
100
AcDbEntity
  8
plumbing
  6
ByLayer
 62
    4
370
   25
100
AcDbLine
 10
125
 20
-304
 11
357
 21
-304
  0
LINE
  5
27B
100
AcDbEntity
  8
plumbing
  6
ByLayer
 62
    4
370
   25
100
AcDbLine
 10
357
 20
-300
 11
125
 21
-300
  0
LINE
  5
27C
100
AcDbEntity
  8
plumbing
  6
ByLayer
 62
    4
370
   25
100
AcDbLine
 10
353
 20
-300
 11
353
 21
-304
  0
LINE
  5
27D
100
AcDbEntity
  8
plumbing
  6
ByLayer
 62
    4
370
   25
100
AcDbLine
 10
361
 20
-300
 11
361
 21
-184.0000061445899
  0
ARC
  5
27E
100
AcDbEntity
  8
plumbing
  6
ByLayer
 62
    4
370
   25
100
AcDbCircle
 10
357
 20
-300
 40
4.000000000000001
100
AcDbArc
 50
270
 51
0
  0
LINE
  5
27F
100
AcDbEntity
  8
plumbing
  6
ByLayer
 62
    4
370
   25
100
AcDbLine
 10
357
 20
-296
 11
361
 21
-296
  0
LINE
  5
280
100
AcDbEntity
  8
plumbing
  6
ByLayer
 62
    4
370
   25
100
AcDbLine
 10
357
 20
-292
 11
361
 21
-292
  0
LINE
  5
281
100
AcDbEntity
  8
plumbing
  6
ByLayer
 62
    4
370
   25
100
AcDbLine
 10
361
 20
-288
 11
357
 21
-288
  0
LINE
  5
282
100
AcDbEntity
  8
plumbing
  6
ByLayer
 62
    4
370
   25
100
AcDbLine
 10
357
 20
-284
 11
361
 21
-284
  0
CIRCLE
  5
283
100
AcDbEntity
  8
plumbing
  6
ByLayer
 62
    4
370
   25
100
AcDbCircle
 10
359
 20
-290
 40
2
  0
LINE
  5
284
100
AcDbEntity
  8
plumbing
  6
ByLayer
 62
    4
370
   25
100
AcDbLine
 10
357
 20
-184
 11
357
 21
-300
  0
LINE
  5
285
100
AcDbEntity
  8
plumbing
  6
ByLayer
 62
    4
370
   25
100
AcDbLine
 10
100
 20
-320
 11
104
 21
-320
  0
LINE
  5
286
100
AcDbEntity
  8
plumbing
  6
ByLayer
 62
    4
370
   25
100
AcDbLine
 10
104
 20
-305
 11
115
 21
-305
  0
LINE
  5
287
100
AcDbEntity
  8
plumbing
  6
ByLayer
 62
    4
370
   25
100
AcDbLine
 10
115
 20
-305
 11
115
 21
-301
  0
ARC
  5
288
100
AcDbEntity
  8
plumbing
  6
ByLayer
 62
    4
370
   25
100
AcDbCircle
 10
104
 20
-305
 40
4
100
AcDbArc
 50
90
 51
180
  0
LINE
  5
289
100
AcDbEntity
  8
plumbing
  6
ByLayer
 62
    4
370
   25
100
AcDbLine
 10
115
 20
-301
 11
104
 21
-301
  0
LINE
  5
28A
100
AcDbEntity
  8
plumbing
  6
ByLayer
 62
    4
370
   25
100
AcDbLine
 10
100.0000000000006
 20
-305
 11
100
 21
-312
  0
LINE
  5
28B
100
AcDbEntity
  8
plumbing
  6
ByLayer
 62
    4
370
   25
100
AcDbLine
 10
104
 20
-305
 11
104
 21
-312
  0
LINE
  5
28C
100
AcDbEntity
  8
plumbing
  6
ByLayer
 62
    4
370
   25
100
AcDbLine
 10
107
 20
-301
 11
107
 21
-305
  0
LINE
  5
28D
100
AcDbEntity
  8
plumbing
  6
ByLayer
 62
    4
370
   25
100
AcDbLine
 10
100
 20
-308
 11
104
 21
-308.000008
  0
LINE
  5
28E
100
AcDbEntity
  8
plumbing
  6
ByLayer
 62
    4
370
   25
100
AcDbLine
 10
124
 20
-310
 11
120
 21
-310
  0
LINE
  5
28F
100
AcDbEntity
  8
plumbing
  6
ByLayer
 62
    4
370
   25
100
AcDbLine
 10
120
 20
-310
 11
120
 21
-384
  0
LINE
  5
290
100
AcDbEntity
  8
plumbing
  6
ByLayer
 62
    4
370
   25
100
AcDbLine
 10
120
 20
-384
 11
124
 21
-384
  0
LINE
  5
291
100
AcDbEntity
  8
plumbing
  6
ByLayer
 62
    4
370
   25
100
AcDbLine
 10
124
 20
-384
 11
124
 21
-310
  0
LINE
  5
292
100
AcDbEntity
  8
plumbing
  6
ByLayer
 62
    4
370
   25
100
AcDbLine
 10
118
 20
-223
 11
118
 21
-300
  0
LINE
  5
293
100
AcDbEntity
  8
plumbing
  6
ByLayer
 62
    4
370
   25
100
AcDbLine
 10
122
 20
-300
 11
122
 21
-223
  0
CIRCLE
  5
294
100
AcDbEntity
  8
plumbing
  6
ByLayer
 62
    1
370
   25
100
AcDbCircle
 10
20
 20
-330
 40
2
  0
LINE
  5
295
100
AcDbEntity
  8
plumbing
  6
ByLayer
 62
    1
370
   25
100
AcDbLine
 10
18
 20
-334
 11
22
 21
-334
  0
LINE
  5
296
100
AcDbEntity
  8
plumbing
  6
ByLayer
 62
    1
370
   25
100
AcDbLine
 10
88
 20
-294
 11
92
 21
-294
  0
ARC
  5
297
100
AcDbEntity
  8
walls
  6
ByLayer
 62
  256
370
   25
100
AcDbCircle
 10
223
 20
-179
 40
38
100
AcDbArc
 50
90
 51
180
  0
LINE
  5
298
100
AcDbEntity
  8
walls
  6
ByLayer
 62
  256
370
   25
100
AcDbLine
 10
223
 20
-141
 11
223
 21
-179
  0
ARC
  5
299
100
AcDbEntity
  8
walls
  6
ByLayer
 62
  256
370
   25
100
AcDbCircle
 10
236
 20
-179
 40
38
100
AcDbArc
 50
0
 51
90
  0
LINE
  5
29A
100
AcDbEntity
  8
walls
  6
ByLayer
 62
  256
370
   25
100
AcDbLine
 10
236
 20
-141
 11
236
 21
-172
  0
CIRCLE
  5
29B
100
AcDbEntity
  8
plumbing
  6
ByLayer
 62
    4
370
   25
100
AcDbCircle
 10
11
 20
-363
 40
2
  0
LINE
  5
29C
100
AcDbEntity
  8
plumbing
  6
ByLayer
 62
    4
370
   25
100
AcDbLine
 10
11
 20
-365
 11
-2
 21
-365
  0
LINE
  5
29D
100
AcDbEntity
  8
plumbing
  6
ByLayer
 62
    4
370
   25
100
AcDbLine
 10
10.99999504311268
 20
-361
 11
-2
 21
-361
  0
LINE
  5
29E
100
AcDbEntity
  8
plumbing
  6
ByLayer
 62
    4
370
   25
100
AcDbLine
 10
-2
 20
-361
 11
-2
 21
-365
  0
LINE
  5
29F
100
AcDbEntity
  8
plumbing
  6
ByLayer
 62
    4
370
   25
100
AcDbLine
 10
125
 20
-393
 11
129
 21
-393
  0
LINE
  5
2A0
100
AcDbEntity
  8
plumbing
  6
ByLayer
 62
    4
370
   25
100
AcDbLine
 10
156
 20
-434
 11
152
 21
-434
  0
LINE
  5
2A1
100
AcDbEntity
  8
plumbing
  6
ByLayer
 62
    4
370
   25
100
AcDbLine
 10
129
 20
-393
 11
156
 21
-434
  0
LINE
  5
2A2
100
AcDbEntity
  8
plumbing
  6
ByLayer
 62
    4
370
   25
100
AcDbLine
 10
125
 20
-393
 11
152
 21
-434
  0
CIRCLE
  5
2A3
100
AcDbEntity
  8
plumbing
  6
ByLayer
 62
    4
370
   25
100
AcDbCircle
 10
162
 20
-444
 40
30
  0
LINE
  5
2A4
100
AcDbEntity
  8
Display
  6
ByLayer
 62
  256
370
   25
100
AcDbLine
 10
-36
 20
-684
 11
256
 21
-684
  0
LINE
  5
2A5
100
AcDbEntity
  8
Display
  6
ByLayer
 62
  256
370
   25
100
AcDbLine
 10
-36
 20
-648
 11
434
 21
-648
  0
LINE
  5
2A6
100
AcDbEntity
  8
Display
  6
ByLayer
 62
  256
370
   25
100
AcDbLine
 10
-36
 20
-688
 11
256
 21
-688
  0
LINE
  5
2A7
100
AcDbEntity
  8
Display
  6
ByLayer
 62
  256
370
   25
100
AcDbLine
 10
256
 20
-652
 11
256
 21
-732
  0
CIRCLE
  5
2A8
100
AcDbEntity
  8
plumbing
  6
ByLayer
 62
    1
370
   25
100
AcDbCircle
 10
90
 20
-290
 40
2
  0
LWPOLYLINE
  5
2A9
100
AcDbEntity
  8
furniture
  6
ByLayer
 62
  256
370
   25
100
AcDbPolyline
 90
    4
 70
    1
 43
0
 10
86
 20
-183
 10
108
 20
-183
 10
108
 20
-204
 10
86
 20
-204
  0
LWPOLYLINE
  5
2AA
100
AcDbEntity
  8
furniture
  6
ByLayer
 62
  256
370
   25
100
AcDbPolyline
 90
    4
 70
    1
 43
0
 10
88
 20
-185
 10
106
 20
-185
 10
106
 20
-198
 10
88
 20
-198
  0
LWPOLYLINE
  5
2AB
100
AcDbEntity
  8
furniture
  6
ByLayer
 62
  256
370
   25
100
AcDbPolyline
 90
    4
 70
    1
 43
0
 10
88
 20
-199
 10
106
 20
-199
 10
106
 20
-203
 10
88
 20
-203
  0
LWPOLYLINE
  5
2AC
100
AcDbEntity
  8
Display
  6
ByLayer
 62
  256
370
   25
100
AcDbPolyline
 90
    4
 70
    1
 43
0
 10
-36
 20
22
 10
434
 20
22
 10
434
 20
-732
 10
-36
 20
-732
  0
LWPOLYLINE
  5
2AD
100
AcDbEntity
  8
plumbing
  6
ByLayer
 62
    1
370
   25
100
AcDbPolyline
 90
    4
 70
    1
 43
0
 10
117
 20
-396
 10
8
 20
-396
 10
8
 20
-456
 10
117
 20
-456
  0
LWPOLYLINE
  5
2AE
100
AcDbEntity
  8
plumbing
  6
ByLayer
 62
    4
370
   25
100
AcDbPolyline
 90
    4
 70
    1
 43
0
 10
118
 20
-382
 10
130
 20
-382
 10
130
 20
-394
 10
118
 20
-394
  0
LWPOLYLINE
  5
2AF
100
AcDbEntity
  8
plumbing
  6
ByLayer
 62
    4
370
   25
100
AcDbPolyline
 90
    4
 70
    1
 43
0
 10
120
 20
-386
 10
-2
 20
-386
 10
-2
 20
-390
 10
120
 20
-390
  0
LWPOLYLINE
  5
2B0
100
AcDbEntity
  8
plumbing
  6
ByLayer
 62
    4
370
   25
100
AcDbPolyline
 90
    4
 70
    1
 43
0
 10
100
 20
-312
 10
104
 20
-312
 10
104
 20
-356
 10
100
 20
-356
  0
LWPOLYLINE
  5
2B1
100
AcDbEntity
  8
plumbing
  6
ByLayer
 62
    4
370
   25
100
AcDbPolyline
 90
    4
 70
    1
 43
0
 10
114
 20
-299
 10
126
 20
-299
 10
126
 20
-311
 10
114
 20
-311
  0
LWPOLYLINE
  5
2B2
100
AcDbEntity
  8
pillars
  6
ByLayer
 62
  256
370
   25
100
AcDbPolyline
 90
    4
 70
    1
 43
0
 10
108
 20
-172
 10
120
 20
-172
 10
120
 20
-181
 10
108
 20
-181
  0
LWPOLYLINE
  5
2B3
100
AcDbEntity
  8
pillars
  6
ByLayer
 62
  256
370
   25
100
AcDbPolyline
 90
    4
 70
    1
 43
0
 10
225
 20
-172
 10
237
 20
-172
 10
237
 20
-181
 10
225
 20
-181
  0
LWPOLYLINE
  5
2B4
100
AcDbEntity
  8
pillars
  6
ByLayer
 62
  256
370
   25
100
AcDbPolyline
 90
    4
 70
    1
 43
0
 10
9
 20
-172
 10
0
 20
-172
 10
0
 20
-181
 10
9
 20
-181
  0
LWPOLYLINE
  5
2B5
100
AcDbEntity
  8
pillars
  6
ByLayer
 62
  256
370
   25
100
AcDbPolyline
 90
    4
 70
    1
 43
0
 10
0
 20
0
 10
9
 20
0
 10
9
 20
-9
 10
0
 20
-9
  0
LWPOLYLINE
  5
2B6
100
AcDbEntity
  8
pillars
  6
ByLayer
 62
  256
370
   25
100
AcDbPolyline
 90
    4
 70
    1
 43
0
 10
108
 20
0
 10
120
 20
0
 10
120
 20
-9
 10
108
 20
-9
  0
LWPOLYLINE
  5
2B7
100
AcDbEntity
  8
pillars
  6
ByLayer
 62
  256
370
   25
100
AcDbPolyline
 90
    4
 70
    1
 43
0
 10
225
 20
0
 10
234
 20
0
 10
234
 20
-9
 10
225
 20
-9
  0
LWPOLYLINE
  5
2B8
100
AcDbEntity
  8
pillars
  6
ByLayer
 62
  256
370
   25
100
AcDbPolyline
 90
    4
 70
    1
 43
0
 10
360
 20
0
 10
369
 20
0
 10
369
 20
-9
 10
360
 20
-9
  0
LWPOLYLINE
  5
2B9
100
AcDbEntity
  8
pillars
  6
ByLayer
 62
  256
370
   25
100
AcDbPolyline
 90
    4
 70
    1
 43
0
 10
360
 20
-172
 10
369
 20
-172
 10
369
 20
-181
 10
360
 20
-181
  0
LWPOLYLINE
  5
2BA
100
AcDbEntity
  8
pillars
  6
ByLayer
 62
  256
370
   25
100
AcDbPolyline
 90
    4
 70
    1
 43
0
 10
360
 20
-352
 10
369
 20
-352
 10
369
 20
-361
 10
360
 20
-361
  0
LWPOLYLINE
  5
2BB
100
AcDbEntity
  8
pillars
  6
ByLayer
 62
  256
370
   25
100
AcDbPolyline
 90
    4
 70
    1
 43
0
 10
108
 20
-352
 10
117
 20
-352
 10
117
 20
-361
 10
108
 20
-361
  0
LWPOLYLINE
  5
2BC
100
AcDbEntity
  8
pillars
  6
ByLayer
 62
  256
370
   25
100
AcDbPolyline
 90
    4
 70
    1
 43
0
 10
0
 20
-352
 10
9
 20
-352
 10
9
 20
-361
 10
0
 20
-361
  0
LWPOLYLINE
  5
2BD
100
AcDbEntity
  8
plumbing
  6
ByLayer
 62
    4
370
   25
100
AcDbPolyline
 90
    4
 70
    1
 43
0
 10
12
 20
-216
 10
24
 20
-216
 10
24
 20
-228
 10
12
 20
-228
  0
LWPOLYLINE
  5
2BE
100
AcDbEntity
  8
plumbing
  6
ByLayer
 62
    4
370
   25
100
AcDbPolyline
 90
    4
 70
    1
 43
0
 10
19
 20
-259
 10
15
 20
-259
 10
15
 20
-227
 10
19
 20
-227
  0
CIRCLE
  5
2BF
100
AcDbEntity
  8
plumbing
  6
ByLayer
 62
    4
370
   25
100
AcDbCircle
 10
17
 20
-263
 40
2
  0
LWPOLYLINE
  5
2C0
100
AcDbEntity
  8
plumbing
  6
ByLayer
 62
    1
370
   25
100
AcDbPolyline
 90
    4
 70
    1
 43
0
 10
18
 20
-326
 10
22
 20
-326
 10
22
 20
-402
 10
18
 20
-402
  0
LWPOLYLINE
  5
2C1
100
AcDbEntity
  8
plumbing
  6
ByLayer
 62
    1
370
   25
100
AcDbPolyline
 90
    4
 70
    1
 43
0
 10
88
 20
-286
 10
92
 20
-286
 10
92
 20
-402
 10
88
 20
-402
  0
LWPOLYLINE
  5
2C2
100
AcDbEntity
  8
Display
  6
ByLayer
 62
  256
370
   25
100
AcDbPolyline
 90
    4
 70
    1
 43
0
 10
436
 20
-736
 10
-38
 20
-736
 10
-38
 20
24
 10
436
 20
24
  0
LWPOLYLINE
  5
2C3
100
AcDbEntity
  8
walls
  6
ByLayer
 62
  256
370
   25
100
AcDbPolyline
 90
    4
 70
    1
 43
0
 10
5
 20
-9
 10
0
 20
-9
 10
0
 20
-352
 10
5
 20
-352
  0
LWPOLYLINE
  5
2C4
100
AcDbEntity
  8
walls
  6
ByLayer
 62
  256
370
   25
100
AcDbPolyline
 90
    4
 70
    1
 43
0
 10
9
 20
-356
 10
108
 20
-356
 10
108
 20
-361
 10
9
 20
-361
  0
LWPOLYLINE
  5
2C5
100
AcDbEntity
  8
walls
  6
ByLayer
 62
  256
370
   25
100
AcDbPolyline
 90
    4
 70
    1
 43
0
 10
113
 20
-352
 10
111
 20
-352
 10
111
 20
-350
 10
113
 20
-350
  0
LWPOLYLINE
  5
2C6
100
AcDbEntity
  8
walls
  6
ByLayer
 62
  256
370
   25
100
AcDbPolyline
 90
    4
 70
    1
 43
0
 10
113
 20
-322
 10
111
 20
-322
 10
111
 20
-324
 10
113
 20
-324
  0
LWPOLYLINE
  5
2C7
100
AcDbEntity
  8
walls
  6
ByLayer
 62
  256
370
   25
100
AcDbPolyline
 90
    4
 70
    1
 43
0
 10
5
 20
-305
 10
108
 20
-305
 10
108
 20
-310
 10
5
 20
-310
  0
LWPOLYLINE
  5
2C8
100
AcDbEntity
  8
walls
  6
ByLayer
 62
  256
370
   25
100
AcDbPolyline
 90
    4
 70
    1
 43
0
 10
72
 20
-305
 10
67
 20
-305
 10
67
 20
-253
 10
72
 20
-253
  0
LWPOLYLINE
  5
2C9
100
AcDbEntity
  8
walls
  6
ByLayer
 62
  256
370
   25
100
AcDbPolyline
 90
    4
 70
    1
 43
0
 10
67
 20
-253
 10
65
 20
-253
 10
65
 20
-255
 10
67
 20
-255
  0
LWPOLYLINE
  5
2CA
100
AcDbEntity
  8
walls
  6
ByLayer
 62
  256
370
   25
100
AcDbPolyline
 90
    4
 70
    1
 43
0
 10
72
 20
-253
 10
74
 20
-253
 10
74
 20
-255
 10
72
 20
-255
  0
LWPOLYLINE
  5
2CB
100
AcDbEntity
  8
walls
  6
ByLayer
 62
  256
370
   25
100
AcDbPolyline
 90
    4
 70
    1
 43
0
 10
37
 20
-253
 10
5
 20
-253
 10
5
 20
-258
 10
37
 20
-258
  0
LWPOLYLINE
  5
2CC
100
AcDbEntity
  8
walls
  6
ByLayer
 62
  256
370
   25
100
AcDbPolyline
 90
    4
 70
    1
 43
0
 10
33
 20
-253
 10
36
 20
-253
 10
36
 20
-206
 10
33
 20
-206
  0
LWPOLYLINE
  5
2CD
100
AcDbEntity
  8
walls
  6
ByLayer
 62
  256
370
   25
100
AcDbPolyline
 90
    4
 70
    1
 43
0
 10
32
 20
-206
 10
37
 20
-206
 10
37
 20
-181
 10
32
 20
-181
  0
LWPOLYLINE
  5
2CE
100
AcDbEntity
  8
walls
  6
ByLayer
 62
  256
370
   25
100
AcDbPolyline
 90
    4
 70
    1
 43
0
 10
32
 20
-176
 10
126
 20
-176
 10
126
 20
-181
 10
32
 20
-181
  0
LWPOLYLINE
  5
2CF
100
AcDbEntity
  8
walls
  6
ByLayer
 62
  256
370
   25
100
AcDbPolyline
 90
    4
 70
    1
 43
0
 10
126
 20
-177
 10
174
 20
-177
 10
174
 20
-180
 10
126
 20
-180
  0
LWPOLYLINE
  5
2D0
100
AcDbEntity
  8
walls
  6
ByLayer
 62
  256
370
   25
100
AcDbPolyline
 90
    4
 70
    1
 43
0
 10
32
 20
-177
 10
9
 20
-177
 10
9
 20
-180
 10
32
 20
-180
  0
LWPOLYLINE
  5
2D1
100
AcDbEntity
  8
walls
  6
ByLayer
 62
  256
370
   25
100
AcDbPolyline
 90
    4
 70
    1
 43
0
 10
9
 20
0
 10
360
 20
0
 10
360
 20
-5
 10
9
 20
-5
  0
LWPOLYLINE
  5
2D2
100
AcDbEntity
  8
walls
  6
ByLayer
 62
  256
370
   25
100
AcDbPolyline
 90
    4
 70
    1
 43
0
 10
364
 20
-9
 10
369
 20
-9
 10
369
 20
-352
 10
364
 20
-352
  0
LWPOLYLINE
  5
2D3
100
AcDbEntity
  8
walls
  6
ByLayer
 62
  256
370
   25
100
AcDbPolyline
 90
    4
 70
    1
 43
0
 10
100
 20
-253
 10
102
 20
-253
 10
102
 20
-255
 10
100
 20
-255
  0
LWPOLYLINE
  5
2D4
100
AcDbEntity
  8
walls
  6
ByLayer
 62
  256
370
   25
100
AcDbPolyline
 90
    4
 70
    1
 43
0
 10
39
 20
-255
 10
37
 20
-255
 10
37
 20
-253
 10
39
 20
-253
  0
LWPOLYLINE
  5
2D5
100
AcDbEntity
  8
walls
  6
ByLayer
 62
  256
370
   25
100
AcDbPolyline
 90
    4
 70
    1
 43
0
 10
174
 20
-176
 10
183
 20
-176
 10
183
 20
-181
 10
174
 20
-181
  0
LWPOLYLINE
  5
2D6
100
AcDbEntity
  8
walls
  6
ByLayer
 62
  256
370
   25
100
AcDbPolyline
 90
    4
 70
    1
 43
0
 10
185
 20
-179
 10
183
 20
-179
 10
183
 20
-181
 10
185
 20
-181
  0
LWPOLYLINE
  5
2D7
100
AcDbEntity
  8
walls
  6
ByLayer
 62
  256
370
   25
100
AcDbPolyline
 90
    4
 70
    1
 43
0
 10
225
 20
-181
 10
223
 20
-181
 10
223
 20
-179
 10
225
 20
-179
  0
LWPOLYLINE
  5
2D8
100
AcDbEntity
  8
walls
  6
ByLayer
 62
  256
370
   25
100
AcDbPolyline
 90
    4
 70
    1
 43
0
 10
234
 20
-172
 10
229
 20
-172
 10
229
 20
-69
 10
234
 20
-69
  0
LWPOLYLINE
  5
2D9
100
AcDbEntity
  8
walls
  6
ByLayer
 62
  256
370
   25
100
AcDbPolyline
 90
    4
 70
    1
 43
0
 10
230
 20
-69
 10
233
 20
-69
 10
233
 20
-39
 10
230
 20
-39
  0
LWPOLYLINE
  5
2DA
100
AcDbEntity
  8
walls
  6
ByLayer
 62
  256
370
   25
100
AcDbPolyline
 90
    4
 70
    1
 43
0
 10
234
 20
-39
 10
229
 20
-39
 10
229
 20
-9
 10
234
 20
-9
  0
LWPOLYLINE
  5
2DB
100
AcDbEntity
  8
walls
  6
ByLayer
 62
  256
370
   25
100
AcDbPolyline
 90
    4
 70
    1
 43
0
 10
274
 20
-179
 10
276
 20
-179
 10
276
 20
-181
 10
274
 20
-181
  0
LWPOLYLINE
  5
2DC
100
AcDbEntity
  8
walls
  6
ByLayer
 62
  256
370
   25
100
AcDbPolyline
 90
    4
 70
    1
 43
0
 10
276
 20
-181
 10
286
 20
-181
 10
286
 20
-176
 10
276
 20
-176
  0
LWPOLYLINE
  5
2DD
100
AcDbEntity
  8
walls
  6
ByLayer
 62
  256
370
   25
100
AcDbPolyline
 90
    4
 70
    1
 43
0
 10
286
 20
-180
 10
322
 20
-180
 10
322
 20
-177
 10
286
 20
-177
  0
LWPOLYLINE
  5
2DE
100
AcDbEntity
  8
walls
  6
ByLayer
 62
  256
370
   25
100
AcDbPolyline
 90
    4
 70
    1
 43
0
 10
322
 20
-176
 10
360
 20
-176
 10
360
 20
-181
 10
322
 20
-181
  0
DIMENSION
  5
2DF
100
AcDbEntity
  8
dimensions
  6
ByLayer
 62
  256
370
   25
100
AcDbDimension
  2
*D14
 10
216
 20
-356
 30
0
 11
213.475
 21
-338
 31
0
 70
   33
 71
    5
 72
    0
  3
Standard
 53
0
210
0
220
0
230
1
100
AcDbAlignedDimension
 13
223
 23
-320
 33
0
 14
223
 24
-356
 34
0
  0
DIMENSION
  5
2E0
100
AcDbEntity
  8
dimensions
  6
ByLayer
 62
  256
370
   25
100
AcDbDimension
  2
*D15
 10
216
 20
-308
 30
0
 11
213.475
 21
-290
 31
0
 70
   33
 71
    5
  3
Standard
 53
0
210
0
220
0
230
1
100
AcDbAlignedDimension
 13
223
 23
-272
 33
0
 14
223
 24
-308
 34
0
  0
TEXT
  5
2E1
100
AcDbEntity
  8
roomname
  6
ByLayer
 62
  256
370
   25
100
AcDbText
 10
239
 20
-337
 30
0
 40
5
  1
1
 50
0
 41
1
 51
0
  7
standard
 71
    0
210
0
220
0
230
1
100
AcDbText
  0
TEXT
  5
2E2
100
AcDbEntity
  8
roomname
  6
ByLayer
 62
  256
370
   25
100
AcDbText
 10
220
 20
-337
 30
0
 40
5
  1
0
 50
0
 41
1
 51
0
  7
standard
 71
    0
210
0
220
0
230
1
100
AcDbText
  0
LINE
  5
2E3
100
AcDbEntity
  8
walls
  6
ByLayer
 62
  256
370
   25
100
AcDbLine
 10
235
 20
-320
 11
235
 21
-356
  0
LINE
  5
2E4
100
AcDbEntity
  8
walls
  6
ByLayer
 62
  256
370
   25
100
AcDbLine
 10
245
 20
-320
 11
245
 21
-356
  0
LINE
  5
2E5
100
AcDbEntity
  8
walls
  6
ByLayer
 62
  256
370
   25
100
AcDbLine
 10
255
 20
-320
 11
255
 21
-356
  0
LINE
  5
2E6
100
AcDbEntity
  8
walls
  6
ByLayer
 62
  256
370
   25
100
AcDbLine
 10
265
 20
-320
 11
265
 21
-356
  0
LINE
  5
2E7
100
AcDbEntity
  8
walls
  6
ByLayer
 62
  256
370
   25
100
AcDbLine
 10
275
 20
-320
 11
275
 21
-356
  0
LINE
  5
2E8
100
AcDbEntity
  8
walls
  6
ByLayer
 62
  256
370
   25
100
AcDbLine
 10
285
 20
-320
 11
285
 21
-356
  0
LINE
  5
2E9
100
AcDbEntity
  8
walls
  6
ByLayer
 62
  256
370
   25
100
AcDbLine
 10
295
 20
-320
 11
295
 21
-356
  0
LINE
  5
2EA
100
AcDbEntity
  8
walls
  6
ByLayer
 62
  256
370
   25
100
AcDbLine
 10
305
 20
-320
 11
305
 21
-356
  0
LINE
  5
2EB
100
AcDbEntity
  8
walls
  6
ByLayer
 62
  256
370
   25
100
AcDbLine
 10
315
 20
-320
 11
315
 21
-356
  0
LINE
  5
2EC
100
AcDbEntity
  8
walls
  6
ByLayer
 62
  256
370
   25
100
AcDbLine
 10
325
 20
-320
 11
325
 21
-356
  0
LINE
  5
2ED
100
AcDbEntity
  8
walls
  6
ByLayer
 62
  256
370
   25
100
AcDbLine
 10
335
 20
-320
 11
335
 21
-356
  0
LINE
  5
2EE
100
AcDbEntity
  8
walls
  6
ByLayer
 62
  256
370
   25
100
AcDbLine
 10
235
 20
-272
 11
235
 21
-308
  0
LINE
  5
2EF
100
AcDbEntity
  8
walls
  6
ByLayer
 62
  256
370
   25
100
AcDbLine
 10
245
 20
-272
 11
245
 21
-308
  0
LINE
  5
2F0
100
AcDbEntity
  8
walls
  6
ByLayer
 62
  256
370
   25
100
AcDbLine
 10
255
 20
-272
 11
255
 21
-308
  0
LINE
  5
2F1
100
AcDbEntity
  8
walls
  6
ByLayer
 62
  256
370
   25
100
AcDbLine
 10
265
 20
-272
 11
265
 21
-308
  0
LINE
  5
2F2
100
AcDbEntity
  8
walls
  6
ByLayer
 62
  256
370
   25
100
AcDbLine
 10
275
 20
-272
 11
275
 21
-308
  0
LINE
  5
2F3
100
AcDbEntity
  8
walls
  6
ByLayer
 62
  256
370
   25
100
AcDbLine
 10
285
 20
-272
 11
285
 21
-308
  0
LINE
  5
2F4
100
AcDbEntity
  8
walls
  6
ByLayer
 62
  256
370
   25
100
AcDbLine
 10
295
 20
-272
 11
295
 21
-308
  0
LINE
  5
2F5
100
AcDbEntity
  8
walls
  6
ByLayer
 62
  256
370
   25
100
AcDbLine
 10
305
 20
-272
 11
305
 21
-308
  0
LINE
  5
2F6
100
AcDbEntity
  8
walls
  6
ByLayer
 62
  256
370
   25
100
AcDbLine
 10
315
 20
-272
 11
315
 21
-308
  0
LINE
  5
2F7
100
AcDbEntity
  8
walls
  6
ByLayer
 62
  256
370
   25
100
AcDbLine
 10
325
 20
-272
 11
325
 21
-308
  0
LINE
  5
2F8
100
AcDbEntity
  8
walls
  6
ByLayer
 62
  256
370
   25
100
AcDbLine
 10
335
 20
-272
 11
335
 21
-308
  0
LINE
  5
2F9
100
AcDbEntity
  8
walls
  6
ByLayer
 62
  256
370
   25
100
AcDbLine
 10
335
 20
-308
 11
335
 21
-320
  0
LINE
  5
2FA
100
AcDbEntity
  8
walls
  6
ByLayer
 62
  256
370
   25
100
AcDbLine
 10
235
 20
-320
 11
335
 21
-320
  0
LINE
  5
2FB
100
AcDbEntity
  8
walls
  6
ByLayer
 62
  256
370
   25
100
AcDbLine
 10
235
 20
-272
 11
364
 21
-272
  0
LINE
  5
2FC
100
AcDbEntity
  8
walls
  6
ByLayer
 62
  256
370
   25
100
AcDbLine
 10
235
 20
-308
 11
335
 21
-308
  0
LWPOLYLINE
  5
2FD
100
AcDbEntity
  8
walls
  6
ByLayer
 62
  256
370
   25
100
AcDbPolyline
 90
    4
 70
    1
 43
0
 10
108
 20
-258
 10
113
 20
-258
 10
113
 20
-322
 10
108
 20
-322
  0
LWPOLYLINE
  5
2FE
100
AcDbEntity
  8
walls
  6
ByLayer
 62
  256
370
   25
100
AcDbPolyline
 90
    4
 70
    1
 43
0
 10
113
 20
-253
 10
102
 20
-253
 10
102
 20
-258
 10
113
 20
-258
  0
LWPOLYLINE
  5
2FF
100
AcDbEntity
  8
furniture
  6
ByLayer
 62
  256
370
   25
100
AcDbPolyline
 90
    4
 70
    1
 43
0
 10
9
 20
-325
 10
9
 20
-339
 10
5
 20
-339
 10
5
 20
-325
  0
LINE
  5
300
100
AcDbEntity
  8
furniture
  6
ByLayer
 62
  136
420
32896
370
   25
100
AcDbLine
 10
13
 20
-325
 11
21
 21
-325
  0
ARC
  5
301
100
AcDbEntity
  8
furniture
  6
ByLayer
 62
  136
420
32896
370
   25
100
AcDbCircle
 10
21
 20
-332
 40
7
100
AcDbArc
 50
270
 51
90
  0
LINE
  5
302
100
AcDbEntity
  8
furniture
  6
ByLayer
 62
  136
420
32896
370
   25
100
AcDbLine
 10
13
 20
-339
 11
21
 21
-339
  0
ARC
  5
303
100
AcDbEntity
  8
furniture
  6
ByLayer
 62
  136
420
32896
370
   25
100
AcDbCircle
 10
21
 20
-332
 40
6
100
AcDbArc
 50
270
 51
90
  0
LINE
  5
304
100
AcDbEntity
  8
furniture
  6
ByLayer
 62
  136
420
32896
370
   25
100
AcDbLine
 10
14
 20
-338
 11
21
 21
-338
  0
LINE
  5
305
100
AcDbEntity
  8
furniture
  6
ByLayer
 62
  136
420
32896
370
   25
100
AcDbLine
 10
14
 20
-338
 11
14
 21
-326
  0
LINE
  5
306
100
AcDbEntity
  8
furniture
  6
ByLayer
 62
  136
420
32896
370
   25
100
AcDbLine
 10
14
 20
-326
 11
21
 21
-326
  0
CIRCLE
  5
307
100
AcDbEntity
  8
furniture
  6
ByLayer
 62
  136
420
32896
370
   25
100
AcDbCircle
 10
89
 20
-312
 40
1
  0
ARC
  5
308
100
AcDbEntity
  8
furniture
  6
ByLayer
 62
  136
420
32896
370
   25
100
AcDbCircle
 10
89
 20
-313
 40
6
100
AcDbArc
 50
180
 51
0
  0
ARC
  5
309
100
AcDbEntity
  8
furniture
  6
ByLayer
 62
  136
420
32896
370
   25
100
AcDbCircle
 10
89
 20
-313
 40
7
100
AcDbArc
 50
180
 51
0
  0
LINE
  5
30A
100
AcDbEntity
  8
furniture
  6
ByLayer
 62
  136
420
32896
370
   25
100
AcDbLine
 10
82
 20
-313
 11
96
 21
-313.0000024936152
  0
LINE
  5
30B
100
AcDbEntity
  8
furniture
  6
ByLayer
 62
  136
420
32896
370
   25
100
AcDbLine
 10
82
 20
-310
 11
82
 21
-313
  0
LWPOLYLINE
  5
30C
100
AcDbEntity
  8
furniture
  6
ByLayer
 62
  256
370
   25
100
AcDbPolyline
 90
    4
 70
    1
 43
0
 10
82
 20
-301
 10
96
 20
-301
 10
96
 20
-305
 10
82
 20
-305
  0
LINE
  5
30D
100
AcDbEntity
  8
furniture
  6
ByLayer
 62
  256
370
   25
100
AcDbLine
 10
13
 20
-325
 11
13
 21
-339
  0
ARC
  5
30E
100
AcDbEntity
  8
furniture
  6
ByLayer
 62
  256
370
   25
100
AcDbCircle
 10
19
 20
-332
 40
2
100
AcDbArc
 50
270
 51
90
  0
ARC
  5
30F
100
AcDbEntity
  8
furniture
  6
ByLayer
 62
  256
370
   25
100
AcDbCircle
 10
17
 20
-332
 40
2
100
AcDbArc
 50
90
 51
270
  0
LINE
  5
310
100
AcDbEntity
  8
furniture
  6
ByLayer
 62
  136
420
32896
370
   25
100
AcDbLine
 10
17
 20
-330
 11
19
 21
-330
  0
LINE
  5
311
100
AcDbEntity
  8
furniture
  6
ByLayer
 62
  136
420
32896
370
   25
100
AcDbLine
 10
17
 20
-334
 11
19
 21
-334
  0
LINE
  5
312
100
AcDbEntity
  8
furniture
  6
ByLayer
 62
  136
420
32896
370
   25
100
AcDbLine
 10
17
 20
-332
 11
7
 21
-332
  0
LINE
  5
313
100
AcDbEntity
  8
furniture
  6
ByLayer
 62
  256
370
   25
100
AcDbLine
 10
87
 20
-17
 11
75
 21
-12
  0
LWPOLYLINE
  5
314
100
AcDbEntity
  8
furniture
  6
ByLayer
 62
  256
370
   25
100
AcDbPolyline
 90
    4
 70
    1
 43
0
 10
105
 20
-18.00000000000001
 10
105
 20
-42.00000000000001
 10
90
 20
-42
 10
90
 20
-18
  0
LWPOLYLINE
  5
315
100
AcDbEntity
  8
furniture
  6
ByLayer
 62
  136
420
32896
370
   25
100
AcDbPolyline
 90
    4
 70
    1
 43
0
 10
108
 20
-96
 10
108
 20
-12.00000000000001
 10
24
 20
-12
 10
24
 20
-96
  0
TEXT
  5
316
100
AcDbEntity
  8
roomname
  6
ByLayer
 62
  256
370
   25
100
AcDbText
 10
61.88888888888857
 20
-50
 30
0
 40
5
  1
7'x7'
 50
0
 41
1
 51
0
  7
standard
 71
    0
210
0
220
0
230
1
100
AcDbText
  0
TEXT
  5
317
100
AcDbEntity
  8
roomname
  6
ByLayer
 62
  256
370
   25
100
AcDbText
 10
320
 20
-76
 30
0
 40
5
  1
6'x6'
 50
0
 41
1
 51
0
  7
standard
 71
    0
210
0
220
0
230
1
100
AcDbText
  0
LINE
  5
318
100
AcDbEntity
  8
furniture
  6
ByLayer
 62
  256
370
   25
100
AcDbLine
 10
339
 20
-41
 11
327
 21
-36
  0
LINE
  5
319
100
AcDbEntity
  8
furniture
  6
ByLayer
 62
  256
370
   25
100
AcDbLine
 10
339
 20
-36
 11
339
 21
-108
  0
LWPOLYLINE
  5
31A
100
AcDbEntity
  8
furniture
  6
ByLayer
 62
  256
370
   25
100
AcDbPolyline
 90
    4
 70
    1
 43
0
 10
357
 20
-78
 10
357
 20
-102
 10
342
 20
-102
 10
342
 20
-78
  0
LWPOLYLINE
  5
31B
100
AcDbEntity
  8
furniture
  6
ByLayer
 62
  256
370
   25
100
AcDbPolyline
 90
    4
 70
    1
 43
0
 10
357
 20
-42.00000000000001
 10
357
 20
-66
 10
342
 20
-66
 10
342
 20
-42
  0
LWPOLYLINE
  5
31C
100
AcDbEntity
  8
furniture
  6
ByLayer
 62
  136
420
32896
370
   25
100
AcDbPolyline
 90
    4
 70
    1
 43
0
 10
360
 20
-108
 10
360
 20
-36.00000000000001
 10
288
 20
-35.99999999999999
 10
288
 20
-108
  0
LINE
  5
31D
100
AcDbEntity
  8
furniture
  6
ByLayer
 62
  136
420
32896
370
   25
100
AcDbLine
 10
87
 20
-12
 11
87
 21
-96
  0
LWPOLYLINE
  5
31E
100
AcDbEntity
  8
furniture
  6
ByLayer
 62
  136
420
32896
370
   25
100
AcDbPolyline
 90
    4
 70
    1
 43
0
 10
105
 20
-66
 10
105
 20
-90
 10
90
 20
-90
 10
90
 20
-66
  0
LWPOLYLINE
  5
31F
100
AcDbEntity
  8
pillars
  6
ByLayer
 62
  256
370
   25
100
AcDbPolyline
 90
    4
 70
    1
 43
0
 10
225
 20
-352
 10
237
 20
-352
 10
237
 20
-361
 10
225
 20
-361
  0
LWPOLYLINE
  5
320
100
AcDbEntity
  8
walls
  6
ByLayer
 62
  256
370
   25
100
AcDbPolyline
 90
    4
 70
    1
 43
0
 10
360
 20
-361
 10
237
 20
-361
 10
237
 20
-356
 10
360
 20
-356
  0
LINE
  5
321
100
AcDbEntity
  8
furniture
  6
ByLayer
 62
  136
420
32896
370
   25
100
AcDbLine
 10
85
 20
-293
 11
86
 21
-281
  0
LINE
  5
322
100
AcDbEntity
  8
furniture
  6
ByLayer
 62
  136
420
32896
370
   25
100
AcDbLine
 10
80
 20
-297
 11
80
 21
-279
  0
LINE
  5
323
100
AcDbEntity
  8
furniture
  6
ByLayer
 62
  136
420
32896
370
   25
100
AcDbLine
 10
82
 20
-299
 11
80
 21
-297
  0
ARC
  5
324
100
AcDbEntity
  8
furniture
  6
ByLayer
 62
  136
420
32896
370
   25
100
AcDbCircle
 10
89
 20
-293
 40
4
100
AcDbArc
 50
180
 51
0
  0
LINE
  5
325
100
AcDbEntity
  8
furniture
  6
ByLayer
 62
  136
420
32896
370
   25
100
AcDbLine
 10
93
 20
-293
 11
92
 21
-281
  0
LINE
  5
326
100
AcDbEntity
  8
furniture
  6
ByLayer
 62
  136
420
32896
370
   25
100
AcDbLine
 10
96
 20
-299
 11
82
 21
-299
  0
LINE
  5
327
100
AcDbEntity
  8
furniture
  6
ByLayer
 62
  136
420
32896
370
   25
100
AcDbLine
 10
98
 20
-297
 11
96
 21
-299
  0
LINE
  5
328
100
AcDbEntity
  8
furniture
  6
ByLayer
 62
  136
420
32896
370
   25
100
AcDbLine
 10
98
 20
-279
 11
98
 21
-297
  0
CIRCLE
  5
329
100
AcDbEntity
  8
furniture
  6
ByLayer
 62
  136
420
32896
370
   25
100
AcDbCircle
 10
89
 20
-293
 40
2
  0
LINE
  5
32A
100
AcDbEntity
  8
furniture
  6
ByLayer
 62
  136
420
32896
370
   25
100
AcDbLine
 10
96
 20
-276
 11
98
 21
-279
  0
ARC
  5
32B
100
AcDbEntity
  8
furniture
  6
ByLayer
 62
  136
420
32896
370
   25
100
AcDbCircle
 10
89
 20
-281
 40
3
100
AcDbArc
 50
0
 51
180
  0
LINE
  5
32C
100
AcDbEntity
  8
furniture
  6
ByLayer
 62
  136
420
32896
370
   25
100
AcDbLine
 10
82
 20
-276
 11
96
 21
-276
  0
LINE
  5
32D
100
AcDbEntity
  8
furniture
  6
ByLayer
 62
  136
420
32896
370
   25
100
AcDbLine
 10
80
 20
-279
 11
82
 21
-276
  0
LINE
  5
32E
100
AcDbEntity
  8
furniture
  6
ByLayer
 62
  256
370
   25
100
AcDbLine
 10
89
 20
-293
 11
89
 21
-303
  0
TEXT
  5
32F
100
AcDbEntity
  8
plumbing
  6
ByLayer
 62
  256
370
   25
100
AcDbText
 10
24
 20
-430
 30
0
 40
5
  1
2 Chamber Septic Tank
 50
0
 41
1
 51
0
  7
standard
 71
    0
210
0
220
0
230
1
100
AcDbText
  0
TEXT
  5
330
100
AcDbEntity
  8
Display
  6
ByLayer
 62
   16
420
8388608
370
   25
100
AcDbText
 10
64
 20
-728
 30
0
 40
10
  1
+91
 50
0
 41
1
 51
0
  7
standard
 71
    0
210
0
220
0
230
1
100
AcDbText
  0
ENDSEC
  0
SECTION
  2
OBJECTS
  0
DICTIONARY
  5
C
330
0
100
AcDbDictionary
281
    1
  3
ACAD_GROUP
350
D
  0
DICTIONARY
  5
D
330
C
100
AcDbDictionary
281
    1
  0
PLOTSETTINGS
  5
331
100
AcDbPlotSettings
  6
1x1
 40
0
 41
0
 42
0
 43
0
  0
ENDSEC
  0
EOF
