999
dxfrw 0.6.3
  0
SECTION
  2
HEADER
  9
$ACADVER
  1
AC1021
  9
$DWGCODEPAGE
  3
ANSI_1252
  9
$INSBASE
 10
0
 20
0
 30
0
  9
$EXTMIN
 10
-50
 20
-158.7071067811866
 30
0
  9
$EXTMAX
 10
110.7071067811866
 20
4.025
 30
0
  9
$LIMMIN
 10
0
 20
0
  9
$LIMMAX
 10
420
 20
297
  9
$ORTHOMODE
 70
    0
  9
$REGENMODE
 70
    1
  9
$FILLMODE
 70
    1
  9
$QTEXTMODE
 70
    0
  9
$MIRRTEXT
 70
    0
  9
$LTSCALE
 40
1
  9
$ATTMODE
 70
    0
  9
$TEXTSIZE
 40
2.5
  9
$TRACEWID
 40
15.68
  9
$TEXTSTYLE
  7
STANDARD
  9
$CLAYER
  8
0
  9
$CELTYPE
  6
BYLAYER
  9
$CECOLOR
 62
  256
  9
$CELTSCALE
 40
1
  9
$DISPSILH
 70
    0
  9
$DIMSCALE
 40
1
  9
$DIMASZ
 40
0.1
  9
$DIMEXO
 40
0.025
  9
$DIMDLI
 40
3.75
  9
$DIMRND
 40
0
  9
$DIMDLE
 40
0
  9
$DIMEXE
 40
0.05
  9
$DIMTP
 40
0
  9
$DIMTM
 40
0
  9
$DIMTXT
 40
2
  9
$DIMCEN
 40
2.5
  9
$DIMTSZ
 40
1
  9
$DIMTOL
 70
    0
  9
$DIMLIM
 70
    0
  9
$DIMTIH
 70
    0
  9
$DIMTOH
 70
    0
  9
$DIMSE1
 70
    0
  9
$DIMSE2
 70
    0
  9
$DIMTAD
 70
    1
  9
$DIMZIN
 70
    1
  9
$DIMBLK
  1

  9
$DIMASO
 70
    1
  9
$DIMSHO
 70
    1
  9
$DIMPOST
  1

  9
$DIMAPOST
  1

  9
$DIMALT
 70
    0
  9
$DIMALTD
 70
    3
  9
$DIMALTF
 40
0.03937
  9
$DIMLFAC
 40
1
  9
$DIMTOFL
 70
    1
  9
$DIMTVP
 40
0
  9
$DIMTIX
 70
    0
  9
$DIMSOXD
 70
    0
  9
$DIMSAH
 70
    0
  9
$DIMBLK1
  1

  9
$DIMBLK2
  1

  9
$DIMSTYLE
  2
STANDARD
  9
$DIMCLRD
 70
    0
  9
$DIMCLRE
 70
    0
  9
$DIMCLRT
 70
    0
  9
$DIMTFAC
 40
1
  9
$DIMGAP
 40
0.025
  9
$DIMJUST
 70
    0
  9
$DIMSD1
 70
    0
  9
$DIMSD2
 70
    0
  9
$DIMTOLJ
 70
    0
  9
$DIMTZIN
 70
    8
  9
$DIMALTZ
 70
    0
  9
$DIMALTTZ
 70
    0
  9
$DIMUPT
 70
    0
  9
$DIMDEC
 70
    1
  9
$DIMTDEC
 70
    2
  9
$DIMALTU
 70
    2
  9
$DIMALTTD
 70
    3
  9
$DIMTXSTY
  7
standard
  9
$DIMAUNIT
 70
    0
  9
$DIMADEC
 70
    2
  9
$DIMALTRND
 40
0
  9
$DIMAZIN
 70
    0
  9
$DIMDSEP
 70
    0
  9
$DIMATFIT
 70
    3
  9
$DIMFRAC
 70
    0
  9
$DIMLDRBLK
  1
STANDARD
  9
$DIMLUNIT
 70
    4
  9
$DIMLWD
 70
   -2
  9
$DIMLWE
 70
   -2
  9
$DIMTMOVE
 70
    0
  9
$DIMFXL
 40
0.0394
  9
$DIMFXLON
 70
    0
  9
$DIMJOGANG
 40
0.7854
  9
$DIMTFILL
 70
    0
  9
$DIMTFILLCLR
 70
    0
  9
$DIMARCSYM
 70
    0
  9
$DIMLTYPE
  6

  9
$DIMLTEX1
  6

  9
$DIMLTEX2
  6

  9
$LUNITS
 70
    3
  9
$LUPREC
 70
    0
  9
$SKETCHINC
 40
1
  9
$FILLETRAD
 40
0
  9
$AUNITS
 70
    0
  9
$AUPREC
 70
    0
  9
$MENU
  1
.
  9
$ELEVATION
 40
0
  9
$PELEVATION
 40
0
  9
$THICKNESS
 40
0
  9
$LIMCHECK
 70
    0
  9
$CHAMFERA
 40
0
  9
$CHAMFERB
 40
0
  9
$CHAMFERC
 40
0
  9
$CHAMFERD
 40
0
  9
$SKPOLY
 70
    0
  9
$USRTIMER
 70
    1
  9
$ANGBASE
 50
0
  9
$ANGDIR
 70
    0
  9
$PDMODE
 70
   96
  9
$PDSIZE
 40
-2
  9
$PLINEWID
 40
0
  9
$SPLFRAME
 70
    0
  9
$SPLINETYPE
 70
    2
  9
$SPLINESEGS
 70
    8
  9
$HANDSEED
  5
20000
  9
$SURFTAB1
 70
    6
  9
$SURFTAB2
 70
    6
  9
$SURFTYPE
 70
    6
  9
$SURFU
 70
    6
  9
$SURFV
 70
    6
  9
$UCSBASE
  2

  9
$UCSNAME
  2

  9
$UCSORG
 10
0
 20
0
 30
0
  9
$UCSXDIR
 10
1
 20
0
 30
0
  9
$UCSYDIR
 10
0
 20
1
 30
0
  9
$UCSORTHOREF
  2

  9
$UCSORTHOVIEW
 70
    0
  9
$UCSORGTOP
 10
0
 20
0
 30
0
  9
$UCSORGBOTTOM
 10
0
 20
0
 30
0
  9
$UCSORGLEFT
 10
0
 20
0
 30
0
  9
$UCSORGRIGHT
 10
0
 20
0
 30
0
  9
$UCSORGFRONT
 10
0
 20
0
 30
0
  9
$UCSORGBACK
 10
0
 20
0
 30
0
  9
$PUCSBASE
  2

  9
$PUCSNAME
  2

  9
$PUCSORG
 10
0
 20
0
 30
0
  9
$PUCSXDIR
 10
1
 20
0
 30
0
  9
$PUCSYDIR
 10
0
 20
1
 30
0
  9
$PUCSORTHOREF
  2

  9
$PUCSORTHOVIEW
 70
    0
  9
$PUCSORGTOP
 10
0
 20
0
 30
0
  9
$PUCSORGBOTTOM
 10
0
 20
0
 30
0
  9
$PUCSORGLEFT
 10
0
 20
0
 30
0
  9
$PUCSORGRIGHT
 10
0
 20
0
 30
0
  9
$PUCSORGFRONT
 10
0
 20
0
 30
0
  9
$PUCSORGBACK
 10
0
 20
0
 30
0
  9
$USERI1
 70
    0
  9
$USERI2
 70
    0
  9
$USERI3
 70
    0
  9
$USERI4
 70
    0
  9
$USERI5
 70
    0
  9
$USERR1
 40
0
  9
$USERR2
 40
0
  9
$USERR3
 40
0
  9
$USERR4
 40
0
  9
$USERR5
 40
0
  9
$WORLDVIEW
 70
    1
  9
$SHADEDGE
 70
    3
  9
$SHADEDIF
 70
   70
  9
$TILEMODE
 70
    1
  9
$MAXACTVP
 70
   64
  9
$PINSBASE
 10
0
 20
0
 30
0
  9
$PLIMCHECK
 70
    0
  9
$PEXTMIN
 10
0
 20
0
 30
0
  9
$PEXTMAX
 10
0
 20
0
 30
0
  9
$GRIDMODE
 70
    1
  9
$SNAPSTYLE
 70
    0
  9
$GRIDUNIT
 10
0
 20
0
  9
$PLIMMIN
 10
0
 20
0
  9
$PLIMMAX
 10
8.267716535433072
 20
11.69291338582677
  9
$UNITMODE
 70
    0
  9
$VISRETAIN
 70
    1
  9
$PLINEGEN
 70
    0
  9
$PSLTSCALE
 70
    1
  9
$TREEDEPTH
 70
 3020
  9
$CMLSTYLE
  2
Standard
  9
$CMLJUST
 70
    0
  9
$CMLSCALE
 40
20
  9
$PROXYGRAPHICS
 70
    1
  9
$MEASUREMENT
 70
    0
  9
$CELWEIGHT
370
   -1
  9
$ENDCAPS
280
    1
  9
$JOINSTYLE
280
    1
  9
$LWDISPLAY
290
    0
  9
$INSUNITS
 70
    1
  9
$HYPERLINKBASE
  1

  9
$STYLESHEET
  1

  9
$XEDIT
290
    1
  9
$CEPSNTYPE
380
    0
  9
$PSTYLEMODE
290
    1
  9
$EXTNAMES
290
    1
  9
$PSVPSCALE
 40
1
  9
$OLESTARTUP
290
    0
  9
$SORTENTS
280
  127
  9
$INDEXCTL
280
    0
  9
$HIDETEXT
280
    1
  9
$XCLIPFRAME
290
    0
  9
$HALOGAP
280
    0
  9
$OBSCOLOR
 70
  257
  9
$OBSLTYPE
280
    0
  9
$INTERSECTIONDISPLAY
280
    0
  9
$INTERSECTIONCOLOR
 70
  257
  9
$DIMASSOC
280
    1
  9
$PROJECTNAME
  1

  9
$CAMERADISPLAY
290
    0
  9
$LENSLENGTH
 40
50
  9
$CAMERAHEIGHT
 40
0
  9
$STEPSPERSEC
 40
2
  9
$STEPSIZE
 40
50
  9
$3DDWFPREC
 40
2
  9
$PSOLWIDTH
 40
5
  9
$PSOLHEIGHT
 40
80
  9
$LOFTANG1
 40
1.570796326794897
  9
$LOFTANG2
 40
1.570796326794897
  9
$LOFTMAG1
 40
0
  9
$LOFTMAG2
 40
0
  9
$LOFTPARAM
 70
    7
  9
$LOFTNORMALS
280
    1
  9
$LATITUDE
 40
1
  9
$LONGITUDE
 40
1
  9
$NORTHDIRECTION
 40
0
  9
$TIMEZONE
 70
-8000
  9
$LIGHTGLYPHDISPLAY
280
    1
  9
$TILEMODELIGHTSYNCH
280
    1
  9
$SOLIDHIST
280
    1
  9
$SHOWHIST
280
    1
  9
$DWFFRAME
280
    2
  9
$DGNFRAME
280
    0
  9
$REALWORLDSCALE
290
    1
  9
$INTERFERECOLOR
 62
    1
  9
$CSHADOW
280
    0
  9
$SHADOWPLANELOCATION
 40
0
  0
ENDSEC
  0
SECTION
  2
CLASSES
  0
ENDSEC
  0
SECTION
  2
TABLES
  0
TABLE
  2
VPORT
  5
8
330
0
100
AcDbSymbolTable
 70
    1
  0
VPORT
  5
31
330
2
100
AcDbSymbolTableRecord
100
AcDbViewportTableRecord
  2
*ACTIVE
 70
    0
 10
0
 20
0
 11
1
 21
1
 12
128.2310553544002
 22
31.81229857184201
 13
0
 23
0
 14
10
 24
10
 15
10
 25
10
 16
0
 26
0
 36
1
 17
0
 27
0
 37
0
 40
269.8154212204378
 41
1.209606986899563
 42
50
 43
0
 44
0
 50
0
 51
0
 71
    0
 72
  100
 73
    1
 74
    3
 75
    0
 76
    1
 77
    0
 78
    0
281
    0
 65
    1
110
0
120
0
130
0
111
1
121
0
131
0
112
0
122
1
132
0
 79
    0
146
0
348
10020
 60
    7
 61
    5
292
1
282
    1
141
0
142
0
 63
  250
421
3358443
  0
ENDTAB
  0
TABLE
  2
LTYPE
  5
5
330
0
100
AcDbSymbolTable
 70
    4
  0
LTYPE
  5
14
330
5
100
AcDbSymbolTableRecord
100
AcDbLinetypeTableRecord
  2
ByBlock
 70
    0
  3

 72
   65
 73
    0
 40
0
  0
LTYPE
  5
15
330
5
100
AcDbSymbolTableRecord
100
AcDbLinetypeTableRecord
  2
ByLayer
 70
    0
  3

 72
   65
 73
    0
 40
0
  0
LTYPE
  5
16
330
5
100
AcDbSymbolTableRecord
100
AcDbLinetypeTableRecord
  2
Continuous
 70
    0
  3
Solid line
 72
   65
 73
    0
 40
0
  0
LTYPE
  5
32
330
5
100
AcDbSymbolTableRecord
100
AcDbLinetypeTableRecord
  2
DOT
 70
    0
  3
Dot . . . . . . . . . . . . . . . . . . . . . .
 72
   65
 73
    2
 40
6.35
 49
0
 74
    0
 49
-6.35
 74
    0
  0
LTYPE
  5
33
330
5
100
AcDbSymbolTableRecord
100
AcDbLinetypeTableRecord
  2
DOTTINY
 70
    0
  3
Dot (.15x) .....................................
 72
   65
 73
    2
 40
0.9525
 49
0
 74
    0
 49
-0.9525
 74
    0
  0
LTYPE
  5
34
330
5
100
AcDbSymbolTableRecord
100
AcDbLinetypeTableRecord
  2
DOT2
 70
    0
  3
Dot (.5x) .....................................
 72
   65
 73
    2
 40
3.175
 49
0
 74
    0
 49
-3.175
 74
    0
  0
LTYPE
  5
35
330
5
100
AcDbSymbolTableRecord
100
AcDbLinetypeTableRecord
  2
DOTX2
 70
    0
  3
Dot (2x) .  .  .  .  .  .  .  .  .  .  .  .  .
 72
   65
 73
    2
 40
12.7
 49
0
 74
    0
 49
-12.7
 74
    0
  0
LTYPE
  5
36
330
5
100
AcDbSymbolTableRecord
100
AcDbLinetypeTableRecord
  2
DASHED
 70
    0
  3
Dashed _ _ _ _ _ _ _ _ _ _ _ _ _ _ _ _ _
 72
   65
 73
    2
 40
19.05
 49
12.7
 74
    0
 49
-6.35
 74
    0
  0
LTYPE
  5
37
330
5
100
AcDbSymbolTableRecord
100
AcDbLinetypeTableRecord
  2
DASHEDTINY
 70
    0
  3
Dashed (.15x) _ _ _ _ _ _ _ _ _ _ _ _ _ _ _ _ _
 72
   65
 73
    2
 40
2.8575
 49
1.905
 74
    0
 49
-0.9525
 74
    0
  0
LTYPE
  5
38
330
5
100
AcDbSymbolTableRecord
100
AcDbLinetypeTableRecord
  2
DASHED2
 70
    0
  3
Dashed (.5x) _ _ _ _ _ _ _ _ _ _ _ _ _ _ _ _ _
 72
   65
 73
    2
 40
9.524999999999999
 49
6.35
 74
    0
 49
-3.175
 74
    0
  0
LTYPE
  5
39
330
5
100
AcDbSymbolTableRecord
100
AcDbLinetypeTableRecord
  2
DASHEDX2
 70
    0
  3
Dashed (2x) ____  ____  ____  ____  ____  ___
 72
   65
 73
    2
 40
38.09999999999999
 49
25.4
 74
    0
 49
-12.7
 74
    0
  0
LTYPE
  5
3A
330
5
100
AcDbSymbolTableRecord
100
AcDbLinetypeTableRecord
  2
DASHDOT
 70
    0
  3
Dash dot __ . __ . __ . __ . __ . __ . __ . __
 72
   65
 73
    4
 40
25.4
 49
12.7
 74
    0
 49
-6.35
 74
    0
 49
0
 74
    0
 49
-6.35
 74
    0
  0
LTYPE
  5
3B
330
5
100
AcDbSymbolTableRecord
100
AcDbLinetypeTableRecord
  2
DASHDOTTINY
 70
    0
  3
Dash dot (.15x) _._._._._._._._._._._._._._._.
 72
   65
 73
    4
 40
3.81
 49
1.905
 74
    0
 49
-0.9525
 74
    0
 49
0
 74
    0
 49
-0.9525
 74
    0
  0
LTYPE
  5
3C
330
5
100
AcDbSymbolTableRecord
100
AcDbLinetypeTableRecord
  2
DASHDOT2
 70
    0
  3
Dash dot (.5x) _._._._._._._._._._._._._._._.
 72
   65
 73
    4
 40
12.7
 49
6.35
 74
    0
 49
-3.175
 74
    0
 49
0
 74
    0
 49
-3.175
 74
    0
  0
LTYPE
  5
3D
330
5
100
AcDbSymbolTableRecord
100
AcDbLinetypeTableRecord
  2
DASHDOTX2
 70
    0
  3
Dash dot (2x) ____  .  ____  .  ____  .  ___
 72
   65
 73
    4
 40
50.8
 49
25.4
 74
    0
 49
-12.7
 74
    0
 49
0
 74
    0
 49
-12.7
 74
    0
  0
LTYPE
  5
3E
330
5
100
AcDbSymbolTableRecord
100
AcDbLinetypeTableRecord
  2
DIVIDE
 70
    0
  3
Divide ____ . . ____ . . ____ . . ____ . . ____
 72
   65
 73
    6
 40
31.75
 49
12.7
 74
    0
 49
-6.35
 74
    0
 49
0
 74
    0
 49
-6.35
 74
    0
 49
0
 74
    0
 49
-6.35
 74
    0
  0
LTYPE
  5
3F
330
5
100
AcDbSymbolTableRecord
100
AcDbLinetypeTableRecord
  2
DIVIDETINY
 70
    0
  3
Divide (.15x) __..__..__..__..__..__..__..__.._
 72
   65
 73
    6
 40
4.7625
 49
1.905
 74
    0
 49
-0.9525
 74
    0
 49
0
 74
    0
 49
-0.9525
 74
    0
 49
0
 74
    0
 49
-0.9525
 74
    0
  0
LTYPE
  5
40
330
5
100
AcDbSymbolTableRecord
100
AcDbLinetypeTableRecord
  2
DIVIDE2
 70
    0
  3
Divide (.5x) __..__..__..__..__..__..__..__.._
 72
   65
 73
    6
 40
15.875
 49
6.35
 74
    0
 49
-3.175
 74
    0
 49
0
 74
    0
 49
-3.175
 74
    0
 49
0
 74
    0
 49
-3.175
 74
    0
  0
LTYPE
  5
41
330
5
100
AcDbSymbolTableRecord
100
AcDbLinetypeTableRecord
  2
DIVIDEX2
 70
    0
  3
Divide (2x) ________  .  .  ________  .  .  _
 72
   65
 73
    6
 40
63.5
 49
25.4
 74
    0
 49
-12.7
 74
    0
 49
0
 74
    0
 49
-12.7
 74
    0
 49
0
 74
    0
 49
-12.7
 74
    0
  0
LTYPE
  5
42
330
5
100
AcDbSymbolTableRecord
100
AcDbLinetypeTableRecord
  2
BORDER
 70
    0
  3
Border __ __ . __ __ . __ __ . __ __ . __ __ .
 72
   65
 73
    6
 40
44.45
 49
12.7
 74
    0
 49
-6.35
 74
    0
 49
12.7
 74
    0
 49
-6.35
 74
    0
 49
0
 74
    0
 49
-6.35
 74
    0
  0
LTYPE
  5
43
330
5
100
AcDbSymbolTableRecord
100
AcDbLinetypeTableRecord
  2
BORDERTINY
 70
    0
  3
Border (.15x) __.__.__.__.__.__.__.__.__.__.__.
 72
   65
 73
    6
 40
6.6675
 49
1.905
 74
    0
 49
-0.9525
 74
    0
 49
1.905
 74
    0
 49
-0.9525
 74
    0
 49
0
 74
    0
 49
-0.9525
 74
    0
  0
LTYPE
  5
44
330
5
100
AcDbSymbolTableRecord
100
AcDbLinetypeTableRecord
  2
BORDER2
 70
    0
  3
Border (.5x) __.__.__.__.__.__.__.__.__.__.__.
 72
   65
 73
    6
 40
22.225
 49
6.35
 74
    0
 49
-3.175
 74
    0
 49
6.35
 74
    0
 49
-3.175
 74
    0
 49
0
 74
    0
 49
-3.175
 74
    0
  0
LTYPE
  5
45
330
5
100
AcDbSymbolTableRecord
100
AcDbLinetypeTableRecord
  2
BORDERX2
 70
    0
  3
Border (2x) ____  ____  .  ____  ____  .  ___
 72
   65
 73
    6
 40
88.89999999999999
 49
25.4
 74
    0
 49
-12.7
 74
    0
 49
25.4
 74
    0
 49
-12.7
 74
    0
 49
0
 74
    0
 49
-12.7
 74
    0
  0
LTYPE
  5
46
330
5
100
AcDbSymbolTableRecord
100
AcDbLinetypeTableRecord
  2
CENTER
 70
    0
  3
Center ____ _ ____ _ ____ _ ____ _ ____ _ ____
 72
   65
 73
    4
 40
50.8
 49
31.75
 74
    0
 49
-6.35
 74
    0
 49
6.35
 74
    0
 49
-6.35
 74
    0
  0
LTYPE
  5
47
330
5
100
AcDbSymbolTableRecord
100
AcDbLinetypeTableRecord
  2
CENTERTINY
 70
    0
  3
Center (.15x) ___ _ ___ _ ___ _ ___ _ ___ _ ___
 72
   65
 73
    4
 40
7.619999999999999
 49
4.7625
 74
    0
 49
-0.9525
 74
    0
 49
0.9525
 74
    0
 49
-0.9525
 74
    0
  0
LTYPE
  5
48
330
5
100
AcDbSymbolTableRecord
100
AcDbLinetypeTableRecord
  2
CENTER2
 70
    0
  3
Center (.5x) ___ _ ___ _ ___ _ ___ _ ___ _ ___
 72
   65
 73
    4
 40
28.575
 49
19.05
 74
    0
 49
-3.175
 74
    0
 49
3.175
 74
    0
 49
-3.175
 74
    0
  0
LTYPE
  5
49
330
5
100
AcDbSymbolTableRecord
100
AcDbLinetypeTableRecord
  2
CENTERX2
 70
    0
  3
Center (2x) ________  __  ________  __  _____
 72
   65
 73
    4
 40
101.6
 49
63.5
 74
    0
 49
-12.7
 74
    0
 49
12.7
 74
    0
 49
-12.7
 74
    0
  0
ENDTAB
  0
TABLE
  2
LAYER
  5
2
330
0
100
AcDbSymbolTable
 70
    1
  0
LAYER
  5
10
330
2
100
AcDbSymbolTableRecord
100
AcDbLayerTableRecord
  2
0
 70
    0
 62
    7
  6
CONTINUOUS
370
   25
390
F
  0
ENDTAB
  0
TABLE
  2
STYLE
  5
3
330
0
100
AcDbSymbolTable
 70
    3
  0
STYLE
  5
4A
330
2
100
AcDbSymbolTableRecord
100
AcDbTextStyleTableRecord
  2
Standard
 70
    0
 40
0
 41
1
 50
0
 71
    0
 42
1
  3
txt
  4

  0
ENDTAB
  0
TABLE
  2
VIEW
  5
6
330
0
100
AcDbSymbolTable
 70
    0
  0
ENDTAB
  0
TABLE
  2
UCS
  5
7
330
0
100
AcDbSymbolTable
 70
    0
  0
ENDTAB
  0
TABLE
  2
APPID
  5
9
330
0
100
AcDbSymbolTable
 70
    1
  0
APPID
  5
12
330
9
100
AcDbSymbolTableRecord
100
AcDbRegAppTableRecord
  2
ACAD
 70
    0
  0
APPID
  5
4B
330
9
100
AcDbSymbolTableRecord
100
AcDbRegAppTableRecord
  2
LibreCad
 70
    0
  0
ENDTAB
  0
TABLE
  2
DIMSTYLE
  5
A
330
0
100
AcDbSymbolTable
 70
    1
100
AcDbDimStyleTable
 71
    1
  0
DIMSTYLE
105
4C
330
A
100
AcDbSymbolTableRecord
100
AcDbDimStyleTableRecord
  2
Standard
 70
    0
 40
1
 41
0.1
 42
0.025
 43
0.38
 44
0.05
 45
0
 46
0
 47
0
 48
0
 49
0.0394
140
2
141
0.09
142
1
143
25.4
144
1
145
0
146
1
147
0.025
148
0
 71
    0
 72
    0
 73
    0
 74
    1
 75
    0
 76
    0
 77
    0
 78
    1
 79
    0
170
    0
171
    2
172
    0
173
    0
174
    0
175
    0
176
    0
177
    0
178
    0
179
    2
271
    1
272
    4
273
    2
274
    2
275
    0
276
    0
277
    4
278
    0
279
    0
280
    0
281
    0
282
    0
283
    1
284
    0
285
    0
286
    0
288
    0
289
    3
340
4A
  0
ENDTAB
  0
TABLE
  2
BLOCK_RECORD
  5
1
330
0
100
AcDbSymbolTable
 70
    2
  0
BLOCK_RECORD
  5
1F
330
1
100
AcDbSymbolTableRecord
100
AcDbBlockTableRecord
  2
*Model_Space
 70
    0
280
    1
281
    0
  0
BLOCK_RECORD
  5
1E
330
1
100
AcDbSymbolTableRecord
100
AcDbBlockTableRecord
  2
*Paper_Space
 70
    0
280
    1
281
    0
  0
BLOCK_RECORD
  5
4D
330
1
100
AcDbSymbolTableRecord
100
AcDbBlockTableRecord
  2
*D10
 70
    0
280
    1
281
    0
  0
BLOCK_RECORD
  5
50
330
1
100
AcDbSymbolTableRecord
100
AcDbBlockTableRecord
  2
*D4
 70
    0
280
    1
281
    0
  0
BLOCK_RECORD
  5
53
330
1
100
AcDbSymbolTableRecord
100
AcDbBlockTableRecord
  2
*D12
 70
    0
280
    1
281
    0
  0
BLOCK_RECORD
  5
56
330
1
100
AcDbSymbolTableRecord
100
AcDbBlockTableRecord
  2
*D14
 70
    0
280
    1
281
    0
  0
BLOCK_RECORD
  5
59
330
1
100
AcDbSymbolTableRecord
100
AcDbBlockTableRecord
  2
*D8
 70
    0
280
    1
281
    0
  0
BLOCK_RECORD
  5
5C
330
1
100
AcDbSymbolTableRecord
100
AcDbBlockTableRecord
  2
*D16
 70
    0
280
    1
281
    0
  0
BLOCK_RECORD
  5
5F
330
1
100
AcDbSymbolTableRecord
100
AcDbBlockTableRecord
  2
*D1
 70
    0
280
    1
281
    0
  0
BLOCK_RECORD
  5
62
330
1
100
AcDbSymbolTableRecord
100
AcDbBlockTableRecord
  2
*D6
 70
    0
280
    1
281
    0
  0
BLOCK_RECORD
  5
65
330
1
100
AcDbSymbolTableRecord
100
AcDbBlockTableRecord
  2
*D18
 70
    0
280
    1
281
    0
  0
BLOCK_RECORD
  5
68
330
1
100
AcDbSymbolTableRecord
100
AcDbBlockTableRecord
  2
*D13
 70
    0
280
    1
281
    0
  0
BLOCK_RECORD
  5
6B
330
1
100
AcDbSymbolTableRecord
100
AcDbBlockTableRecord
  2
*D17
 70
    0
280
    1
281
    0
  0
BLOCK_RECORD
  5
6E
330
1
100
AcDbSymbolTableRecord
100
AcDbBlockTableRecord
  2
*D5
 70
    0
280
    1
281
    0
  0
BLOCK_RECORD
  5
71
330
1
100
AcDbSymbolTableRecord
100
AcDbBlockTableRecord
  2
*D9
 70
    0
280
    1
281
    0
  0
BLOCK_RECORD
  5
74
330
1
100
AcDbSymbolTableRecord
100
AcDbBlockTableRecord
  2
*D11
 70
    0
280
    1
281
    0
  0
BLOCK_RECORD
  5
77
330
1
100
AcDbSymbolTableRecord
100
AcDbBlockTableRecord
  2
*D2
 70
    0
280
    1
281
    0
  0
BLOCK_RECORD
  5
7A
330
1
100
AcDbSymbolTableRecord
100
AcDbBlockTableRecord
  2
*D3
 70
    0
280
    1
281
    0
  0
BLOCK_RECORD
  5
7D
330
1
100
AcDbSymbolTableRecord
100
AcDbBlockTableRecord
  2
*D15
 70
    0
280
    1
281
    0
  0
BLOCK_RECORD
  5
80
330
1
100
AcDbSymbolTableRecord
100
AcDbBlockTableRecord
  2
*D7
 70
    0
280
    1
281
    0
  0
ENDTAB
  0
ENDSEC
  0
SECTION
  2
BLOCKS
  0
BLOCK
  5
20
330
1F
100
AcDbEntity
  8
0
100
AcDbBlockBegin
  2
*Model_Space
 70
    0
 10
0
 20
0
 30
0
  3
*Model_Space
  1

  0
ENDBLK
  5
21
330
1F
100
AcDbEntity
  8
0
100
AcDbBlockEnd
  0
BLOCK
  5
1C
330
1B
100
AcDbEntity
  8
0
100
AcDbBlockBegin
  2
*Paper_Space
 70
    0
 10
0
 20
0
 30
0
  3
*Paper_Space
  1

  0
ENDBLK
  5
1D
330
1F
100
AcDbEntity
  8
0
100
AcDbBlockEnd
  0
BLOCK
  5
4E
330
4D
100
AcDbEntity
  8
0
100
AcDbBlockBegin
  2
*D10
 70
    1
 10
0
 20
0
  3
*D10
  1

  0
LINE
  5
83
100
AcDbEntity
  8
0
  6
ByBlock
 62
    0
370
   -2
100
AcDbLine
 10
-1.025
 20
-100
 11
-3.05
 21
-100
  0
LINE
  5
84
100
AcDbEntity
  8
0
  6
ByBlock
 62
    0
370
   -2
100
AcDbLine
 10
-1.025
 20
-116
 11
-3.05
 21
-116
  0
LINE
  5
85
100
AcDbEntity
  8
0
  6
ByBlock
 62
    0
370
   -2
100
AcDbLine
 10
-3
 20
-100
 11
-3
 21
-116
  0
MTEXT
  5
86
100
AcDbEntity
  8
0
  6
CONTINUOUS
 62
    0
370
   -2
100
AcDbMText
 10
-4.025
 20
-108
 30
0
 40
2
 41
6
 71
    5
 72
    1
  1
1'-4"
  7
standard
210
0
220
0
230
1
 50
90
 73
    2
 44
1
  0
LINE
  5
87
100
AcDbEntity
  8
0
  6
ByBlock
 62
    0
370
   -2
100
AcDbLine
 10
-2.292893218813453
 20
-100.7071067811866
 11
-3.707106781186547
 21
-99.29289321881345
  0
LINE
  5
88
100
AcDbEntity
  8
0
  6
ByBlock
 62
    0
370
   -2
100
AcDbLine
 10
-2.292893218813453
 20
-116.7071067811866
 11
-3.707106781186547
 21
-115.2928932188134
  0
ENDBLK
  5
4F
330
4D
100
AcDbEntity
  8
0
100
AcDbBlockEnd
  0
BLOCK
  5
51
330
50
100
AcDbEntity
  8
0
100
AcDbBlockBegin
  2
*D4
 70
    1
 10
0
 20
0
  3
*D4
  1

  0
LINE
  5
89
100
AcDbEntity
  8
0
  6
ByBlock
 62
    0
370
   -2
100
AcDbLine
 10
-1.025
 20
-21
 11
-3.05
 21
-21
  0
LINE
  5
8A
100
AcDbEntity
  8
0
  6
ByBlock
 62
    0
370
   -2
100
AcDbLine
 10
-1.025
 20
-25
 11
-3.05
 21
-25
  0
LINE
  5
8B
100
AcDbEntity
  8
0
  6
ByBlock
 62
    0
370
   -2
100
AcDbLine
 10
-3
 20
-21
 11
-3
 21
-25
  0
MTEXT
  5
8C
100
AcDbEntity
  8
0
  6
CONTINUOUS
 62
    0
370
   -2
100
AcDbMText
 10
-4.025
 20
-23
 30
0
 40
2
 41
2.555555555555555
 71
    5
 72
    1
  1
4"
  7
standard
210
0
220
0
230
1
 50
90
 73
    2
 44
1
  0
LINE
  5
8D
100
AcDbEntity
  8
0
  6
ByBlock
 62
    0
370
   -2
100
AcDbLine
 10
-2.292893218813453
 20
-21.70710678118655
 11
-3.707106781186547
 21
-20.29289321881345
  0
LINE
  5
8E
100
AcDbEntity
  8
0
  6
ByBlock
 62
    0
370
   -2
100
AcDbLine
 10
-2.292893218813453
 20
-25.70710678118655
 11
-3.707106781186547
 21
-24.29289321881345
  0
ENDBLK
  5
52
330
50
100
AcDbEntity
  8
0
100
AcDbBlockEnd
  0
BLOCK
  5
54
330
53
100
AcDbEntity
  8
0
100
AcDbBlockBegin
  2
*D12
 70
    1
 10
0
 20
0
  3
*D12
  1

  0
LINE
  5
8F
100
AcDbEntity
  8
0
  6
ByBlock
 62
    0
370
   -2
100
AcDbLine
 10
107.025
 20
-100
 11
110.05
 21
-100
  0
LINE
  5
90
100
AcDbEntity
  8
0
  6
ByBlock
 62
    0
370
   -2
100
AcDbLine
 10
107.025
 20
-148
 11
110.05
 21
-148
  0
LINE
  5
91
100
AcDbEntity
  8
0
  6
ByBlock
 62
    0
370
   -2
100
AcDbLine
 10
110
 20
-100
 11
110
 21
-148
  0
MTEXT
  5
92
100
AcDbEntity
  8
0
  6
CONTINUOUS
 62
    0
370
   -2
100
AcDbMText
 10
108.975
 20
-124
 30
0
 40
2
 41
6.444444444444444
 71
    5
 72
    1
  1
4'-0"
  7
standard
210
0
220
0
230
1
 50
90
 73
    2
 44
1
  0
LINE
  5
93
100
AcDbEntity
  8
0
  6
ByBlock
 62
    0
370
   -2
100
AcDbLine
 10
110.7071067811866
 20
-100.7071067811866
 11
109.2928932188134
 21
-99.29289321881345
  0
LINE
  5
94
100
AcDbEntity
  8
0
  6
ByBlock
 62
    0
370
   -2
100
AcDbLine
 10
110.7071067811866
 20
-148.7071067811866
 11
109.2928932188134
 21
-147.2928932188134
  0
ENDBLK
  5
55
330
53
100
AcDbEntity
  8
0
100
AcDbBlockEnd
  0
BLOCK
  5
57
330
56
100
AcDbEntity
  8
0
100
AcDbBlockBegin
  2
*D14
 70
    1
 10
0
 20
0
  3
*D14
  1

  0
LINE
  5
95
100
AcDbEntity
  8
0
  6
ByBlock
 62
    0
370
   -2
100
AcDbLine
 10
68.97499999999999
 20
-120
 11
66.95
 21
-120
  0
LINE
  5
96
100
AcDbEntity
  8
0
  6
ByBlock
 62
    0
370
   -2
100
AcDbLine
 10
68.97499999999999
 20
-124
 11
66.95
 21
-124
  0
LINE
  5
97
100
AcDbEntity
  8
0
  6
ByBlock
 62
    0
370
   -2
100
AcDbLine
 10
67
 20
-120
 11
67
 21
-124
  0
MTEXT
  5
98
100
AcDbEntity
  8
0
  6
CONTINUOUS
 62
    0
370
   -2
100
AcDbMText
 10
65.97499999999999
 20
-122
 30
0
 40
2
 41
2.555555555555555
 71
    5
 72
    1
  1
4"
  7
standard
210
0
220
0
230
1
 50
90
 73
    2
 44
1
  0
LINE
  5
99
100
AcDbEntity
  8
0
  6
ByBlock
 62
    0
370
   -2
100
AcDbLine
 10
67.70710678118655
 20
-120.7071067811866
 11
66.29289321881345
 21
-119.2928932188134
  0
LINE
  5
9A
100
AcDbEntity
  8
0
  6
ByBlock
 62
    0
370
   -2
100
AcDbLine
 10
67.70710678118655
 20
-124.7071067811866
 11
66.29289321881345
 21
-123.2928932188134
  0
ENDBLK
  5
58
330
56
100
AcDbEntity
  8
0
100
AcDbBlockEnd
  0
BLOCK
  5
5A
330
59
100
AcDbEntity
  8
0
100
AcDbBlockBegin
  2
*D8
 70
    1
 10
0
 20
0
  3
*D8
  1

  0
LINE
  5
9B
100
AcDbEntity
  8
0
  6
ByBlock
 62
    0
370
   -2
100
AcDbLine
 10
71
 20
1.025
 11
71
 21
2.05
  0
LINE
  5
9C
100
AcDbEntity
  8
0
  6
ByBlock
 62
    0
370
   -2
100
AcDbLine
 10
79
 20
1.025
 11
79
 21
2.05
  0
LINE
  5
9D
100
AcDbEntity
  8
0
  6
ByBlock
 62
    0
370
   -2
100
AcDbLine
 10
71
 20
2
 11
79
 21
2
  0
MTEXT
  5
9E
100
AcDbEntity
  8
0
  6
CONTINUOUS
 62
    0
370
   -2
100
AcDbMText
 10
75
 20
3.025
 30
0
 40
2
 41
2.333333333333333
 71
    5
 72
    1
  1
8"
  7
standard
210
0
220
0
230
1
 50
0
 73
    2
 44
1
  0
LINE
  5
9F
100
AcDbEntity
  8
0
  6
ByBlock
 62
    0
370
   -2
100
AcDbLine
 10
71.70710678118655
 20
2.707106781186547
 11
70.29289321881345
 21
1.292893218813453
  0
LINE
  5
A0
100
AcDbEntity
  8
0
  6
ByBlock
 62
    0
370
   -2
100
AcDbLine
 10
79.70710678118655
 20
2.707106781186547
 11
78.29289321881345
 21
1.292893218813453
  0
ENDBLK
  5
5B
330
59
100
AcDbEntity
  8
0
100
AcDbBlockEnd
  0
BLOCK
  5
5D
330
5C
100
AcDbEntity
  8
0
100
AcDbBlockBegin
  2
*D16
 70
    1
 10
0
 20
0
  3
*D16
  1

  0
LINE
  5
A1
100
AcDbEntity
  8
0
  6
ByBlock
 62
    0
370
   -2
100
AcDbLine
 10
97
 20
-98.97499999999999
 11
97
 21
-97.95
  0
LINE
  5
A2
100
AcDbEntity
  8
0
  6
ByBlock
 62
    0
370
   -2
100
AcDbLine
 10
105
 20
-98.97499999999999
 11
105
 21
-97.95
  0
LINE
  5
A3
100
AcDbEntity
  8
0
  6
ByBlock
 62
    0
370
   -2
100
AcDbLine
 10
97
 20
-98
 11
105
 21
-98
  0
MTEXT
  5
A4
100
AcDbEntity
  8
0
  6
CONTINUOUS
 62
    0
370
   -2
100
AcDbMText
 10
101
 20
-96.97499999999999
 30
0
 40
2
 41
2.333333333333333
 71
    5
 72
    1
  1
8"
  7
standard
210
0
220
0
230
1
 50
0
 73
    2
 44
1
  0
LINE
  5
A5
100
AcDbEntity
  8
0
  6
ByBlock
 62
    0
370
   -2
100
AcDbLine
 10
97.70710678118655
 20
-97.29289321881345
 11
96.29289321881345
 21
-98.70710678118655
  0
LINE
  5
A6
100
AcDbEntity
  8
0
  6
ByBlock
 62
    0
370
   -2
100
AcDbLine
 10
105.7071067811866
 20
-97.29289321881345
 11
104.2928932188134
 21
-98.70710678118655
  0
ENDBLK
  5
5E
330
5C
100
AcDbEntity
  8
0
100
AcDbBlockEnd
  0
BLOCK
  5
60
330
5F
100
AcDbEntity
  8
0
100
AcDbBlockBegin
  2
*D1
 70
    1
 10
0
 20
0
  3
*D1
  1

  0
LINE
  5
A7
100
AcDbEntity
  8
0
  6
ByBlock
 62
    0
370
   -2
100
AcDbLine
 10
-1.025
 20
1.779418355284806e-15
 11
-3.05
 21
2.027401141933837e-15
  0
LINE
  5
A8
100
AcDbEntity
  8
0
  6
ByBlock
 62
    0
370
   -2
100
AcDbLine
 10
-1.025
 20
-16
 11
-3.05
 21
-16
  0
LINE
  5
A9
100
AcDbEntity
  8
0
  6
ByBlock
 62
    0
370
   -2
100
AcDbLine
 10
-3
 20
2.021278110164726e-15
 11
-3
 21
-16
  0
MTEXT
  5
AA
100
AcDbEntity
  8
0
  6
CONTINUOUS
 62
    0
370
   -2
100
AcDbMText
 10
-4.025
 20
-7.999999999999998
 30
0
 40
2
 41
6
 71
    5
 72
    1
  1
1'-4"
  7
standard
210
0
220
0
230
1
 50
90
 73
    2
 44
1
  0
LINE
  5
AB
100
AcDbEntity
  8
0
  6
ByBlock
 62
    0
370
   -2
100
AcDbLine
 10
-2.292893218813453
 20
-0.7071067811865456
 11
-3.707106781186547
 21
0.7071067811865496
  0
LINE
  5
AC
100
AcDbEntity
  8
0
  6
ByBlock
 62
    0
370
   -2
100
AcDbLine
 10
-2.292893218813453
 20
-16.70710678118655
 11
-3.707106781186547
 21
-15.29289321881345
  0
ENDBLK
  5
61
330
5F
100
AcDbEntity
  8
0
100
AcDbBlockEnd
  0
BLOCK
  5
63
330
62
100
AcDbEntity
  8
0
100
AcDbBlockBegin
  2
*D6
 70
    1
 10
0
 20
0
  3
*D6
  1

  0
LINE
  5
AD
100
AcDbEntity
  8
0
  6
ByBlock
 62
    0
370
   -2
100
AcDbLine
 10
70
 20
-50.02500000000001
 11
70
 21
-53.05000000000001
  0
LINE
  5
AE
100
AcDbEntity
  8
0
  6
ByBlock
 62
    0
370
   -2
100
AcDbLine
 10
106
 20
-50.02499999999999
 11
106
 21
-53.05
  0
LINE
  5
AF
100
AcDbEntity
  8
0
  6
ByBlock
 62
    0
370
   -2
100
AcDbLine
 10
70
 20
-53.00000000000001
 11
106
 21
-53
  0
MTEXT
  5
B0
100
AcDbEntity
  8
0
  6
CONTINUOUS
 62
    0
370
   -2
100
AcDbMText
 10
88
 20
-51.97500000000002
 30
0
 40
2
 41
6.222222222222346
 71
    5
 72
    1
  1
3'-0"
  7
standard
210
0
220
0
230
1
 50
2.544443745170813e-14
 73
    2
 44
1
  0
LINE
  5
B1
100
AcDbEntity
  8
0
  6
ByBlock
 62
    0
370
   -2
100
AcDbLine
 10
70.70710678118655
 20
-52.29289321881347
 11
69.29289321881345
 21
-53.70710678118656
  0
LINE
  5
B2
100
AcDbEntity
  8
0
  6
ByBlock
 62
    0
370
   -2
100
AcDbLine
 10
106.7071067811866
 20
-52.29289321881345
 11
105.2928932188134
 21
-53.70710678118655
  0
ENDBLK
  5
64
330
62
100
AcDbEntity
  8
0
100
AcDbBlockEnd
  0
BLOCK
  5
66
330
65
100
AcDbEntity
  8
0
100
AcDbBlockBegin
  2
*D18
 70
    1
 10
0
 20
0
  3
*D18
  1

  0
LINE
  5
B3
100
AcDbEntity
  8
0
  6
ByBlock
 62
    0
370
   -2
100
AcDbLine
 10
-1.025
 20
-122
 11
-3.05
 21
-122
  0
LINE
  5
B4
100
AcDbEntity
  8
0
  6
ByBlock
 62
    0
370
   -2
100
AcDbLine
 10
-1.025
 20
-126
 11
-3.05
 21
-126
  0
LINE
  5
B5
100
AcDbEntity
  8
0
  6
ByBlock
 62
    0
370
   -2
100
AcDbLine
 10
-3
 20
-122
 11
-3
 21
-126
  0
MTEXT
  5
B6
100
AcDbEntity
  8
0
  6
CONTINUOUS
 62
    0
370
   -2
100
AcDbMText
 10
-4.025
 20
-124
 30
0
 40
2
 41
2.555555555555555
 71
    5
 72
    1
  1
4"
  7
standard
210
0
220
0
230
1
 50
90
 73
    2
 44
1
  0
LINE
  5
B7
100
AcDbEntity
  8
0
  6
ByBlock
 62
    0
370
   -2
100
AcDbLine
 10
-2.292893218813453
 20
-122.7071067811866
 11
-3.707106781186547
 21
-121.2928932188134
  0
LINE
  5
B8
100
AcDbEntity
  8
0
  6
ByBlock
 62
    0
370
   -2
100
AcDbLine
 10
-2.292893218813453
 20
-126.7071067811866
 11
-3.707106781186547
 21
-125.2928932188134
  0
ENDBLK
  5
67
330
65
100
AcDbEntity
  8
0
100
AcDbBlockEnd
  0
BLOCK
  5
69
330
68
100
AcDbEntity
  8
0
100
AcDbBlockBegin
  2
*D13
 70
    1
 10
0
 20
0
  3
*D13
  1

  0
LINE
  5
B9
100
AcDbEntity
  8
0
  6
ByBlock
 62
    0
370
   -2
100
AcDbLine
 10
70
 20
-150.025
 11
70
 21
-153.05
  0
LINE
  5
BA
100
AcDbEntity
  8
0
  6
ByBlock
 62
    0
370
   -2
100
AcDbLine
 10
106
 20
-150.025
 11
106
 21
-153.05
  0
LINE
  5
BB
100
AcDbEntity
  8
0
  6
ByBlock
 62
    0
370
   -2
100
AcDbLine
 10
70
 20
-153
 11
106
 21
-153
  0
MTEXT
  5
BC
100
AcDbEntity
  8
0
  6
CONTINUOUS
 62
    0
370
   -2
100
AcDbMText
 10
88
 20
-151.975
 30
0
 40
2
 41
6.222222222222346
 71
    5
 72
    1
  1
3'-0"
  7
standard
210
0
220
0
230
1
 50
0
 73
    2
 44
1
  0
LINE
  5
BD
100
AcDbEntity
  8
0
  6
ByBlock
 62
    0
370
   -2
100
AcDbLine
 10
70.70710678118655
 20
-152.2928932188134
 11
69.29289321881345
 21
-153.7071067811866
  0
LINE
  5
BE
100
AcDbEntity
  8
0
  6
ByBlock
 62
    0
370
   -2
100
AcDbLine
 10
106.7071067811866
 20
-152.2928932188134
 11
105.2928932188134
 21
-153.7071067811866
  0
ENDBLK
  5
6A
330
68
100
AcDbEntity
  8
0
100
AcDbBlockEnd
  0
BLOCK
  5
6C
330
6B
100
AcDbEntity
  8
0
100
AcDbBlockBegin
  2
*D17
 70
    1
 10
0
 20
0
  3
*D17
  1

  0
LINE
  5
BF
100
AcDbEntity
  8
0
  6
ByBlock
 62
    0
370
   -2
100
AcDbLine
 10
50.025
 20
-100
 11
52.05
 21
-100
  0
LINE
  5
C0
100
AcDbEntity
  8
0
  6
ByBlock
 62
    0
370
   -2
100
AcDbLine
 10
50.025
 20
-154
 11
52.05
 21
-154
  0
LINE
  5
C1
100
AcDbEntity
  8
0
  6
ByBlock
 62
    0
370
   -2
100
AcDbLine
 10
52
 20
-100
 11
52
 21
-154
  0
MTEXT
  5
C2
100
AcDbEntity
  8
0
  6
CONTINUOUS
 62
    0
370
   -2
100
AcDbMText
 10
50.975
 20
-127
 30
0
 40
2
 41
6.444444444444568
 71
    5
 72
    1
  1
4'-6"
  7
standard
210
0
220
0
230
1
 50
90
 73
    2
 44
1
  0
LINE
  5
C3
100
AcDbEntity
  8
0
  6
ByBlock
 62
    0
370
   -2
100
AcDbLine
 10
52.70710678118655
 20
-100.7071067811866
 11
51.29289321881345
 21
-99.29289321881345
  0
LINE
  5
C4
100
AcDbEntity
  8
0
  6
ByBlock
 62
    0
370
   -2
100
AcDbLine
 10
52.70710678118655
 20
-154.7071067811866
 11
51.29289321881345
 21
-153.2928932188134
  0
ENDBLK
  5
6D
330
6B
100
AcDbEntity
  8
0
100
AcDbBlockEnd
  0
BLOCK
  5
6F
330
6E
100
AcDbEntity
  8
0
100
AcDbBlockBegin
  2
*D5
 70
    1
 10
0
 20
0
  3
*D5
  1

  0
LINE
  5
C5
100
AcDbEntity
  8
0
  6
ByBlock
 62
    0
370
   -2
100
AcDbLine
 10
107.025
 20
-7.105427357601002e-15
 11
110.05
 21
-7.105427357601002e-15
  0
LINE
  5
C6
100
AcDbEntity
  8
0
  6
ByBlock
 62
    0
370
   -2
100
AcDbLine
 10
107.025
 20
-48
 11
110.05
 21
-48
  0
LINE
  5
C7
100
AcDbEntity
  8
0
  6
ByBlock
 62
    0
370
   -2
100
AcDbLine
 10
110
 20
-7.105427357601002e-15
 11
110
 21
-48
  0
MTEXT
  5
C8
100
AcDbEntity
  8
0
  6
CONTINUOUS
 62
    0
370
   -2
100
AcDbMText
 10
108.975
 20
-24
 30
0
 40
2
 41
6.444444444444444
 71
    5
 72
    1
  1
4'-0"
  7
standard
210
0
220
0
230
1
 50
90
 73
    2
 44
1
  0
LINE
  5
C9
100
AcDbEntity
  8
0
  6
ByBlock
 62
    0
370
   -2
100
AcDbLine
 10
110.7071067811866
 20
-0.7071067811865547
 11
109.2928932188134
 21
0.7071067811865405
  0
LINE
  5
CA
100
AcDbEntity
  8
0
  6
ByBlock
 62
    0
370
   -2
100
AcDbLine
 10
110.7071067811866
 20
-48.70710678118655
 11
109.2928932188134
 21
-47.29289321881345
  0
ENDBLK
  5
70
330
6E
100
AcDbEntity
  8
0
100
AcDbBlockEnd
  0
BLOCK
  5
72
330
71
100
AcDbEntity
  8
0
100
AcDbBlockBegin
  2
*D9
 70
    1
 10
0
 20
0
  3
*D9
  1

  0
LINE
  5
CB
100
AcDbEntity
  8
0
  6
ByBlock
 62
    0
370
   -2
100
AcDbLine
 10
97
 20
1.025
 11
97
 21
2.05
  0
LINE
  5
CC
100
AcDbEntity
  8
0
  6
ByBlock
 62
    0
370
   -2
100
AcDbLine
 10
105
 20
1.025
 11
105
 21
2.05
  0
LINE
  5
CD
100
AcDbEntity
  8
0
  6
ByBlock
 62
    0
370
   -2
100
AcDbLine
 10
97
 20
2
 11
105
 21
2
  0
MTEXT
  5
CE
100
AcDbEntity
  8
0
  6
CONTINUOUS
 62
    0
370
   -2
100
AcDbMText
 10
101
 20
3.025
 30
0
 40
2
 41
2.333333333333333
 71
    5
 72
    1
  1
8"
  7
standard
210
0
220
0
230
1
 50
0
 73
    2
 44
1
  0
LINE
  5
CF
100
AcDbEntity
  8
0
  6
ByBlock
 62
    0
370
   -2
100
AcDbLine
 10
97.70710678118655
 20
2.707106781186547
 11
96.29289321881345
 21
1.292893218813453
  0
LINE
  5
D0
100
AcDbEntity
  8
0
  6
ByBlock
 62
    0
370
   -2
100
AcDbLine
 10
105.7071067811866
 20
2.707106781186547
 11
104.2928932188134
 21
1.292893218813453
  0
ENDBLK
  5
73
330
71
100
AcDbEntity
  8
0
100
AcDbBlockEnd
  0
BLOCK
  5
75
330
74
100
AcDbEntity
  8
0
100
AcDbBlockBegin
  2
*D11
 70
    1
 10
0
 20
0
  3
*D11
  1

  0
LINE
  5
D1
100
AcDbEntity
  8
0
  6
ByBlock
 62
    0
370
   -2
100
AcDbLine
 10
-4.592273826833915e-18
 20
-156.025
 11
-3.76566453800381e-16
 21
-158.05
  0
LINE
  5
D2
100
AcDbEntity
  8
0
  6
ByBlock
 62
    0
370
   -2
100
AcDbLine
 10
48
 20
-156.025
 11
48
 21
-158.05
  0
LINE
  5
D3
100
AcDbEntity
  8
0
  6
ByBlock
 62
    0
370
   -2
100
AcDbLine
 10
-3.673819061467132e-16
 20
-158
 11
48
 21
-158
  0
MTEXT
  5
D4
100
AcDbEntity
  8
0
  6
CONTINUOUS
 62
    0
370
   -2
100
AcDbMText
 10
24
 20
-156.975
 30
0
 40
2
 41
6.444444444444444
 71
    5
 72
    1
  1
4'-0"
  7
standard
210
0
220
0
230
1
 50
0
 73
    2
 44
1
  0
LINE
  5
D5
100
AcDbEntity
  8
0
  6
ByBlock
 62
    0
370
   -2
100
AcDbLine
 10
0.7071067811865474
 20
-157.2928932188134
 11
-0.707106781186548
 21
-158.7071067811866
  0
LINE
  5
D6
100
AcDbEntity
  8
0
  6
ByBlock
 62
    0
370
   -2
100
AcDbLine
 10
48.70710678118655
 20
-157.2928932188134
 11
47.29289321881345
 21
-158.7071067811866
  0
ENDBLK
  5
76
330
74
100
AcDbEntity
  8
0
100
AcDbBlockEnd
  0
BLOCK
  5
78
330
77
100
AcDbEntity
  8
0
100
AcDbBlockBegin
  2
*D2
 70
    1
 10
0
 20
0
  3
*D2
  1

  0
LINE
  5
D7
100
AcDbEntity
  8
0
  6
ByBlock
 62
    0
370
   -2
100
AcDbLine
 10
50.025
 20
0
 11
52.05
 21
0
  0
LINE
  5
D8
100
AcDbEntity
  8
0
  6
ByBlock
 62
    0
370
   -2
100
AcDbLine
 10
50.025
 20
-54
 11
52.05
 21
-54
  0
LINE
  5
D9
100
AcDbEntity
  8
0
  6
ByBlock
 62
    0
370
   -2
100
AcDbLine
 10
52
 20
0
 11
52
 21
-54
  0
MTEXT
  5
DA
100
AcDbEntity
  8
0
  6
CONTINUOUS
 62
    0
370
   -2
100
AcDbMText
 10
50.975
 20
-27
 30
0
 40
2
 41
6.444444444444568
 71
    5
 72
    1
  1
4'-6"
  7
standard
210
0
220
0
230
1
 50
90
 73
    2
 44
1
  0
LINE
  5
DB
100
AcDbEntity
  8
0
  6
ByBlock
 62
    0
370
   -2
100
AcDbLine
 10
52.70710678118655
 20
-0.7071067811865476
 11
51.29289321881345
 21
0.7071067811865476
  0
LINE
  5
DC
100
AcDbEntity
  8
0
  6
ByBlock
 62
    0
370
   -2
100
AcDbLine
 10
52.70710678118655
 20
-54.70710678118655
 11
51.29289321881345
 21
-53.29289321881345
  0
ENDBLK
  5
79
330
77
100
AcDbEntity
  8
0
100
AcDbBlockEnd
  0
BLOCK
  5
7B
330
7A
100
AcDbEntity
  8
0
100
AcDbBlockBegin
  2
*D3
 70
    1
 10
0
 20
0
  3
*D3
  1

  0
LINE
  5
DD
100
AcDbEntity
  8
0
  6
ByBlock
 62
    0
370
   -2
100
AcDbLine
 10
-4.592273826833915e-18
 20
-56.025
 11
-3.76566453800381e-16
 21
-58.05
  0
LINE
  5
DE
100
AcDbEntity
  8
0
  6
ByBlock
 62
    0
370
   -2
100
AcDbLine
 10
48
 20
-56.025
 11
48
 21
-58.05
  0
LINE
  5
DF
100
AcDbEntity
  8
0
  6
ByBlock
 62
    0
370
   -2
100
AcDbLine
 10
-3.673819061467132e-16
 20
-58
 11
48
 21
-58
  0
MTEXT
  5
E0
100
AcDbEntity
  8
0
  6
CONTINUOUS
 62
    0
370
   -2
100
AcDbMText
 10
24
 20
-56.975
 30
0
 40
2
 41
6.444444444444444
 71
    5
 72
    1
  1
4'-0"
  7
standard
210
0
220
0
230
1
 50
0
 73
    2
 44
1
  0
LINE
  5
E1
100
AcDbEntity
  8
0
  6
ByBlock
 62
    0
370
   -2
100
AcDbLine
 10
0.7071067811865474
 20
-57.29289321881345
 11
-0.707106781186548
 21
-58.70710678118655
  0
LINE
  5
E2
100
AcDbEntity
  8
0
  6
ByBlock
 62
    0
370
   -2
100
AcDbLine
 10
48.70710678118655
 20
-57.29289321881345
 11
47.29289321881345
 21
-58.70710678118655
  0
ENDBLK
  5
7C
330
7A
100
AcDbEntity
  8
0
100
AcDbBlockEnd
  0
BLOCK
  5
7E
330
7D
100
AcDbEntity
  8
0
100
AcDbBlockBegin
  2
*D15
 70
    1
 10
0
 20
0
  3
*D15
  1

  0
LINE
  5
E3
100
AcDbEntity
  8
0
  6
ByBlock
 62
    0
370
   -2
100
AcDbLine
 10
71
 20
-98.97499999999999
 11
71
 21
-97.95
  0
LINE
  5
E4
100
AcDbEntity
  8
0
  6
ByBlock
 62
    0
370
   -2
100
AcDbLine
 10
79
 20
-98.97499999999999
 11
79
 21
-97.95
  0
LINE
  5
E5
100
AcDbEntity
  8
0
  6
ByBlock
 62
    0
370
   -2
100
AcDbLine
 10
71
 20
-98
 11
79
 21
-98
  0
MTEXT
  5
E6
100
AcDbEntity
  8
0
  6
CONTINUOUS
 62
    0
370
   -2
100
AcDbMText
 10
75
 20
-96.97499999999999
 30
0
 40
2
 41
2.333333333333333
 71
    5
 72
    1
  1
8"
  7
standard
210
0
220
0
230
1
 50
0
 73
    2
 44
1
  0
LINE
  5
E7
100
AcDbEntity
  8
0
  6
ByBlock
 62
    0
370
   -2
100
AcDbLine
 10
71.70710678118655
 20
-97.29289321881345
 11
70.29289321881345
 21
-98.70710678118655
  0
LINE
  5
E8
100
AcDbEntity
  8
0
  6
ByBlock
 62
    0
370
   -2
100
AcDbLine
 10
79.70710678118655
 20
-97.29289321881345
 11
78.29289321881345
 21
-98.70710678118655
  0
ENDBLK
  5
7F
330
7D
100
AcDbEntity
  8
0
100
AcDbBlockEnd
  0
BLOCK
  5
81
330
80
100
AcDbEntity
  8
0
100
AcDbBlockBegin
  2
*D7
 70
    1
 10
0
 20
0
  3
*D7
  1

  0
LINE
  5
E9
100
AcDbEntity
  8
0
  6
ByBlock
 62
    0
370
   -2
100
AcDbLine
 10
68.97499999999999
 20
-20
 11
66.95
 21
-20
  0
LINE
  5
EA
100
AcDbEntity
  8
0
  6
ByBlock
 62
    0
370
   -2
100
AcDbLine
 10
68.97499999999999
 20
-24
 11
66.95
 21
-24
  0
LINE
  5
EB
100
AcDbEntity
  8
0
  6
ByBlock
 62
    0
370
   -2
100
AcDbLine
 10
67
 20
-20
 11
67
 21
-24
  0
MTEXT
  5
EC
100
AcDbEntity
  8
0
  6
CONTINUOUS
 62
    0
370
   -2
100
AcDbMText
 10
65.97499999999999
 20
-22
 30
0
 40
2
 41
2.555555555555555
 71
    5
 72
    1
  1
4"
  7
standard
210
0
220
0
230
1
 50
90
 73
    2
 44
1
  0
LINE
  5
ED
100
AcDbEntity
  8
0
  6
ByBlock
 62
    0
370
   -2
100
AcDbLine
 10
67.70710678118655
 20
-20.70710678118655
 11
66.29289321881345
 21
-19.29289321881345
  0
LINE
  5
EE
100
AcDbEntity
  8
0
  6
ByBlock
 62
    0
370
   -2
100
AcDbLine
 10
67.70710678118655
 20
-24.70710678118655
 11
66.29289321881345
 21
-23.29289321881345
  0
ENDBLK
  5
82
330
80
100
AcDbEntity
  8
0
100
AcDbBlockEnd
  0
ENDSEC
  0
SECTION
  2
ENTITIES
  0
HATCH
  5
EF
100
AcDbEntity
  8
0
  6
ByLayer
 62
  256
370
   -1
100
AcDbHatch
 10
0
 20
0
 30
0
210
0
220
0
230
1
  2
SOLID
 70
    1
 71
    0
 91
    1
 92
    0
 93
    8
 72
    1
 10
80
 20
-104
 11
80
 21
-144
 72
    1
 10
80
 20
-144
 11
79
 21
-144
 72
    1
 10
79
 20
-144
 11
79
 21
-104
 72
    1
 10
79
 20
-104
 11
80
 21
-104
 72
    1
 10
96
 20
-104
 11
97
 21
-104
 72
    1
 10
97
 20
-104
 11
97
 21
-144
 72
    1
 10
97
 20
-144
 11
96
 21
-144
 72
    1
 10
96
 20
-144
 11
96
 21
-104
 97
    0
 75
    0
 76
    1
 98
    0
  0
HATCH
  5
F0
100
AcDbEntity
  8
0
  6
ByLayer
 62
  256
370
   -1
100
AcDbHatch
 10
0
 20
0
 30
0
210
0
220
0
230
1
  2
SOLID
 70
    1
 71
    0
 91
    1
 92
    0
 93
    4
 72
    1
 10
47
 20
-115
 11
47
 21
-116
 72
    1
 10
47
 20
-116
 11
1
 21
-116
 72
    1
 10
1
 20
-116
 11
1
 21
-115
 72
    1
 10
1
 20
-115
 11
47
 21
-115
 97
    0
 75
    0
 76
    1
 98
    0
  0
HATCH
  5
F1
100
AcDbEntity
  8
0
  6
ByLayer
 62
  256
370
   -1
100
AcDbHatch
 10
0
 20
0
 30
0
210
0
220
0
230
1
  2
SOLID
 70
    1
 71
    0
 91
    1
 92
    0
 93
    4
 72
    1
 10
13
 20
-104
 11
13
 21
-153
 72
    1
 10
13
 20
-153
 11
12
 21
-153
 72
    1
 10
12
 20
-153
 11
12
 21
-104
 72
    1
 10
12
 20
-104
 11
13
 21
-104
 97
    0
 75
    0
 76
    1
 98
    0
  0
HATCH
  5
F2
100
AcDbEntity
  8
0
  6
ByLayer
 62
  256
370
   -1
100
AcDbHatch
 10
0
 20
0
 30
0
210
0
220
0
230
1
  2
SOLID
 70
    1
 71
    0
 91
    1
 92
    0
 93
    4
 72
    1
 10
25
 20
-115
 11
25
 21
-153
 72
    1
 10
25
 20
-153
 11
23
 21
-153
 72
    1
 10
23
 20
-153
 11
23
 21
-115
 72
    1
 10
23
 20
-115
 11
25
 21
-115
 97
    0
 75
    0
 76
    1
 98
    0
  0
HATCH
  5
F3
100
AcDbEntity
  8
0
  6
ByLayer
 62
  256
370
   -1
100
AcDbHatch
 10
0
 20
0
 30
0
210
0
220
0
230
1
  2
SOLID
 70
    1
 71
    0
 91
    1
 92
    0
 93
    4
 72
    1
 10
36
 20
-104
 11
36
 21
-153
 72
    1
 10
36
 20
-153
 11
35
 21
-153
 72
    1
 10
35
 20
-153
 11
35
 21
-104
 72
    1
 10
35
 20
-104
 11
36
 21
-104
 97
    0
 75
    0
 76
    1
 98
    0
  0
HATCH
  5
F4
100
AcDbEntity
  8
0
  6
ByLayer
 62
  256
370
   -1
100
AcDbHatch
 10
0
 20
0
 30
0
210
0
220
0
230
1
  2
SOLID
 70
    1
 71
    0
 91
    1
 92
    0
 93
    4
 72
    1
 10
89
 20
-101
 11
89
 21
-147
 72
    1
 10
89
 20
-147
 11
87
 21
-147
 72
    1
 10
87
 20
-147
 11
87
 21
-101
 72
    1
 10
87
 20
-101
 11
89
 21
-101
 97
    0
 75
    0
 76
    1
 98
    0
  0
HATCH
  5
F5
100
AcDbEntity
  8
0
  6
ByLayer
 62
  256
370
   -1
100
AcDbHatch
 10
0
 20
0
 30
0
210
0
220
0
230
1
  2
SOLID
 70
    1
 71
    0
 91
    1
 92
    0
 93
    8
 72
    1
 10
48
 20
0
 11
48
 21
-54
 72
    1
 10
48
 20
-54
 11
0
 21
-54
 72
    1
 10
0
 20
-54
 11
0
 21
0
 72
    1
 10
0
 20
0
 11
48
 21
0
 72
    1
 10
1
 20
-1
 11
47
 21
-1
 72
    1
 10
47
 20
-1
 11
47
 21
-53
 72
    1
 10
47
 20
-53
 11
1
 21
-53
 72
    1
 10
1
 20
-53
 11
1
 21
-1
 97
    0
 75
    0
 76
    1
 98
    0
  0
HATCH
  5
F6
100
AcDbEntity
  8
0
  6
ByLayer
 62
  256
370
   -1
100
AcDbHatch
 10
0
 20
0
 30
0
210
0
220
0
230
1
  2
SOLID
 70
    1
 71
    0
 91
    1
 92
    0
 93
    4
 72
    1
 10
25
 20
-1
 11
25
 21
-53
 72
    1
 10
25
 20
-53
 11
23
 21
-53
 72
    1
 10
23
 20
-53
 11
23
 21
-1
 72
    1
 10
23
 20
-1
 11
25
 21
-1
 97
    0
 75
    0
 76
    1
 98
    0
  0
HATCH
  5
F7
100
AcDbEntity
  8
0
  6
ByLayer
 62
  256
370
   -1
100
AcDbHatch
 10
0
 20
0
 30
0
210
0
220
0
230
1
  2
SOLID
 70
    1
 71
    0
 91
    1
 92
    0
 93
    4
 72
    1
 10
47
 20
-16
 11
47
 21
-17
 72
    1
 10
47
 20
-17
 11
1
 21
-17
 72
    1
 10
1
 20
-17
 11
1
 21
-16
 72
    1
 10
1
 20
-16
 11
47
 21
-16
 97
    0
 75
    0
 76
    1
 98
    0
  0
HATCH
  5
F8
100
AcDbEntity
  8
0
  6
ByLayer
 62
  256
370
   -1
100
AcDbHatch
 10
0
 20
0
 30
0
210
0
220
0
230
1
  2
SOLID
 70
    1
 71
    0
 91
    1
 92
    0
 93
    8
 72
    1
 10
105
 20
-101
 11
105
 21
-147
 72
    1
 10
105
 20
-147
 11
71
 21
-147
 72
    1
 10
71
 20
-147
 11
71
 21
-101
 72
    1
 10
71
 20
-101
 11
105
 21
-101
 72
    1
 10
70
 20
-100
 11
106
 21
-100
 72
    1
 10
106
 20
-100
 11
106
 21
-148
 72
    1
 10
106
 20
-148
 11
70
 21
-148
 72
    1
 10
70
 20
-148
 11
70
 21
-100
 97
    0
 75
    0
 76
    1
 98
    0
  0
HATCH
  5
F9
100
AcDbEntity
  8
0
  6
ByLayer
 62
  256
370
   -1
100
AcDbHatch
 10
0
 20
0
 30
0
210
0
220
0
230
1
  2
SOLID
 70
    1
 71
    0
 91
    1
 92
    0
 93
    8
 72
    1
 10
80
 20
-1
 11
80
 21
-47
 72
    1
 10
80
 20
-47
 11
79
 21
-47
 72
    1
 10
79
 20
-47
 11
79
 21
-1
 72
    1
 10
79
 20
-1
 11
80
 21
-1
 72
    1
 10
96
 20
-1
 11
97
 21
-1
 72
    1
 10
97
 20
-1
 11
97
 21
-47
 72
    1
 10
97
 20
-47
 11
96
 21
-47
 72
    1
 10
96
 20
-47
 11
96
 21
-1
 97
    0
 75
    0
 76
    1
 98
    0
  0
HATCH
  5
FA
100
AcDbEntity
  8
0
  6
ByLayer
 62
  256
370
   -1
100
AcDbHatch
 10
0
 20
0
 30
0
210
0
220
0
230
1
  2
SOLID
 70
    1
 71
    0
 91
    1
 92
    0
 93
    8
 72
    1
 10
13
 20
-1
 11
13
 21
-53
 72
    1
 10
13
 20
-53
 11
12
 21
-53
 72
    1
 10
12
 20
-53
 11
12
 21
-1
 72
    1
 10
12
 20
-1
 11
13
 21
-1
 72
    1
 10
36
 20
-53
 11
37
 21
-53
 72
    1
 10
37
 20
-53
 11
37
 21
-1
 72
    1
 10
37
 20
-1
 11
36
 21
-1
 72
    1
 10
36
 20
-1
 11
36
 21
-53
 97
    0
 75
    0
 76
    1
 98
    0
  0
LWPOLYLINE
  5
FB
100
AcDbEntity
  8
0
  6
ByLayer
 62
  256
370
   -1
100
AcDbPolyline
 90
    2
 70
    1
 43
0
 10
23
 20
-1
 10
25
 20
-53
  0
DIMENSION
  5
FC
100
AcDbEntity
  8
0
  6
ByLayer
 62
  256
370
   -1
100
AcDbDimension
  2
*D1
 10
-3
 20
-16
 30
0
 11
-4.025
 21
-7.999999999999998
 31
0
 70
   33
 71
    5
  3
Standard
 53
0
210
0
220
0
230
1
100
AcDbAlignedDimension
 13
-1
 23
1.77635683940025e-15
 33
0
 14
-1
 24
-16
 34
0
  0
DIMENSION
  5
FD
100
AcDbEntity
  8
0
  6
ByLayer
 62
  256
370
   -1
100
AcDbDimension
  2
*D2
 10
52
 20
-54
 30
0
 11
50.975
 21
-27
 31
0
 70
   33
 71
    5
  3
Standard
 53
0
210
0
220
0
230
1
100
AcDbAlignedDimension
 13
50
 23
0
 33
0
 14
50
 24
-54
 34
0
  0
DIMENSION
  5
FE
100
AcDbEntity
  8
0
  6
ByLayer
 62
  256
370
   -1
100
AcDbDimension
  2
*D3
 10
48
 20
-58
 30
0
 11
24
 21
-56.975
 31
0
 70
   33
 71
    5
  3
Standard
 53
0
210
0
220
0
230
1
100
AcDbAlignedDimension
 13
0
 23
-56
 33
0
 14
48
 24
-56
 34
0
  0
DIMENSION
  5
FF
100
AcDbEntity
  8
0
  6
ByLayer
 62
  256
370
   -1
100
AcDbDimension
  2
*D4
 10
-3
 20
-25
 30
0
 11
-4.025
 21
-23
 31
0
 70
   33
 71
    5
  3
Standard
 53
0
210
0
220
0
230
1
100
AcDbAlignedDimension
 13
-1
 23
-21
 33
0
 14
-1
 24
-25
 34
0
  0
LWPOLYLINE
  5
100
100
AcDbEntity
  8
0
  6
ByLayer
 62
  256
370
   -1
100
AcDbPolyline
 90
    2
 70
    1
 43
0
 10
79
 20
-1
 10
80
 20
-47
  0
LWPOLYLINE
  5
101
100
AcDbEntity
  8
0
  6
ByLayer
 62
  256
370
   -1
100
AcDbPolyline
 90
    2
 70
    1
 43
0
 10
96
 20
-1
 10
97
 20
-47
  0
DIMENSION
  5
102
100
AcDbEntity
  8
0
  6
ByLayer
 62
  256
370
   -1
100
AcDbDimension
  2
*D5
 10
110
 20
-48
 30
0
 11
108.975
 21
-24
 31
0
 70
   33
 71
    5
  3
Standard
 53
0
210
0
220
0
230
1
100
AcDbAlignedDimension
 13
107
 23
-7.105427357601002e-15
 33
0
 14
107
 24
-48
 34
0
  0
DIMENSION
  5
103
100
AcDbEntity
  8
0
  6
ByLayer
 62
  256
370
   -1
100
AcDbDimension
  2
*D6
 10
106
 20
-53
 30
0
 11
88
 21
-51.97500000000002
 31
0
 70
   33
 71
    5
  3
Standard
 53
0
210
0
220
0
230
1
100
AcDbAlignedDimension
 13
70
 23
-50.00000000000001
 33
0
 14
106
 24
-49.99999999999999
 34
0
  0
DIMENSION
  5
104
100
AcDbEntity
  8
0
  6
ByLayer
 62
  256
370
   -1
100
AcDbDimension
  2
*D7
 10
67
 20
-24
 30
0
 11
65.97499999999999
 21
-22
 31
0
 70
   33
 71
    5
  3
Standard
 53
0
210
0
220
0
230
1
100
AcDbAlignedDimension
 13
69
 23
-20
 33
0
 14
69
 24
-24
 34
0
  0
DIMENSION
  5
105
100
AcDbEntity
  8
0
  6
ByLayer
 62
  256
370
   -1
100
AcDbDimension
  2
*D8
 10
79
 20
2
 30
0
 11
75
 21
3.025
 31
0
 70
   33
 71
    5
  3
Standard
 53
0
210
0
220
0
230
1
100
AcDbAlignedDimension
 13
71
 23
1
 33
0
 14
79
 24
1
 34
0
  0
DIMENSION
  5
106
100
AcDbEntity
  8
0
  6
ByLayer
 62
  256
370
   -1
100
AcDbDimension
  2
*D9
 10
105
 20
2
 30
0
 11
101
 21
3.025
 31
0
 70
   33
 71
    5
  3
Standard
 53
0
210
0
220
0
230
1
100
AcDbAlignedDimension
 13
97
 23
1
 33
0
 14
105
 24
1
 34
0
  0
LWPOLYLINE
  5
107
100
AcDbEntity
  8
0
  6
ByLayer
 62
  256
370
   -1
100
AcDbPolyline
 90
    2
 70
    1
 43
0
 10
1
 20
-16
 10
47
 20
-17
  0
LINE
  5
108
100
AcDbEntity
  8
0
  6
CONTINUOUS
 62
   16
420
8388608
370
   25
100
AcDbLine
 10
71
 20
-36
 11
105
 21
-36
  0
LINE
  5
109
100
AcDbEntity
  8
0
  6
CONTINUOUS
 62
   16
420
8388608
370
   25
100
AcDbLine
 10
105
 20
-32
 11
71
 21
-32
  0
LINE
  5
10A
100
AcDbEntity
  8
0
  6
CONTINUOUS
 62
   16
420
8388608
370
   25
100
AcDbLine
 10
71
 20
-28
 11
105
 21
-28
  0
LINE
  5
10B
100
AcDbEntity
  8
0
  6
CONTINUOUS
 62
   16
420
8388608
370
   25
100
AcDbLine
 10
105
 20
-24
 11
71
 21
-24
  0
LINE
  5
10C
100
AcDbEntity
  8
0
  6
CONTINUOUS
 62
   16
420
8388608
370
   25
100
AcDbLine
 10
71
 20
-20
 11
105
 21
-20
  0
LINE
  5
10D
100
AcDbEntity
  8
0
  6
CONTINUOUS
 62
   16
420
8388608
370
   25
100
AcDbLine
 10
105
 20
-16
 11
71
 21
-16
  0
LINE
  5
10E
100
AcDbEntity
  8
0
  6
CONTINUOUS
 62
   16
420
8388608
370
   25
100
AcDbLine
 10
71
 20
-12
 11
105
 21
-12
  0
LINE
  5
10F
100
AcDbEntity
  8
0
  6
CONTINUOUS
 62
   16
420
8388608
370
   25
100
AcDbLine
 10
71
 20
-8
 11
105
 21
-8
  0
LINE
  5
110
100
AcDbEntity
  8
0
  6
CONTINUOUS
 62
   16
420
8388608
370
   25
100
AcDbLine
 10
71
 20
-4
 11
105
 21
-4
  0
LINE
  5
111
100
AcDbEntity
  8
0
  6
CONTINUOUS
 62
   16
420
8388608
370
   25
100
AcDbLine
 10
105
 20
-40
 11
71
 21
-40
  0
LINE
  5
112
100
AcDbEntity
  8
0
  6
CONTINUOUS
 62
   16
420
8388608
370
   25
100
AcDbLine
 10
71
 20
-44
 11
105
 21
-44
  0
LINE
  5
113
100
AcDbEntity
  8
0
  6
CONTINUOUS
 62
    1
370
   25
100
AcDbLine
 10
47
 20
-41
 11
1
 21
-41
  0
LINE
  5
114
100
AcDbEntity
  8
0
  6
CONTINUOUS
 62
    1
370
   25
100
AcDbLine
 10
1
 20
-45
 11
47
 21
-45
  0
LINE
  5
115
100
AcDbEntity
  8
0
  6
CONTINUOUS
 62
    1
370
   25
100
AcDbLine
 10
47
 20
-49
 11
1
 21
-49
  0
LINE
  5
116
100
AcDbEntity
  8
0
  6
CONTINUOUS
 62
    1
370
   25
100
AcDbLine
 10
1
 20
-37
 11
47
 21
-37
  0
LINE
  5
117
100
AcDbEntity
  8
0
  6
CONTINUOUS
 62
    1
370
   25
100
AcDbLine
 10
47
 20
-33
 11
1
 21
-33
  0
LINE
  5
118
100
AcDbEntity
  8
0
  6
CONTINUOUS
 62
    1
370
   25
100
AcDbLine
 10
1
 20
-29
 11
47
 21
-29
  0
LINE
  5
119
100
AcDbEntity
  8
0
  6
CONTINUOUS
 62
    1
370
   25
100
AcDbLine
 10
47
 20
-25
 11
1
 21
-25
  0
LINE
  5
11A
100
AcDbEntity
  8
0
  6
CONTINUOUS
 62
    1
370
   25
100
AcDbLine
 10
1
 20
-21
 11
47
 21
-21
  0
LINE
  5
11B
100
AcDbEntity
  8
0
  6
CONTINUOUS
 62
    1
370
   25
100
AcDbLine
 10
1
 20
-12
 11
47
 21
-12
  0
LINE
  5
11C
100
AcDbEntity
  8
0
  6
CONTINUOUS
 62
    1
370
   25
100
AcDbLine
 10
1
 20
-8
 11
47
 21
-8
  0
LINE
  5
11D
100
AcDbEntity
  8
0
  6
CONTINUOUS
 62
    1
370
   25
100
AcDbLine
 10
1
 20
-4
 11
47
 21
-4
  0
DIMENSION
  5
11E
100
AcDbEntity
  8
0
  6
ByLayer
 62
  256
370
   -1
100
AcDbDimension
  2
*D10
 10
-3
 20
-116
 30
0
 11
-4.025
 21
-108
 31
0
 70
   33
 71
    5
  3
Standard
 53
0
210
0
220
0
230
1
100
AcDbAlignedDimension
 13
-1
 23
-100
 33
0
 14
-1
 24
-116
 34
0
  0
DIMENSION
  5
11F
100
AcDbEntity
  8
0
  6
ByLayer
 62
  256
370
   -1
100
AcDbDimension
  2
*D11
 10
48
 20
-158
 30
0
 11
24
 21
-156.975
 31
0
 70
   33
 71
    5
  3
Standard
 53
0
210
0
220
0
230
1
100
AcDbAlignedDimension
 13
0
 23
-156
 33
0
 14
48
 24
-156
 34
0
  0
DIMENSION
  5
120
100
AcDbEntity
  8
0
  6
ByLayer
 62
  256
370
   -1
100
AcDbDimension
  2
*D12
 10
110
 20
-148
 30
0
 11
108.975
 21
-124
 31
0
 70
   33
 71
    5
  3
Standard
 53
0
210
0
220
0
230
1
100
AcDbAlignedDimension
 13
107
 23
-100
 33
0
 14
107
 24
-148
 34
0
  0
DIMENSION
  5
121
100
AcDbEntity
  8
0
  6
ByLayer
 62
  256
370
   -1
100
AcDbDimension
  2
*D13
 10
106
 20
-153
 30
0
 11
88
 21
-151.975
 31
0
 70
   33
 71
    5
  3
Standard
 53
0
210
0
220
0
230
1
100
AcDbAlignedDimension
 13
70
 23
-150
 33
0
 14
106
 24
-150
 34
0
  0
DIMENSION
  5
122
100
AcDbEntity
  8
0
  6
ByLayer
 62
  256
370
   -1
100
AcDbDimension
  2
*D14
 10
67
 20
-124
 30
0
 11
65.97499999999999
 21
-122
 31
0
 70
   33
 71
    5
  3
Standard
 53
0
210
0
220
0
230
1
100
AcDbAlignedDimension
 13
69
 23
-120
 33
0
 14
69
 24
-124
 34
0
  0
DIMENSION
  5
123
100
AcDbEntity
  8
0
  6
ByLayer
 62
  256
370
   -1
100
AcDbDimension
  2
*D15
 10
79
 20
-98
 30
0
 11
75
 21
-96.97499999999999
 31
0
 70
   33
 71
    5
  3
Standard
 53
0
210
0
220
0
230
1
100
AcDbAlignedDimension
 13
71
 23
-99
 33
0
 14
79
 24
-99
 34
0
  0
DIMENSION
  5
124
100
AcDbEntity
  8
0
  6
ByLayer
 62
  256
370
   -1
100
AcDbDimension
  2
*D16
 10
105
 20
-98
 30
0
 11
101
 21
-96.97499999999999
 31
0
 70
   33
 71
    5
  3
Standard
 53
0
210
0
220
0
230
1
100
AcDbAlignedDimension
 13
97
 23
-99
 33
0
 14
105
 24
-99
 34
0
  0
LINE
  5
125
100
AcDbEntity
  8
0
  6
CONTINUOUS
 62
   16
420
8388608
370
   25
100
AcDbLine
 10
71
 20
-136
 11
105
 21
-136
  0
LINE
  5
126
100
AcDbEntity
  8
0
  6
CONTINUOUS
 62
   16
420
8388608
370
   25
100
AcDbLine
 10
105
 20
-132
 11
71
 21
-132
  0
LINE
  5
127
100
AcDbEntity
  8
0
  6
CONTINUOUS
 62
   16
420
8388608
370
   25
100
AcDbLine
 10
71
 20
-128
 11
105
 21
-128
  0
LINE
  5
128
100
AcDbEntity
  8
0
  6
CONTINUOUS
 62
   16
420
8388608
370
   25
100
AcDbLine
 10
105
 20
-124
 11
71
 21
-124
  0
LINE
  5
129
100
AcDbEntity
  8
0
  6
CONTINUOUS
 62
   16
420
8388608
370
   25
100
AcDbLine
 10
71
 20
-120
 11
105
 21
-120
  0
LINE
  5
12A
100
AcDbEntity
  8
0
  6
CONTINUOUS
 62
   16
420
8388608
370
   25
100
AcDbLine
 10
105
 20
-116
 11
71
 21
-116
  0
LINE
  5
12B
100
AcDbEntity
  8
0
  6
CONTINUOUS
 62
   16
420
8388608
370
   25
100
AcDbLine
 10
71
 20
-112
 11
105
 21
-112
  0
LINE
  5
12C
100
AcDbEntity
  8
0
  6
CONTINUOUS
 62
   16
420
8388608
370
   25
100
AcDbLine
 10
71
 20
-108
 11
105
 21
-108
  0
LINE
  5
12D
100
AcDbEntity
  8
0
  6
CONTINUOUS
 62
   16
420
8388608
370
   25
100
AcDbLine
 10
71
 20
-104
 11
105
 21
-104
  0
LINE
  5
12E
100
AcDbEntity
  8
0
  6
CONTINUOUS
 62
   16
420
8388608
370
   25
100
AcDbLine
 10
105
 20
-140
 11
71
 21
-140
  0
LINE
  5
12F
100
AcDbEntity
  8
0
  6
CONTINUOUS
 62
   16
420
8388608
370
   25
100
AcDbLine
 10
71
 20
-144
 11
105
 21
-144
  0
LINE
  5
130
100
AcDbEntity
  8
0
  6
CONTINUOUS
 62
   16
420
8388608
370
   25
100
AcDbLine
 10
1
 20
-104
 11
47
 21
-104
  0
LINE
  5
131
100
AcDbEntity
  8
0
  6
CONTINUOUS
 62
   16
420
8388608
370
   25
100
AcDbLine
 10
1
 20
-112
 11
47
 21
-112
  0
LWPOLYLINE
  5
132
100
AcDbEntity
  8
0
  6
ByLayer
 62
  256
370
   -1
100
AcDbPolyline
 90
    2
 70
    1
 43
0
 10
87
 20
-101
 10
89
 20
-147
  0
LWPOLYLINE
  5
133
100
AcDbEntity
  8
0
  6
ByLayer
 62
  256
370
   -1
100
AcDbPolyline
 90
    2
 70
    1
 43
0
 10
79
 20
-104
 10
80
 20
-144
  0
LWPOLYLINE
  5
134
100
AcDbEntity
  8
0
  6
ByLayer
 62
  256
370
   -1
100
AcDbPolyline
 90
    2
 70
    1
 43
0
 10
96
 20
-104
 10
97
 20
-144
  0
LINE
  5
135
100
AcDbEntity
  8
0
  6
CONTINUOUS
 62
   16
420
8388608
370
   25
100
AcDbLine
 10
5
 20
-108
 11
43
 21
-108
  0
DIMENSION
  5
136
100
AcDbEntity
  8
0
  6
ByLayer
 62
  256
370
   -1
100
AcDbDimension
  2
*D17
 10
52
 20
-154
 30
0
 11
50.975
 21
-127
 31
0
 70
   33
 71
    5
  3
Standard
 53
0
210
0
220
0
230
1
100
AcDbAlignedDimension
 13
50
 23
-100
 33
0
 14
50
 24
-154
 34
0
  0
LINE
  5
137
100
AcDbEntity
  8
0
  6
ByLayer
 62
   16
420
8388608
370
   -1
100
AcDbLine
 10
5
 20
-101
 11
5
 21
-153
  0
LINE
  5
138
100
AcDbEntity
  8
0
  6
ByLayer
 62
   16
420
8388608
370
   -1
100
AcDbLine
 10
20
 20
-101
 11
20
 21
-153
  0
LINE
  5
139
100
AcDbEntity
  8
0
  6
ByLayer
 62
   16
420
8388608
370
   -1
100
AcDbLine
 10
28
 20
-153
 11
28
 21
-101
  0
LINE
  5
13A
100
AcDbEntity
  8
0
  6
ByLayer
 62
   16
420
8388608
370
   -1
100
AcDbLine
 10
43
 20
-153
 11
43
 21
-101
  0
LWPOLYLINE
  5
13B
100
AcDbEntity
  8
0
  6
ByLayer
 62
  256
370
   -1
100
AcDbPolyline
 90
    2
 70
    1
 43
0
 10
1
 20
-115
 10
47
 20
-116
  0
LINE
  5
13C
100
AcDbEntity
  8
0
  6
ByLayer
 62
   16
420
8388608
370
   -1
100
AcDbLine
 10
5
 20
-142
 11
20
 21
-142
  0
LINE
  5
13D
100
AcDbEntity
  8
0
  6
ByLayer
 62
   16
420
8388608
370
   -1
100
AcDbLine
 10
5
 20
-138
 11
20
 21
-138
  0
LINE
  5
13E
100
AcDbEntity
  8
0
  6
ByLayer
 62
   16
420
8388608
370
   -1
100
AcDbLine
 10
5
 20
-134
 11
20
 21
-134
  0
LINE
  5
13F
100
AcDbEntity
  8
0
  6
ByLayer
 62
   16
420
8388608
370
   -1
100
AcDbLine
 10
5
 20
-130
 11
20
 21
-130
  0
LINE
  5
140
100
AcDbEntity
  8
0
  6
ByLayer
 62
   16
420
8388608
370
   -1
100
AcDbLine
 10
20
 20
-126
 11
5
 21
-126
  0
LINE
  5
141
100
AcDbEntity
  8
0
  6
ByLayer
 62
   16
420
8388608
370
   -1
100
AcDbLine
 10
5
 20
-122
 11
20
 21
-122
  0
LINE
  5
142
100
AcDbEntity
  8
0
  6
ByLayer
 62
   16
420
8388608
370
   -1
100
AcDbLine
 10
28
 20
-130
 11
43
 21
-130
  0
LINE
  5
143
100
AcDbEntity
  8
0
  6
ByLayer
 62
   16
420
8388608
370
   -1
100
AcDbLine
 10
28
 20
-126
 11
43
 21
-126
  0
LINE
  5
144
100
AcDbEntity
  8
0
  6
ByLayer
 62
   16
420
8388608
370
   -1
100
AcDbLine
 10
28
 20
-122
 11
43
 21
-122
  0
LINE
  5
145
100
AcDbEntity
  8
0
  6
ByLayer
 62
   16
420
8388608
370
   -1
100
AcDbLine
 10
28
 20
-138
 11
43
 21
-138
  0
LINE
  5
146
100
AcDbEntity
  8
0
  6
ByLayer
 62
   16
420
8388608
370
   -1
100
AcDbLine
 10
28
 20
-134
 11
43
 21
-134
  0
LINE
  5
147
100
AcDbEntity
  8
0
  6
ByLayer
 62
   16
420
8388608
370
   -1
100
AcDbLine
 10
28
 20
-142
 11
43
 21
-142
  0
LINE
  5
148
100
AcDbEntity
  8
0
  6
ByLayer
 62
   16
420
8388608
370
   -1
100
AcDbLine
 10
5
 20
-146
 11
20
 21
-146
  0
LINE
  5
149
100
AcDbEntity
  8
0
  6
CONTINUOUS
 62
   16
420
8388608
370
   25
100
AcDbLine
 10
1
 20
-150
 11
47
 21
-150
  0
LINE
  5
14A
100
AcDbEntity
  8
0
  6
ByLayer
 62
   16
420
8388608
370
   -1
100
AcDbLine
 10
28
 20
-146
 11
43
 21
-146
  0
LINE
  5
14B
100
AcDbEntity
  8
0
  6
CONTINUOUS
 62
   16
420
8388608
370
   25
100
AcDbLine
 10
1
 20
-119
 11
47
 21
-119
  0
DIMENSION
  5
14C
100
AcDbEntity
  8
0
  6
ByLayer
 62
  256
370
   -1
100
AcDbDimension
  2
*D18
 10
-3
 20
-126
 30
0
 11
-4.025
 21
-124
 31
0
 70
   33
 71
    5
  3
Standard
 53
0
210
0
220
0
230
1
100
AcDbAlignedDimension
 13
-1
 23
-122
 33
0
 14
-1
 24
-126
 34
0
  0
ARC
  5
14D
100
AcDbEntity
  8
0
  6
ByLayer
 62
  256
370
   -1
100
AcDbCircle
 10
-40
 20
-80
 40
10
100
AcDbArc
 50
180
 51
270
  0
LINE
  5
14E
100
AcDbEntity
  8
0
  6
ByLayer
 62
  256
370
   -1
100
AcDbLine
 10
-50
 20
-80
 11
-50
 21
-70
  0
LINE
  5
14F
100
AcDbEntity
  8
0
  6
ByLayer
 62
  256
370
   -1
100
AcDbLine
 10
-50
 20
-70
 11
-40
 21
-70
  0
LINE
  5
150
100
AcDbEntity
  8
0
  6
ByLayer
 62
  256
370
   -1
100
AcDbLine
 10
-40
 20
-90
 11
-4
 21
-90
  0
LINE
  5
151
100
AcDbEntity
  8
0
  6
ByLayer
 62
  256
370
   -1
100
AcDbLine
 10
-4
 20
-90
 11
-4
 21
-80
  0
LWPOLYLINE
  5
152
100
AcDbEntity
  8
0
  6
ByLayer
 62
  256
370
   -1
100
AcDbPolyline
 90
    4
 70
    1
 43
0
 10
70
 20
0
 10
106
 20
0
 10
106
 20
-48
 10
70
 20
-48
  0
LWPOLYLINE
  5
153
100
AcDbEntity
  8
0
  6
ByLayer
 62
  256
370
   -1
100
AcDbPolyline
 90
    4
 70
    1
 43
0
 10
105
 20
-47
 10
71
 20
-47
 10
71
 20
-1
 10
105
 20
-1
  0
LWPOLYLINE
  5
154
100
AcDbEntity
  8
0
  6
ByLayer
 62
  256
370
   -1
100
AcDbPolyline
 90
    4
 70
    1
 43
0
 10
87
 20
-1
 10
89
 20
-1
 10
89
 20
-47
 10
87
 20
-47
  0
LWPOLYLINE
  5
155
100
AcDbEntity
  8
0
  6
ByLayer
 62
  256
370
   -1
100
AcDbPolyline
 90
    4
 70
    1
 43
0
 10
-4
 20
-60
 10
-40
 20
-60
 10
-40
 20
-70
 10
-4
 20
-70
  0
LWPOLYLINE
  5
156
100
AcDbEntity
  8
0
  6
ByLayer
 62
  256
370
   -1
100
AcDbPolyline
 90
    4
 70
    1
 43
0
 10
-40
 20
-70
 10
-4
 20
-70
 10
-4
 20
-80
 10
-40
 20
-80
  0
LWPOLYLINE
  5
157
100
AcDbEntity
  8
0
  6
ByLayer
 62
  256
370
   -1
100
AcDbPolyline
 90
    4
 70
    1
 43
0
 10
0
 20
-100
 10
48
 20
-100
 10
48
 20
-154
 10
0
 20
-154
  0
LWPOLYLINE
  5
158
100
AcDbEntity
  8
0
  6
ByLayer
 62
  256
370
   -1
100
AcDbPolyline
 90
    4
 70
    1
 43
0
 10
47
 20
-153
 10
1
 20
-153
 10
1
 20
-101
 10
47
 20
-101
  0
LWPOLYLINE
  5
159
100
AcDbEntity
  8
0
  6
ByLayer
 62
  256
370
   -1
100
AcDbPolyline
 90
    4
 70
    1
 43
0
 10
73
 20
-101
 10
103
 20
-101
 10
103
 20
-147
 10
73
 20
-147
  0
ENDSEC
  0
SECTION
  2
OBJECTS
  0
DICTIONARY
  5
C
330
0
100
AcDbDictionary
281
    1
  3
ACAD_GROUP
350
D
  0
DICTIONARY
  5
D
330
C
100
AcDbDictionary
281
    1
  0
PLOTSETTINGS
  5
15A
100
AcDbPlotSettings
  6
1x1
 40
0
 41
0
 42
0
 43
0
  0
ENDSEC
  0
EOF
